<?xml version="1.0" standalone="no"?>
<!DOCTYPE svg PUBLIC "-//W3C//DTD SVG 1.1//EN" "http://www.w3.org/Graphics/SVG/1.1/DTD/svg11.dtd" >
<svg>
<metadata>
Created by FontForge 20110222 at Wed Sep 10 13:51:12 2014
 By deploy user
Copyright 2008 Dalton Maag Ltd. This typeface is for exclusive use by Toyota Motor Corporation only. The typeface may only be used in projects relating to Toyota Motor Corporation. All rights reserved.
</metadata>
<defs>
<font id="ToyotaText-Italic" horiz-adv-x="420" >
  <font-face 
    font-family="Toyota Text"
    font-weight="400"
    font-style="italic"
    font-stretch="normal"
    units-per-em="1000"
    panose-1="2 11 5 3 4 2 2 9 2 4"
    ascent="800"
    descent="-200"
    x-height="501"
    cap-height="721"
    bbox="-220 -270 1060 1019"
    underline-thickness="50"
    underline-position="-50"
    slope="-12"
    unicode-range="U+0020-FB04"
  />
<missing-glyph horiz-adv-x="560" 
d="M50 700h460v-700h-460v700zM445 54v592h-330v-592h330z" />
    <glyph glyph-name="ff" unicode="ff" horiz-adv-x="626" 
d="M-33 -127q31 10 49.5 44.5t30.5 105.5l71 410h-75l11 68h76l10 52q8 42 20.5 76t33.5 57.5t52 36.5t76 13q38 0 63 -9.5t40 -20.5l-34 -56q-11 8 -28.5 14.5t-42.5 6.5q-26 0 -42 -8.5t-26.5 -25.5t-17 -42.5t-12.5 -58.5l-6 -35h219l10 52q8 42 20.5 76t33.5 57.5
t52 36.5t76 13q38 0 63 -9.5t40 -20.5l-34 -56q-11 8 -28.5 14.5t-42.5 6.5q-26 0 -42 -8.5t-26.5 -25.5t-17 -42.5t-12.5 -58.5l-6 -35h135l-11 -68h-136l-76 -433q-6 -37 -16.5 -65t-26.5 -50t-39 -38t-56 -28l-23 54q31 10 49.5 44.5t30.5 105.5l71 410h-219l-76 -433
q-6 -37 -16.5 -65t-26.5 -50t-39 -38t-56 -28z" />
    <glyph glyph-name="fi" unicode="fi" horiz-adv-x="564" 
d="M-33 -127q31 10 49.5 44.5t30.5 105.5l71 410h-75l11 68h76l10 53q8 42 23.5 75.5t42 57t64.5 36.5t91 13q55 0 96.5 -14.5t66.5 -32.5l-35 -56q-20 15 -54 26.5t-71 11.5q-34 0 -58 -6.5t-40.5 -21.5t-27 -40.5t-16.5 -64.5l-6 -37h296l-88 -501h-86l75 433h-209
l-76 -433q-6 -37 -16.5 -65t-26.5 -50t-39 -38t-56 -28z" />
    <glyph glyph-name="fl" unicode="fl" horiz-adv-x="572" 
d="M-33 -127q31 10 49.5 44.5t30.5 105.5l71 410h-75l11 68h76l10 53q8 42 23.5 75.5t42.5 57t67 36.5t97 13q28 0 55 -5t51 -13t43 -18.5t31 -21.5l-116 -678h-86l112 649q-15 9 -41.5 15.5t-52.5 6.5q-33 0 -57 -6t-41.5 -21.5t-28.5 -41t-17 -64.5l-6 -37h135l-11 -68
h-136l-76 -434q-6 -36 -16.5 -64t-26.5 -50t-39.5 -38t-55.5 -28z" />
    <glyph glyph-name="ffi" unicode="ffi" horiz-adv-x="870" 
d="M-33 -127q31 10 49.5 44.5t30.5 105.5l71 410h-75l11 68h76l10 52q8 42 20.5 76t33.5 57.5t52 36.5t76 13q38 0 63 -9.5t40 -20.5l-34 -56q-11 8 -28.5 14.5t-42.5 6.5q-26 0 -42 -8.5t-26.5 -25.5t-17 -42.5t-12.5 -58.5l-6 -35h221l10 53q8 42 23.5 75.5t42 57
t64.5 36.5t91 13q55 0 96.5 -14.5t66.5 -32.5l-35 -56q-20 15 -54 26.5t-71 11.5q-34 0 -58 -6.5t-40.5 -21.5t-27 -40.5t-16.5 -64.5l-6 -37h296l-88 -501h-86l75 433h-209l-76 -433q-6 -37 -16.5 -65t-26.5 -50t-39 -38t-56 -28l-23 54q31 10 49.5 44.5t30.5 105.5l71 410
h-221l-76 -433q-6 -37 -16.5 -65t-26.5 -50t-39 -38t-56 -28z" />
    <glyph glyph-name="ffl" unicode="ffl" horiz-adv-x="879" 
d="M-33 -127q31 10 49.5 44.5t30.5 105.5l71 410h-75l11 68h76l10 52q8 42 20.5 76t33.5 57.5t52 36.5t76 13q38 0 63 -9.5t40 -20.5l-34 -56q-11 8 -28.5 14.5t-42.5 6.5q-26 0 -42 -8.5t-26.5 -25.5t-17 -42.5t-12.5 -58.5l-6 -35h220l10 53q8 42 23.5 75.5t42.5 57
t67 36.5t97 13q28 0 55 -5t51 -13t43 -18.5t31 -21.5l-116 -678h-86l112 649q-15 9 -41.5 15.5t-52.5 6.5q-33 0 -57 -6t-41.5 -21.5t-28.5 -41t-17 -64.5l-6 -37h135l-11 -68h-136l-76 -434q-6 -36 -16.5 -64t-26.5 -50t-39.5 -38t-55.5 -28l-23 54q31 10 49.5 44.5
t30.5 105.5l71 410h-220l-76 -433q-6 -37 -16.5 -65t-26.5 -50t-39 -38t-56 -28z" />
    <glyph glyph-name=".notdef" horiz-adv-x="560" 
d="M50 700h460v-700h-460v700zM445 54v592h-330v-592h330z" />
    <glyph glyph-name=".null" horiz-adv-x="0" 
 />
    <glyph glyph-name="nonmarkingreturn" horiz-adv-x="0" 
 />
    <glyph glyph-name="space" unicode=" " horiz-adv-x="180" 
 />
    <glyph glyph-name="exclam" unicode="!" horiz-adv-x="261" 
d="M144 721h97l-104 -516h-73zM68 -17q-26 0 -40.5 17t-14.5 43q0 34 18.5 55.5t47.5 21.5q27 0 41.5 -18t14.5 -42q0 -36 -19.5 -56.5t-47.5 -20.5z" />
    <glyph glyph-name="quotedbl" unicode="&#x22;" horiz-adv-x="321" 
d="M104 721h81l-60 -289h-67zM248 721h81l-60 -289h-67z" />
    <glyph glyph-name="numbersign" unicode="#" horiz-adv-x="677" 
d="M123 201h-106l11 72h119l60 181h-105l12 73h118l46 143h80l-46 -143h163l48 143h78l-47 -143h111l-12 -73h-125l-59 -181h109l-11 -72h-122l-52 -162h-79l51 162h-162l-53 -162h-80zM391 273l59 181h-163l-60 -181h164z" />
    <glyph glyph-name="dollar" unicode="$" horiz-adv-x="594" 
d="M67 109q34 -21 76.5 -36t98.5 -15q33 0 61.5 10t49.5 28t33.5 43.5t12.5 56.5q0 23 -5.5 40t-20 32.5t-40.5 31t-68 35.5q-35 16 -64 31.5t-50 36.5t-32.5 49t-11.5 70q0 43 16 78t44 60.5t67 40.5t85 18l15 86h74l-15 -86q54 -5 90 -20.5t55 -30.5l-37 -63
q-23 15 -60 30t-98 15q-69 0 -106.5 -30.5t-37.5 -81.5q0 -24 7 -41t23 -31.5t43 -28.5t67 -33q36 -17 64 -35t47.5 -40t29.5 -50.5t10 -66.5q0 -42 -15 -80t-43.5 -68t-69.5 -50t-94 -25l-15 -83h-77l14 83q-48 5 -89.5 19.5t-72.5 35.5z" />
    <glyph glyph-name="percent" unicode="%" horiz-adv-x="843" 
d="M626 712h89l-496 -712h-89zM189 383q31 0 51.5 23.5t32.5 56t17 67t5 56.5q0 77 -52 77q-31 0 -51.5 -22.5t-32.5 -54t-17 -65t-5 -55.5q0 -42 11.5 -62.5t40.5 -20.5zM187 325q-124 0 -124 136q0 53 12.5 100.5t35.5 83t57 56t78 20.5q62 0 92.5 -36t30.5 -96
q0 -55 -12 -103t-35.5 -84t-57.5 -56.5t-77 -20.5zM604 45q30 0 49.5 23.5t31 56t16.5 67t5 56.5q0 77 -52 77q-31 0 -51.5 -23.5t-32.5 -56t-17 -67t-5 -56.5q0 -38 13 -57.5t43 -19.5zM597 -13q-65 0 -94 36.5t-29 95.5q0 55 12.5 103t35.5 84t57 56.5t78 20.5
q62 0 92.5 -36t30.5 -96q0 -55 -12 -103t-35 -84t-57 -56.5t-79 -20.5z" />
    <glyph glyph-name="ampersand" unicode="&#x26;" horiz-adv-x="661" 
d="M427 87q-17 -17 -38 -35.5t-48 -34t-60 -25.5t-72 -10q-51 0 -86 14.5t-57 38t-31.5 53t-9.5 60.5q0 49 18 90.5t47.5 76.5t66.5 63.5t76 51.5q-14 28 -24.5 61.5t-10.5 71.5q0 30 11 61t34.5 56t61 40.5t90.5 15.5q50 0 85 -16t55 -36l-38 -56q-19 15 -46.5 27t-60.5 12
q-30 0 -50.5 -7.5t-33 -20.5t-18 -29t-5.5 -33q0 -32 12 -65t30 -66l125 -226l119 148l57 -39l-139 -177l80 -144l-80 -26zM268 368q-71 -45 -112 -92.5t-41 -112.5q0 -45 25 -75.5t80 -30.5q51 0 94 29t75 69z" />
    <glyph glyph-name="quotesingle" unicode="'" horiz-adv-x="177" 
d="M104 721h81l-60 -289h-67z" />
    <glyph glyph-name="parenleft" unicode="(" horiz-adv-x="327" 
d="M179 -160q-34 41 -59.5 87t-42 93t-24.5 93.5t-8 88.5q0 176 78 313.5t220 240.5l44 -55q-54 -41 -100.5 -92t-80.5 -112.5t-53 -133t-19 -152.5q0 -32 3 -66t14 -73.5t31.5 -84.5t55.5 -98z" />
    <glyph glyph-name="parenright" unicode=")" horiz-adv-x="327" 
d="M-85 -105q54 40 100.5 91.5t80.5 113t53 133t19 152.5q0 31 -3 65.5t-14 74t-31.5 84.5t-55.5 98l59 49q34 -41 59.5 -87t42 -93t24.5 -93.5t8 -88.5q0 -176 -78 -313.5t-220 -240.5z" />
    <glyph glyph-name="asterisk" unicode="*" horiz-adv-x="431" 
d="M197 512l-137 33l23 78l132 -59l-12 157h79l-11 -157l131 57l24 -76l-139 -33l100 -116l-65 -47l-80 127l-80 -128l-65 48z" />
    <glyph glyph-name="plus" unicode="+" horiz-adv-x="594" 
d="M256 300h-183v80h183v193h81v-193h183v-80h-183v-193h-81v193z" />
    <glyph glyph-name="comma" unicode="," horiz-adv-x="190" 
d="M18 105l87 -22l-111 -230l-56 17z" />
    <glyph glyph-name="hyphen" unicode="-" horiz-adv-x="423" 
d="M75 357h282l-15 -85h-282z" />
    <glyph glyph-name="period" unicode="." horiz-adv-x="237" 
d="M65 -17q-26 0 -40.5 17t-14.5 40q0 36 18.5 58t47.5 22q27 0 41.5 -18t14.5 -42q0 -36 -19.5 -56.5t-47.5 -20.5z" />
    <glyph glyph-name="slash" unicode="/" horiz-adv-x="424" 
d="M387 764h92l-463 -842h-91z" />
    <glyph glyph-name="zero" unicode="0" horiz-adv-x="594" 
d="M246 58q43 0 81.5 35.5t66.5 94t44.5 134.5t16.5 157q0 85 -22 128t-81 43q-47 0 -86.5 -35.5t-68 -94t-44 -134.5t-15.5 -157t23 -126t85 -45zM239 -13q-60 0 -97.5 20t-59.5 53.5t-30 77.5t-8 92q0 55 8.5 113t25.5 113t43 103t61.5 84t80 57t99.5 21q51 0 87 -19
t58 -51t32 -75t10 -91q0 -86 -18.5 -174.5t-56.5 -160.5t-96.5 -117.5t-138.5 -45.5z" />
    <glyph glyph-name="one" unicode="1" horiz-adv-x="594" 
d="M87 71h155l94 519q1 5 2 11.5t1 8.5q0 8 -5 8q-4 0 -7.5 -2t-14.5 -10l-133 -98l-36 61l158 120q19 15 36.5 23.5t42.5 8.5t40 -11.5t15 -37.5q0 -4 -2 -17t-3 -18l-103 -566h145l-13 -71h-385z" />
    <glyph glyph-name="two" unicode="2" horiz-adv-x="594" 
d="M479 72l-13 -72h-378q-42 0 -58.5 19t-16.5 44q0 23 8.5 41t35.5 44l229 204q37 35 64 61t43.5 49t24.5 45.5t8 50.5q0 42 -26.5 66t-82.5 24q-29 0 -56.5 -7t-52 -17.5t-43.5 -22t-31 -20.5l-37 57q20 16 45.5 31t55 26.5t62 18.5t67.5 7q49 0 85.5 -12t60.5 -33
t35.5 -49.5t11.5 -61.5q0 -44 -14.5 -79.5t-37.5 -66.5t-52.5 -58.5t-59.5 -54.5l-236 -207q-10 -9 -10 -18t16 -9h353z" />
    <glyph glyph-name="three" unicode="3" horiz-adv-x="594" 
d="M47 115q32 -24 76 -39.5t88 -15.5t77 13.5t55.5 37t34 56t11.5 70.5q0 59 -32 90t-103 31h-52l10 60l226 195q10 9 10 17q0 10 -12 10h-312l14 72h326q75 0 75 -62q0 -23 -12 -44t-42 -46l-171 -141q46 -3 78.5 -17.5t52.5 -39t29 -57t9 -69.5q0 -39 -14.5 -83t-46 -80.5
t-82 -61t-123.5 -24.5q-65 0 -118 17t-92 45z" />
    <glyph glyph-name="four" unicode="4" horiz-adv-x="594" 
d="M343 184h-220q-79 0 -79 57q0 28 13 50t39 51l345 370h84l-83 -456h98l-13 -72h-97l-34 -184h-86zM356 256l59 326l-263 -283q-5 -6 -9 -12t-4 -15q0 -16 19 -16h198z" />
    <glyph glyph-name="five" unicode="5" horiz-adv-x="594" 
d="M43 119q32 -23 76 -41t95 -18q44 0 77.5 15.5t56 41t34 59t11.5 69.5q0 63 -28.5 93.5t-91.5 30.5q-35 0 -70.5 -10t-61.5 -23l-39 31l88 345h337l-13 -72h-264l-56 -225q54 23 111 23q36 0 68.5 -11t57 -33t39 -55.5t14.5 -78.5q0 -56 -17.5 -105.5t-51 -86.5t-83 -59
t-112.5 -22q-71 0 -124.5 18.5t-90.5 49.5z" />
    <glyph glyph-name="six" unicode="6" horiz-adv-x="594" 
d="M536 615q-23 17 -50.5 26.5t-69.5 9.5q-44 0 -79.5 -18.5t-63.5 -50.5t-48.5 -76.5t-33.5 -95.5q24 16 66.5 29t93.5 13q42 0 73.5 -15.5t52.5 -41t31.5 -59.5t10.5 -71q0 -63 -20 -114.5t-53.5 -88t-78.5 -56t-95 -19.5q-51 0 -89 16.5t-63 47t-37 74t-12 96.5
q0 92 23 182t68 160.5t110.5 114t150.5 43.5q57 0 94.5 -14.5t57.5 -30.5zM179 341q-8 -29 -12 -64t-4 -65q0 -73 25 -112.5t89 -39.5q31 0 58 12.5t47 37t31.5 61t11.5 85.5q0 61 -28 93t-82 32q-38 0 -75 -12t-61 -28z" />
    <glyph glyph-name="seven" unicode="7" horiz-adv-x="594" 
d="M461 610q3 5 5 9t2 10q0 11 -15 11h-352l13 72h404q31 0 44 -10.5t13 -31.5q0 -22 -9 -41t-23 -43l-340 -586h-97z" />
    <glyph glyph-name="eight" unicode="8" horiz-adv-x="594" 
d="M206 369q-14 8 -28 20.5t-25.5 30.5t-19 41t-7.5 53q0 39 15.5 76t45.5 66t73 47t97 18q44 0 79.5 -12t60 -33.5t38 -50.5t13.5 -63q0 -38 -12.5 -69t-33.5 -55t-48 -41.5t-55 -28.5q25 -12 47 -27.5t38 -35.5t25 -46t9 -60q0 -44 -17.5 -83.5t-50.5 -69t-80 -47
t-106 -17.5q-103 0 -160.5 46.5t-57.5 132.5q0 41 14.5 73.5t37.5 58t51.5 44t56.5 32.5zM277 336q-62 -20 -99.5 -61t-37.5 -104q0 -54 33.5 -86t99.5 -32t108.5 35t42.5 103q0 25 -6.5 45.5t-23 38t-45 32t-72.5 29.5zM326 399q27 8 50.5 21t41 32t28 45t10.5 59
q0 45 -27.5 70t-78.5 25q-33 0 -58 -11t-42.5 -29t-26 -42t-8.5 -49q0 -48 30.5 -76.5t80.5 -44.5z" />
    <glyph glyph-name="nine" unicode="9" horiz-adv-x="594" 
d="M81 94q20 -14 50.5 -25.5t75.5 -11.5q47 0 82.5 19.5t61.5 53.5t42.5 79t26.5 95q-12 -7 -29 -14t-37.5 -12t-43 -8.5t-44.5 -3.5q-84 0 -131 51t-47 143q0 63 21 111.5t55.5 82t78.5 50.5t90 17q102 0 152.5 -60.5t50.5 -165.5q0 -73 -9.5 -141.5t-29.5 -127.5t-50 -107
t-72 -80q-32 -25 -75.5 -38.5t-95.5 -13.5q-57 0 -99 14t-68 33zM431 373q2 10 4.5 24.5t4.5 31t3 33.5t1 32q0 75 -26.5 114.5t-92.5 39.5q-29 0 -55 -12t-45.5 -35.5t-31 -57.5t-11.5 -77q0 -68 26.5 -100t86.5 -32q36 0 71.5 10t64.5 29z" />
    <glyph glyph-name="colon" unicode=":" horiz-adv-x="237" 
d="M65 -17q-26 0 -40.5 17t-14.5 40q0 36 18.5 58t47.5 22q27 0 41.5 -18t14.5 -42q0 -36 -19.5 -56.5t-47.5 -20.5zM130 372q-26 0 -40.5 17t-14.5 40q0 36 18.5 58t47.5 22q27 0 41.5 -18t14.5 -42q0 -36 -19.5 -56.5t-47.5 -20.5z" />
    <glyph glyph-name="semicolon" unicode=";" horiz-adv-x="190" 
d="M101 372q-26 0 -40.5 17t-14.5 40q0 36 18.5 58t47.5 22q27 0 41.5 -18t14.5 -42q0 -36 -19.5 -56.5t-47.5 -20.5zM18 105l87 -22l-111 -230l-56 17z" />
    <glyph glyph-name="less" unicode="&#x3c;" horiz-adv-x="594" 
d="M529 160l-53 -69l-316 134q-48 20 -72 43.5t-24 68.5q0 41 27 68t76 48l316 137l46 -68l-342 -147q-34 -14 -34 -37q0 -15 9.5 -22.5t26.5 -14.5z" />
    <glyph glyph-name="equal" unicode="=" horiz-adv-x="598" 
d="M75 470h447v-80h-447v80zM75 290h447v-80h-447v80z" />
    <glyph glyph-name="greater" unicode="&#x3e;" horiz-adv-x="594" 
d="M64 159l341 148q34 14 34 37q0 15 -9.5 22.5t-26.5 14.5l-339 140l53 69l316 -134q48 -20 72 -43.5t24 -68.5q0 -41 -27 -68t-76 -48l-316 -137z" />
    <glyph glyph-name="question" unicode="?" horiz-adv-x="453" 
d="M139 257q8 47 33.5 77.5t56.5 56.5l55 46q42 35 60 66t18 70q0 40 -24.5 63.5t-78.5 23.5q-48 0 -88.5 -17t-78.5 -44l-32 55q42 34 98.5 56.5t119.5 22.5q45 0 78 -11t54.5 -30.5t32 -46t10.5 -57.5q0 -36 -9.5 -65t-25.5 -54t-37 -45.5t-44 -38.5l-42 -33
q-36 -29 -59 -53t-30 -62l-6 -32h-71zM132 -17q-26 0 -40.5 17t-14.5 40q0 36 18.5 58t47.5 22q27 0 41.5 -18t14.5 -42q0 -36 -19.5 -56.5t-47.5 -20.5z" />
    <glyph glyph-name="at" unicode="@" horiz-adv-x="916" 
d="M657 -160q-38 -19 -96.5 -36.5t-136.5 -17.5q-93 0 -166.5 23t-124 68t-77.5 111t-27 152q0 120 40.5 219t109 169.5t158 109t188.5 38.5q73 0 134 -21t104.5 -61.5t67.5 -100t24 -135.5q0 -87 -25 -156t-66 -117.5t-93.5 -74t-106.5 -25.5l-51 46q-27 -20 -59.5 -35
t-68.5 -15q-71 0 -109 45t-38 127q0 64 19.5 122t54.5 101.5t83.5 69t106.5 25.5q47 0 82.5 -10t57.5 -21l-63 -356l26 -33q37 6 66 33t49 68t31 92.5t11 107.5q0 119 -62.5 186t-185.5 67q-82 0 -153.5 -34.5t-124 -95.5t-83 -144.5t-30.5 -180.5q0 -139 79 -217t236 -78
q65 0 111.5 13.5t84.5 32.5zM551 397q-11 5 -24.5 8t-34.5 3q-32 0 -62 -17.5t-53 -49t-37 -76t-14 -97.5q0 -51 19 -84.5t57 -33.5q32 0 51.5 10t42.5 29z" />
    <glyph glyph-name="A" unicode="A" horiz-adv-x="603" 
d="M258 651q21 45 46.5 64.5t68.5 19.5q24 0 40.5 -4.5t27.5 -16t17.5 -32t9.5 -53.5l65 -628l-95 -15l-26 249h-256l-114 -249l-82 17zM404 310l-32 311q-2 22 -4.5 28.5t-10.5 6.5t-13 -7.5t-13 -25.5l-143 -313h216z" />
    <glyph glyph-name="B" unicode="B" horiz-adv-x="578" 
d="M147 721h206q84 0 137 -39t53 -116q0 -64 -33.5 -111.5t-90.5 -78.5q47 -20 73.5 -57t26.5 -85q0 -61 -21 -105.5t-58 -73t-86 -42t-106 -13.5h-229zM263 71q34 0 64 9t52 27.5t34.5 47.5t12.5 69q0 30 -13 51t-33 34t-44 19t-46 6h-123l-46 -263h142zM305 407
q31 0 57 11t45.5 30.5t30.5 46t11 57.5q0 48 -30.5 73t-93.5 25h-102l-43 -243h125z" />
    <glyph glyph-name="C" unicode="C" horiz-adv-x="535" 
d="M479 40q-49 -29 -96.5 -43.5t-105.5 -14.5q-68 0 -113 22.5t-72 61.5t-38.5 91.5t-11.5 113.5q0 109 30 195.5t80 146.5t114.5 91.5t134.5 31.5q48 0 88 -13t71 -36l-37 -62q-27 19 -59.5 28t-62.5 9q-59 0 -106.5 -30t-81.5 -83t-52 -125t-18 -155q0 -44 7.5 -82t25 -67
t46.5 -45.5t73 -16.5q40 0 76.5 12t82.5 38z" />
    <glyph glyph-name="D" unicode="D" horiz-adv-x="652" 
d="M147 721h177q76 0 130 -18.5t88 -55t49.5 -90.5t15.5 -124q0 -86 -25 -164.5t-72.5 -138t-117.5 -95t-160 -35.5h-213zM232 75q61 0 111.5 24.5t86.5 70t56 111t20 147.5q0 62 -12 104t-36 68t-60.5 37t-85.5 11h-87l-102 -573h109z" />
    <glyph glyph-name="E" unicode="E" horiz-adv-x="514" 
d="M147 721h392l-14 -74h-300l-41 -233h231l-14 -76h-231l-47 -262h320l-13 -76h-411z" />
    <glyph glyph-name="F" unicode="F" horiz-adv-x="499" 
d="M147 721h402l-14 -74h-310l-41 -233h231l-14 -76h-231l-60 -338h-91z" />
    <glyph glyph-name="G" unicode="G" horiz-adv-x="613" 
d="M460 302h-128l14 74h215l-58 -325q-17 -12 -41 -24.5t-52.5 -22t-60 -16t-64.5 -6.5q-70 0 -116.5 21t-74.5 59.5t-40 91.5t-12 117q0 106 28.5 192t78 147t116.5 93.5t143 32.5q50 0 91.5 -14.5t68.5 -36.5l-39 -63q-22 17 -54.5 28.5t-72.5 11.5q-58 0 -105.5 -29
t-81.5 -81.5t-53 -124.5t-19 -158q0 -44 7.5 -82t25 -67t46 -45.5t70.5 -16.5t75 10t57 24z" />
    <glyph glyph-name="H" unicode="H" horiz-adv-x="644" 
d="M147 721h91l-54 -307h297l54 307h91l-128 -721h-91l60 338h-297l-60 -338h-91z" />
    <glyph glyph-name="I" unicode="I" horiz-adv-x="256" 
d="M147 721h91l-128 -721h-91z" />
    <glyph glyph-name="J" unicode="J" horiz-adv-x="428" 
d="M-15 90q24 -14 51 -22.5t62 -8.5q34 0 56 9t35.5 26t21.5 42.5t14 58.5l94 526h91l-95 -539q-10 -55 -27 -93t-43 -62t-61.5 -34.5t-81.5 -10.5q-57 0 -95 13t-57 27z" />
    <glyph glyph-name="K" unicode="K" horiz-adv-x="556" 
d="M147 721h91l-56 -315h43q23 0 34 4.5t22 18.5l244 300l81 -18l-273 -338l164 -362l-94 -20l-139 312q-8 19 -18 23t-24 4h-53l-59 -330h-91z" />
    <glyph glyph-name="L" unicode="L" horiz-adv-x="515" 
d="M147 721h91l-114 -645h336l-14 -76h-427z" />
    <glyph glyph-name="M" unicode="M" horiz-adv-x="758" 
d="M166 721h93l99 -370q5 -17 8.5 -22.5t10.5 -5.5t13 6t16 22l227 370h87l-95 -721h-90l75 545l-148 -237q-23 -36 -44.5 -58t-59.5 -22q-41 0 -56 21t-26 60l-68 242l-119 -551h-87z" />
    <glyph glyph-name="N" unicode="N" horiz-adv-x="651" 
d="M146 721h93l181 -612q4 -14 5.5 -18.5t6.5 -4.5t6 3.5t3 11.5l111 620h81l-110 -621q-11 -60 -36.5 -83.5t-69.5 -23.5q-27 0 -47 14t-33 58l-141 484l-96 -549h-81z" />
    <glyph glyph-name="O" unicode="O" horiz-adv-x="668" 
d="M270 -18q-62 0 -106 20.5t-72 57t-41 86.5t-13 110q0 99 25.5 186t72 152.5t111 103.5t142.5 38q60 0 105 -20.5t74 -57t43.5 -86.5t14.5 -110q0 -102 -25 -189.5t-71.5 -152t-112 -101.5t-147.5 -37zM279 57q60 0 106 34t77.5 91t47.5 131.5t16 155.5q0 89 -35 140.5
t-108 51.5q-60 0 -106 -34t-77 -91t-46.5 -131.5t-15.5 -155.5q0 -89 35 -140.5t106 -51.5z" />
    <glyph glyph-name="P" unicode="P" horiz-adv-x="564" 
d="M147 721h202q91 0 145.5 -41t54.5 -129q0 -57 -17.5 -105t-52.5 -83t-87.5 -54.5t-121.5 -19.5h-109l-51 -289h-91zM286 364q37 0 67.5 10t53 30.5t35 53t12.5 77.5q0 64 -33 89t-99 25h-97l-51 -285h112z" />
    <glyph glyph-name="Q" unicode="Q" horiz-adv-x="672" 
d="M274 -18q-62 0 -106 20.5t-72 57t-41 86.5t-13 110q0 99 25.5 186t72 152.5t111 103.5t142.5 38q60 0 105 -20.5t74 -57t43.5 -86.5t14.5 -110q0 -72 -13 -137.5t-37 -121t-58.5 -99t-78.5 -72.5l89 -109l-69 -54l-103 125q-20 -5 -41.5 -8.5t-44.5 -3.5zM283 57
q60 0 106 34t77.5 91t47.5 131.5t16 155.5q0 89 -35 140.5t-108 51.5q-60 0 -106 -34t-77 -91t-46.5 -131.5t-15.5 -155.5q0 -89 35 -140.5t106 -51.5z" />
    <glyph glyph-name="R" unicode="R" horiz-adv-x="569" 
d="M147 721h197q41 0 76.5 -8.5t62 -27t41.5 -48.5t15 -73q0 -51 -14 -90t-38.5 -68t-57 -48t-69.5 -31q19 -13 28.5 -28t18.5 -39l94 -254l-91 -21l-95 254q-8 20 -15.5 33.5t-18.5 21.5t-27 11.5t-39 3.5h-50l-55 -309h-91zM273 383q36 0 67.5 10t54.5 30t36 50.5t13 72.5
q0 30 -9 50t-26 32t-40.5 16.5t-52.5 4.5h-91l-48 -266h96z" />
    <glyph glyph-name="S" unicode="S" horiz-adv-x="549" 
d="M34 109q35 -22 78 -37t101 -15q35 0 65.5 10.5t53.5 29t36 44.5t13 57q0 24 -6 42.5t-21.5 34.5t-42.5 31t-69 32q-35 14 -65 29.5t-52.5 37t-35.5 51t-13 71.5q0 46 18 84.5t51.5 66.5t80.5 43t105 15q73 0 122.5 -18t73.5 -37l-38 -61q-23 16 -63.5 30t-102.5 14
q-71 0 -111 -34t-40 -88q0 -26 6.5 -43.5t22.5 -32t44 -28.5t70 -32q78 -33 119.5 -74.5t41.5 -108.5q0 -51 -16.5 -95.5t-50 -76.5t-84 -50.5t-117.5 -18.5q-73 0 -126.5 18t-88.5 41z" />
    <glyph glyph-name="T" unicode="T" horiz-adv-x="489" 
d="M247 647h-197l14 74h485l-14 -74h-197l-115 -647h-91z" />
    <glyph glyph-name="U" unicode="U" horiz-adv-x="641" 
d="M141 721h91l-74 -415q-7 -39 -11.5 -72t-4.5 -60q0 -58 25.5 -87.5t92.5 -29.5q46 0 78.5 14.5t54 43.5t35.5 72t24 100l78 434h91l-77 -435q-13 -72 -33.5 -128.5t-54.5 -95.5t-84 -59.5t-121 -20.5q-56 0 -94 12t-61.5 35.5t-34 58t-10.5 79.5q0 51 12 116z" />
    <glyph glyph-name="V" unicode="V" horiz-adv-x="583" 
d="M65 715l95 16l64 -635q2 -22 4.5 -28.5t9.5 -6.5q8 0 13 7.5t14 27.5l291 635l82 -17l-300 -648q-21 -45 -46.5 -64.5t-68.5 -19.5q-24 0 -40.5 4.5t-27.5 16t-17.5 32t-9.5 53.5z" />
    <glyph glyph-name="W" unicode="W" horiz-adv-x="871" 
d="M74 712l95 16l28 -632q0 -20 3.5 -27.5t11.5 -7.5t12.5 7t12.5 28l215 625h78l26 -625q1 -21 2.5 -28t10.5 -7q8 0 12.5 7.5t11.5 25.5l231 634l81 -16l-232 -637q-10 -27 -20.5 -45t-24 -28.5t-31 -15t-40.5 -4.5q-27 0 -44.5 6t-28 18.5t-15 32.5t-5.5 49l-16 386
l-135 -397q-11 -29 -23 -47.5t-27 -29t-32.5 -14.5t-38.5 -4q-50 0 -69 24.5t-21 81.5z" />
    <glyph glyph-name="X" unicode="X" horiz-adv-x="566" 
d="M210 370l-129 333l87 28l108 -286q4 -10 7 -14t9 -4q10 0 21 16l207 291l76 -26l-242 -336l139 -356l-90 -26l-116 306q-7 17 -14 17t-19 -16l-225 -307l-76 28z" />
    <glyph glyph-name="Y" unicode="Y" horiz-adv-x="524" 
d="M191 279q-17 4 -26 25.5t-17 55.5l-85 352l90 18l84 -359q4 -15 7 -20t8 -5t10.5 5.5t14.5 20.5l215 356l80 -19l-226 -366q-13 -20 -22 -32.5t-16.5 -19.5t-14 -10t-12.5 -4l-48 -277h-92z" />
    <glyph glyph-name="Z" unicode="Z" horiz-adv-x="535" 
d="M455 74l-13 -74h-388q-38 0 -53.5 15.5t-15.5 41.5q0 29 14.5 51.5t34.5 48.5l393 490h-327l14 74h446l-10 -55l-458 -565q-7 -8 -9 -11.5t-2 -8.5q0 -7 13 -7h361z" />
    <glyph glyph-name="bracketleft" unicode="[" horiz-adv-x="325" 
d="M151 741h224l-13 -68h-137l-135 -749h142l-13 -69h-229z" />
    <glyph glyph-name="backslash" unicode="\" horiz-adv-x="366" 
d="M60 764h86l158 -842h-86z" />
    <glyph glyph-name="bracketright" unicode="]" horiz-adv-x="325" 
d="M-57 -77h136l135 749h-142l13 69h229l-161 -886h-223z" />
    <glyph glyph-name="asciicircum" unicode="^" horiz-adv-x="446" 
d="M176 634q16 27 28.5 46t25 31t27 17.5t34.5 5.5t33 -5.5t21 -17.5t14 -31t12 -46l60 -252l-74 -29l-58 276q-4 18 -7 25t-13 7q-8 0 -13.5 -7t-16.5 -25l-158 -276l-66 29z" />
    <glyph glyph-name="underscore" unicode="_" horiz-adv-x="480" 
d="M-72 0h501v-79h-501v79z" />
    <glyph glyph-name="grave" unicode="`" horiz-adv-x="500" 
d="M171 754l76 42l83 -189l-49 -24z" />
    <glyph glyph-name="a" unicode="a" horiz-adv-x="528" 
d="M325 55q-32 -31 -66.5 -52t-81.5 -21q-71 0 -109 46.5t-38 136.5q0 75 21.5 140t61.5 112.5t97 74.5t127 27q49 0 85 -10t52 -17l-69 -397l34 -74l-72 -37zM381 447q-10 4 -23 6.5t-33 2.5q-43 0 -80.5 -21t-65 -58.5t-43 -88t-15.5 -109.5q0 -39 6 -63.5t16.5 -38.5
t26 -19t34.5 -5q18 0 38 8t39 24t33 40t20 57z" />
    <glyph glyph-name="b" unicode="b" horiz-adv-x="542" 
d="M153 736h87l-49 -280q23 25 59.5 44t83.5 19q33 0 60 -12t46.5 -33.5t30.5 -52.5t11 -69q0 -86 -21.5 -154.5t-62 -116.5t-98 -73.5t-130.5 -25.5q-21 0 -42 2.5t-40.5 6.5t-35.5 9t-26 9zM119 54q12 -4 27.5 -6.5t31.5 -2.5q48 0 87.5 24t67 64t42.5 92t15 108
q0 61 -23.5 87.5t-63.5 26.5q-20 0 -41.5 -7.5t-40.5 -23t-34 -40t-21 -57.5z" />
    <glyph glyph-name="c" unicode="c" horiz-adv-x="436" 
d="M367 16q-25 -13 -61 -23.5t-82 -10.5q-97 0 -143 56t-46 152q0 76 20.5 136.5t57 103.5t87.5 66t112 23q41 0 74.5 -11t54.5 -25l-32 -55q-17 10 -43 18t-58 8q-42 0 -75.5 -19.5t-57.5 -53.5t-36.5 -80.5t-12.5 -99.5q0 -82 28.5 -116.5t81.5 -34.5q29 0 60 8t53 19z
" />
    <glyph glyph-name="d" unicode="d" horiz-adv-x="534" 
d="M331 55q-26 -29 -62.5 -51t-89.5 -22q-70 0 -109.5 47.5t-39.5 135.5q0 81 23 146t64.5 111.5t98 71.5t124.5 25q17 0 29 -1.5t30 -5.5l40 224h84l-112 -641l34 -74l-72 -37zM387 449q-11 3 -27.5 5t-30.5 2q-47 0 -85.5 -22.5t-65.5 -60.5t-42 -87t-15 -103
q0 -62 17 -96t67 -34q19 0 40.5 9t40.5 25.5t33.5 40.5t20.5 54z" />
    <glyph glyph-name="e" unicode="e" horiz-adv-x="471" 
d="M135 277q11 -1 29.5 -1.5t38.5 -0.5q30 0 58 8t49.5 23.5t34.5 38t13 51.5q0 58 -66 58q-30 0 -55 -15t-45.5 -40t-35 -57t-21.5 -65zM126 219q-1 -9 -1 -18v-14q0 -66 27 -101t83 -35q37 0 63.5 10t49.5 21l20 -63q-27 -14 -62 -25.5t-82 -11.5q-51 0 -87 15.5
t-58.5 41.5t-33 61.5t-10.5 74.5q0 66 19 128t54 110t85 77t113 29q39 0 65.5 -9.5t42.5 -24.5t22.5 -35t6.5 -41q0 -46 -18.5 -82t-51 -60.5t-77 -37.5t-96.5 -13q-14 0 -32 0.5t-42 2.5z" />
    <glyph glyph-name="f" unicode="f" horiz-adv-x="320" 
d="M-33 -127q31 10 49.5 44.5t30.5 105.5l71 410h-75l11 68h76l10 52q8 42 20.5 76t33.5 57.5t52 36.5t76 13q38 0 63 -9.5t40 -20.5l-34 -56q-11 8 -28.5 14.5t-42.5 6.5q-26 0 -42 -8.5t-26.5 -25.5t-17 -42.5t-12.5 -58.5l-6 -35h135l-11 -68h-136l-76 -433
q-6 -37 -16.5 -65t-26.5 -50t-39 -38t-56 -28z" />
    <glyph glyph-name="g" unicode="g" horiz-adv-x="531" 
d="M32 -121q26 -14 58 -24.5t70 -10.5q37 0 62 8.5t41.5 25t25.5 41.5t15 59l12 67q-20 -24 -53 -43.5t-84 -19.5q-69 0 -109 47t-40 139q0 86 22.5 151.5t59 110t83.5 67t95 22.5q45 0 73.5 -17.5t43.5 -38.5l33 55l66 -32l-42 -88l-73 -420q-18 -105 -72.5 -154
t-157.5 -49q-49 0 -92 12t-69 29zM380 403q-8 20 -31 37.5t-55 17.5q-30 0 -61 -18.5t-56 -54t-40.5 -87.5t-15.5 -118q0 -61 18 -94t64 -33q18 0 39 7.5t41 23.5t36 41t22 60z" />
    <glyph glyph-name="h" unicode="h" horiz-adv-x="552" 
d="M153 736h85l-51 -285q12 11 28 23t36 22t44 16.5t52 6.5q66 0 96.5 -36.5t30.5 -93.5q0 -14 -2.5 -39t-5.5 -42l-54 -308h-86l50 286l3 18t4 25.5t3.5 26.5t1.5 21q0 33 -16 51t-54 18q-26 0 -51.5 -9.5t-47 -27t-36.5 -43t-21 -57.5l-54 -309h-86z" />
    <glyph glyph-name="i" unicode="i" horiz-adv-x="254" 
d="M104 435h-58l12 66h144l-88 -501h-86zM172 594q-26 0 -38.5 18t-12.5 41q0 33 19.5 54.5t48.5 21.5q26 0 39 -19.5t13 -42.5q0 -33 -20.5 -53t-48.5 -20z" />
    <glyph glyph-name="j" unicode="j" horiz-adv-x="249" 
d="M-159 -137q13 -8 32.5 -13.5t44.5 -5.5q26 0 43 10t28 28t18 42.5t12 53.5l91 523h87l-95 -540q-7 -41 -19.5 -75t-33.5 -59t-52.5 -38.5t-76.5 -13.5q-35 0 -64.5 7.5t-46.5 19.5zM167 594q-26 0 -38.5 18t-12.5 41q0 33 19.5 54.5t48.5 21.5q26 0 39 -19.5t13 -42.5
q0 -33 -20.5 -53t-48.5 -20z" />
    <glyph glyph-name="k" unicode="k" horiz-adv-x="472" 
d="M153 736h85l-75 -423h23q14 0 20 3.5t18 16.5l168 179l75 -21l-189 -205l139 -275l-88 -22l-110 226q-9 18 -18 24t-24 6h-26l-43 -245h-86z" />
    <glyph glyph-name="l" unicode="l" horiz-adv-x="249" 
d="M93 736h145l-129 -736h-86l117 670h-59z" />
    <glyph glyph-name="m" unicode="m" horiz-adv-x="791" 
d="M93 404l-24 79l72 35l32 -73q13 13 29.5 26.5t35.5 24t40 17t43 6.5q53 0 80.5 -22.5t38.5 -53.5q10 11 25.5 24.5t35 25t42 19t46.5 7.5q36 0 60 -10t38.5 -27.5t21 -40.5t6.5 -48q0 -19 -3 -42t-7 -43l-54 -308h-86l52 297q3 17 6.5 40t3.5 36q0 33 -13 53t-48 20
q-24 0 -45.5 -10t-39 -27.5t-29.5 -41t-16 -49.5l-56 -318h-86l52 297q1 6 3 17t3.5 22.5t2.5 22t1 15.5q0 29 -11.5 50.5t-46.5 21.5q-18 0 -38.5 -7.5t-40 -23t-34.5 -40t-21 -57.5l-56 -318h-86z" />
    <glyph glyph-name="n" unicode="n" horiz-adv-x="552" 
d="M93 404l-24 79l72 35l33 -76q11 13 27 26.5t37 24.5t47.5 18.5t58.5 7.5q34 0 58.5 -9.5t40.5 -26.5t23.5 -40t7.5 -50q0 -9 -1 -21.5t-2.5 -26t-3 -26.5t-3.5 -23l-53 -296h-86l51 285q1 9 3.5 22t4 27t3 26t1.5 20q0 66 -70 66q-29 0 -55 -10.5t-47 -29t-35 -45
t-20 -59.5l-53 -302h-86z" />
    <glyph glyph-name="o" unicode="o" horiz-adv-x="534" 
d="M215 47q42 0 73.5 24.5t52 64.5t30.5 91t10 103q0 59 -25 91.5t-73 32.5q-42 0 -73.5 -24.5t-52 -64.5t-30.5 -91t-10 -103q0 -57 23.5 -90.5t74.5 -33.5zM206 -18q-48 0 -82 16.5t-55.5 44.5t-31.5 64t-10 75q0 85 22.5 148.5t59 105.5t84.5 62.5t99 20.5q48 0 82 -16.5
t55.5 -44.5t31.5 -64t10 -75q0 -85 -22 -148.5t-58.5 -105.5t-84.5 -62.5t-100 -20.5z" />
    <glyph glyph-name="p" unicode="p" horiz-adv-x="541" 
d="M119 58q13 -4 31.5 -7.5t38.5 -3.5q38 0 74 17t64 52t45 89t17 128q0 34 -5.5 56t-16.5 35t-27 18t-37 5q-22 0 -44 -8.5t-41.5 -25t-33.5 -42t-20 -58.5zM93 404l-24 79l72 35l33 -73q24 29 66 51.5t94 22.5q66 0 106.5 -46t40.5 -132q0 -87 -23 -153.5t-62.5 -111.5
t-93 -68.5t-113.5 -23.5q-43 0 -81 11l-38 -213h-86z" />
    <glyph glyph-name="q" unicode="q" horiz-adv-x="534" 
d="M315 45q-25 -25 -55 -44t-77 -19q-76 0 -114.5 49t-38.5 133t24 150t66 111.5t97.5 69.5t118.5 24q51 0 86.5 -14.5t55.5 -25.5l-122 -697h-87zM386 445q-9 4 -24 7.5t-33 3.5q-42 0 -80 -19.5t-66.5 -55.5t-45 -88t-16.5 -117t20 -94t64 -29q20 0 41.5 8.5t40.5 25
t33.5 42t20.5 58.5z" />
    <glyph glyph-name="r" unicode="r" horiz-adv-x="357" 
d="M106 435h-58l12 66h121l4 -65q23 30 59 50.5t80 20.5q21 0 34 -2.5t24 -7.5l-36 -83q-9 5 -21.5 7.5t-29.5 2.5q-18 0 -38 -6.5t-37 -19.5t-30 -32.5t-17 -45.5l-57 -320h-86z" />
    <glyph glyph-name="s" unicode="s" horiz-adv-x="419" 
d="M16 84q29 -16 63 -26t73 -10q52 0 82 24t30 66q0 16 -4 28.5t-14.5 23t-28.5 19.5t-45 19q-28 10 -50.5 21.5t-38.5 26.5t-25 36t-9 50q0 75 52.5 116t139.5 41q43 0 83.5 -11.5t63.5 -26.5l-32 -59q-20 11 -50 20.5t-61 9.5q-54 0 -83 -20.5t-29 -53.5q0 -15 4 -26.5
t14.5 -21.5t28.5 -19.5t46 -21.5q25 -11 47.5 -22t38.5 -26.5t25.5 -36.5t9.5 -50q0 -42 -14.5 -74t-40.5 -53.5t-61 -33t-77 -11.5q-57 0 -100 14t-65 28z" />
    <glyph glyph-name="t" unicode="t" horiz-adv-x="350" 
d="M157 650h82l-27 -149h128l-12 -68h-126l-52 -283q-2 -8 -3 -21.5t-1 -21.5q0 -32 13.5 -44.5t35.5 -12.5q23 0 40 4.5t33 11.5l17 -61q-17 -9 -45.5 -16t-66.5 -7q-54 0 -84.5 24.5t-31.5 76.5q0 11 1.5 25t3.5 28l53 297h-85l12 68h88z" />
    <glyph glyph-name="u" unicode="u" horiz-adv-x="544" 
d="M111 501h86l-51 -285q-2 -9 -4 -22t-3.5 -27t-3 -26.5t-1.5 -19.5q0 -68 70 -68q57 0 94.5 34.5t51.5 111.5l53 302h86l-71 -404l33 -76l-71 -37l-42 72q-13 -14 -28 -27t-33.5 -23.5t-41.5 -17t-52 -6.5q-36 0 -62 9.5t-42 26.5t-23.5 40t-7.5 50q0 9 1 21.5t2.5 26
t3 26.5t3.5 23z" />
    <glyph glyph-name="v" unicode="v" horiz-adv-x="505" 
d="M50 496l88 14l45 -430q2 -18 5.5 -25.5t12.5 -7.5t15 7.5t14 25.5l198 427l77 -16l-199 -423q-23 -50 -48.5 -68t-64.5 -18q-27 0 -44.5 6t-28 18t-16 31t-8.5 46z" />
    <glyph glyph-name="w" unicode="w" horiz-adv-x="706" 
d="M50 499l87 11l4 -436q0 -14 2 -20.5t10 -6.5q12 0 22 26l168 428h72l16 -428q0 -26 12 -26q8 0 12 5.5t10 20.5l165 437l76 -11l-164 -422q-19 -50 -43.5 -72.5t-69.5 -22.5q-27 0 -42.5 5.5t-24 18t-11 31.5t-2.5 46l-4 250l-99 -261q-17 -45 -43 -67.5t-64 -22.5
q-27 0 -43 5.5t-24.5 17.5t-11.5 31.5t-3 46.5z" />
    <glyph glyph-name="x" unicode="x" horiz-adv-x="432" 
d="M138 253l-91 233l80 24l74 -196q4 -10 6 -13t5 -3q5 0 15 14l136 200l69 -23l-161 -232l99 -245l-80 -23l-78 199q-5 11 -7.5 14.5t-8.5 3.5t-10 -4t-12 -15l-144 -200l-70 24z" />
    <glyph glyph-name="y" unicode="y" horiz-adv-x="489" 
d="M-17 -142q16 -7 33 -11.5t40 -4.5q25 0 42.5 6.5t31 18.5t24 30t21.5 42l30 69h-6q-59 0 -85 37t-32 108l-40 344l90 15l37 -357q2 -26 6.5 -43t11.5 -26.5t16.5 -13t21.5 -3.5h7l177 444l80 -16l-238 -575q-30 -74 -75 -110t-116 -36q-35 0 -57.5 4.5t-42.5 13.5z" />
    <glyph glyph-name="z" unicode="z" horiz-adv-x="416" 
d="M354 68l-11 -68h-293q-38 0 -50 17t-12 35q0 23 11.5 44.5t30.5 42.5l267 295h-238l11 67h341l-11 -65l-311 -343q-9 -9 -9 -17t15 -8h259z" />
    <glyph glyph-name="braceleft" unicode="{" horiz-adv-x="381" 
d="M108 219q1 5 1 15q0 17 -7.5 26.5t-23.5 9.5h-48l13 72h49q20 0 31 14t16 37l31 163q9 50 23 86t37 59t56.5 34t81.5 11q16 0 35 -3.5t28 -7.5l-24 -62q-13 5 -24 7t-25 2q-44 0 -66.5 -25.5t-34.5 -90.5l-27 -146q-8 -44 -21 -72t-44 -42q17 -9 23 -23.5t6 -35.5
q0 -24 -6 -55l-29 -162q-2 -10 -3 -22t-1 -22q0 -35 14.5 -52.5t48.5 -17.5q14 0 28 1.5t28 6.5l7 -63q-5 -2 -14.5 -4t-20.5 -3.5t-22 -2.5t-19 -1q-70 0 -103 34t-33 98q0 26 6 58z" />
    <glyph glyph-name="bar" unicode="|" horiz-adv-x="240" 
d="M159 791h81l-184 -1018h-81z" />
    <glyph glyph-name="braceright" unicode="}" horiz-adv-x="381" 
d="M-46 -77q13 -5 24 -7t25 -2q44 0 66.5 25.5t34.5 90.5l27 147q8 44 21 72t44 42q-17 9 -23 23.5t-6 35.5q0 23 6 55l29 161q2 12 3 23t1 21q0 35 -14.5 52.5t-48.5 17.5q-14 0 -28 -1.5t-28 -6.5l-7 63q5 2 14.5 4t20.5 3.5t22 2.5t19 1q70 0 103 -34t33 -98
q0 -27 -6 -58l-33 -178q-1 -5 -1 -15q0 -17 7.5 -26.5t23.5 -9.5h48l-13 -72h-49q-20 0 -31 -14t-16 -37l-32 -173q-9 -50 -24.5 -84.5t-38.5 -56t-56 -31t-78 -9.5q-16 0 -35 3.5t-28 7.5z" />
    <glyph glyph-name="asciitilde" unicode="~" horiz-adv-x="577" 
d="M81 348q11 13 27.5 28t36.5 27.5t42.5 21t45.5 8.5q22 0 39 -8t32.5 -17t32.5 -17t41 -8q26 0 51.5 15t48.5 35l37 -47q-11 -13 -27.5 -28t-36.5 -27.5t-42.5 -21t-45.5 -8.5t-39.5 8t-32 17t-32.5 17t-41 8q-26 0 -51.5 -15t-48.5 -35z" />
    <glyph glyph-name="uni00A0" unicode="&#xa0;" horiz-adv-x="0" 
 />
    <glyph glyph-name="exclamdown" unicode="&#xa1;" horiz-adv-x="261" 
d="M100 297h73l-80 -516h-97zM157 382q-26 0 -40.5 17t-14.5 40q0 36 18.5 58t47.5 22q27 0 41.5 -18t14.5 -42q0 -36 -19.5 -56.5t-47.5 -20.5z" />
    <glyph glyph-name="cent" unicode="&#xa2;" horiz-adv-x="594" 
d="M255 55q-72 14 -106.5 67.5t-34.5 135.5q0 69 17 126.5t47.5 99.5t74.5 67.5t98 32.5l31 116h74l-29 -116q27 -5 50 -13.5t39 -19.5l-32 -55q-17 10 -43 18t-58 8q-42 0 -75 -19.5t-56 -53.5t-35 -80.5t-12 -99.5q0 -82 30 -116.5t83 -34.5q29 0 59.5 9.5t52.5 20.5
l19 -64q-22 -11 -52.5 -21t-68.5 -13l-26 -109h-75z" />
    <glyph glyph-name="sterling" unicode="&#xa3;" horiz-adv-x="594" 
d="M148 320h-92l11 67h102l48 145q16 47 35 82.5t46 59t63 35.5t85 12q50 0 87.5 -12.5t59.5 -27.5l-36 -59q-20 13 -50.5 21t-60.5 8q-24 0 -44.5 -4t-38 -15.5t-32 -32t-25.5 -54.5l-53 -158h202l-11 -67h-213l-60 -185q-2 -8 -5 -19t-3 -19q0 -14 6.5 -18.5t19.5 -4.5
h301l-7 -74h-338q-35 0 -55.5 15t-20.5 40q0 19 3.5 36.5t10.5 36.5z" />
    <glyph glyph-name="currency" unicode="&#xa4;" horiz-adv-x="594" 
d="M141 266q-17 23 -24.5 47t-7.5 55t7.5 55t24.5 47l-79 78l55 51l76 -77q43 31 103 31t103 -31l76 77l55 -51l-79 -78q17 -23 24.5 -47t7.5 -55t-7.5 -55t-24.5 -47l79 -78l-55 -51l-76 77q-43 -31 -103 -31t-103 31l-76 -77l-55 51zM180 368q0 -23 9.5 -44t25.5 -37
t37 -25.5t44 -9.5t44 9.5t37 25.5t25.5 37t9.5 44t-9.5 44t-25.5 37t-37 25.5t-44 9.5t-44 -9.5t-37 -25.5t-25.5 -37t-9.5 -44z" />
    <glyph glyph-name="yen" unicode="&#xa5;" horiz-adv-x="594" 
d="M210 157h-159l11 66h160l15 79h-160l11 66h122q-5 8 -9 19t-7 22l-76 303l87 18l77 -323q3 -14 8 -22.5t9 -8.5t9 5t14 20l197 327l77 -19l-186 -301q-7 -11 -14.5 -21.5t-15.5 -18.5h127l-11 -66h-169l-14 -79h168l-11 -66h-169l-27 -157h-91z" />
    <glyph glyph-name="brokenbar" unicode="&#xa6;" horiz-adv-x="240" 
d="M159 791h81l-66 -363h-81zM51 196h81l-76 -423h-81z" />
    <glyph glyph-name="section" unicode="&#xa7;" horiz-adv-x="520" 
d="M55 -30q17 -8 49 -18.5t68 -10.5q22 0 45 3t42 13t31 28.5t12 49.5q0 21 -6.5 36t-19.5 25.5t-33.5 19t-47.5 16.5q-29 9 -57 18.5t-49.5 25.5t-34.5 40t-13 61q0 56 29 93.5t74 66.5q-17 17 -28 41t-11 58q0 51 19 86t50 57t69.5 32t76.5 10q49 0 90 -11t65 -25l-35 -66
q-17 8 -49 18.5t-68 10.5q-22 0 -45 -3t-42 -13t-31 -28.5t-12 -49.5q0 -21 6.5 -36t19.5 -25.5t33.5 -19t47.5 -16.5q31 -9 59 -19.5t49 -26.5t33.5 -41t12.5 -63q0 -48 -28.5 -87t-75.5 -68q18 -17 29 -41t11 -58q0 -53 -18.5 -88.5t-48 -57t-67 -30.5t-76.5 -9
q-53 0 -94.5 11t-65.5 25zM297 186q35 23 56 46.5t21 49.5q0 21 -5 35t-18 25t-35 20t-55 20q-17 5 -35 10.5t-31 11.5q-74 -43 -74 -104q0 -20 6 -33.5t19 -23.5t34.5 -18t53.5 -18q16 -5 35 -11t28 -10z" />
    <glyph glyph-name="dieresis" unicode="&#xa8;" horiz-adv-x="500" 
d="M146 604q-25 0 -38.5 16.5t-13.5 38.5q0 35 17.5 55.5t45.5 20.5q26 0 39.5 -17t13.5 -40q0 -34 -19 -54t-45 -20zM342 604q-25 0 -38.5 16.5t-13.5 38.5q0 35 17.5 55.5t45.5 20.5q26 0 39.5 -17t13.5 -40q0 -34 -19 -54t-45 -20z" />
    <glyph glyph-name="copyright" unicode="&#xa9;" horiz-adv-x="863" 
d="M433 58q70 0 125 24t93.5 65t58.5 96t20 117q0 63 -20 117.5t-58.5 95.5t-93.5 64.5t-125 23.5q-69 0 -124.5 -23.5t-94 -64.5t-59 -95.5t-20.5 -117.5q0 -62 20.5 -117t59 -96t94 -65t124.5 -24zM70 360q0 75 26 140.5t73.5 114t114.5 77t149 28.5t149 -28.5t113.5 -77
t72 -114t25.5 -140.5t-26 -140.5t-73.5 -114t-114.5 -77t-149 -28.5q-84 0 -151 28.5t-113.5 77t-71 114t-24.5 140.5zM566 190q-18 -11 -52.5 -22.5t-75.5 -11.5q-55 0 -92 16.5t-59.5 44.5t-32 65t-9.5 78q0 46 11.5 85t36 67.5t62 45t89.5 16.5q34 0 65 -9.5t54 -21.5
l-23 -52q-23 11 -47.5 17.5t-51.5 6.5q-60 0 -87.5 -37t-27.5 -118q0 -70 25.5 -107t92.5 -37q27 0 52.5 7t49.5 19z" />
    <glyph glyph-name="ordfeminine" unicode="&#xaa;" horiz-adv-x="415" 
d="M274 328q-20 -20 -47.5 -36t-65.5 -16q-51 0 -81 34t-30 94q0 57 17.5 103.5t49 79.5t74 51t92.5 18q17 0 59.5 -8.5t47.5 -10.5l-52 -281l24 -51l-56 -27zM182 331q12 0 26.5 5t28 15.5t23.5 27.5t15 41l34 182l-36 7q-27 0 -53.5 -13t-59 -73t-32.5 -105q0 -47 15 -67
t39 -20z" />
    <glyph glyph-name="guillemotleft" unicode="&#xab;" horiz-adv-x="465" 
d="M71 189q-21 21 -33.5 39.5t-12.5 44.5q0 35 18.5 56.5t48.5 44.5l113 85l48 -37l-120 -99q-17 -14 -23 -24.5t-6 -21.5q0 -8 3 -16t12 -19l87 -106l-58 -34zM260 189q-21 21 -33.5 39.5t-12.5 44.5q0 35 18.5 56.5t48.5 44.5l113 85l48 -37l-120 -99q-17 -14 -23 -24.5
t-6 -21.5q0 -8 3 -16t12 -19l87 -106l-58 -34z" />
    <glyph glyph-name="logicalnot" unicode="&#xac;" horiz-adv-x="710" 
d="M122 380h465v-207h-73v127h-392v80z" />
    <glyph glyph-name="uni00AD" unicode="&#xad;" horiz-adv-x="423" 
d="M83 357h282l-15 -85h-282z" />
    <glyph glyph-name="registered" unicode="&#xae;" horiz-adv-x="614" 
d="M238 609h96q36 0 62.5 -16.5t26.5 -56.5q0 -26 -14.5 -43.5t-37.5 -27.5q5 -3 8 -7.5t8 -12.5l46 -80l-52 -12l-46 84q-6 11 -10.5 14t-12.5 3h-21v-99h-53v254zM326 487q23 0 32 12.5t9 33.5q0 41 -41 41h-35v-87h35zM132 473q0 -40 13 -75t38 -61.5t61 -42t83 -15.5
q50 0 87 16t61 43t36 62.5t12 75.5t-12 76t-36 63t-61 43t-87 16t-86.5 -16.5t-60.5 -44t-36 -64t-12 -76.5zM76 473q0 51 17.5 96.5t50 79.5t79 54t104.5 20q60 0 107 -19.5t79 -53t48.5 -78.5t16.5 -96t-18.5 -96t-52 -78t-79.5 -52.5t-101 -19.5q-56 0 -102 19t-79 51.5
t-51.5 77t-18.5 95.5z" />
    <glyph glyph-name="macron" unicode="&#xaf;" horiz-adv-x="500" 
d="M112 688h289l-13 -73h-289z" />
    <glyph glyph-name="degree" unicode="&#xb0;" horiz-adv-x="348" 
d="M199 527q28 0 45.5 19.5t17.5 46.5t-18 46.5t-45 19.5t-45 -19.5t-18 -46.5t17.5 -46.5t45.5 -19.5zM75 593q0 26 9 48.5t25.5 39.5t39.5 26.5t50 9.5t50 -9.5t39.5 -26.5t25.5 -39.5t9 -48.5t-9 -48.5t-25.5 -39.5t-39.5 -26.5t-50 -9.5q-58 0 -91 36t-33 88z" />
    <glyph glyph-name="plusminus" unicode="&#xb1;" horiz-adv-x="594" 
d="M73 400h183v183h81v-183h183v-80h-183v-183h-81v183h-183v80zM73 80h447v-80h-447v80z" />
    <glyph glyph-name="twosuperior" unicode="&#xb2;" 
d="M247 503q36 29 56 53.5t20 56.5q0 20 -13.5 33t-40.5 13q-32 0 -58 -13t-49 -29l-29 47q29 21 65.5 39t79.5 18q55 0 86 -28.5t31 -70.5q0 -29 -10.5 -53.5t-27 -45.5t-37 -38.5t-39.5 -32.5l-124 -94q-4 -4 -4 -7q0 -4 7 -4h191l-11 -63h-210q-26 0 -42 12.5t-16 34.5
q0 17 9 32t31 32z" />
    <glyph glyph-name="threesuperior" unicode="&#xb3;" 
d="M91 372q18 -14 43 -24.5t57 -10.5q50 0 72.5 24.5t22.5 57.5q0 62 -83 62h-29l8 46l144 123h-189l11 62h202q25 0 36 -11t11 -28q0 -20 -9.5 -35.5t-33.5 -34.5l-91 -73q48 -3 73 -30.5t25 -69.5q0 -31 -11 -59t-32 -49.5t-51.5 -34t-69.5 -12.5q-51 0 -86 13t-56 32z
" />
    <glyph glyph-name="acute" unicode="&#xb4;" horiz-adv-x="500" 
d="M287 797l66 -56l-165 -159l-42 34z" />
    <glyph glyph-name="mu" unicode="&#xb5;" horiz-adv-x="548" 
d="M109 501h86l-52 -297q-2 -15 -6 -39t-4 -44q0 -29 13.5 -48.5t53.5 -19.5q24 0 47.5 6.5t43 21.5t34 40t20.5 62l56 318h86l-71 -405l33 -75l-71 -37l-42 72q-29 -32 -63.5 -53t-81.5 -21q-10 0 -21.5 2t-23 6.5t-21 11.5t-15.5 18l-42 -238h-85z" />
    <glyph glyph-name="paragraph" unicode="&#xb6;" horiz-adv-x="561" 
d="M54 -82q16 -10 46 -20.5t65 -10.5q55 0 86.5 36t48.5 126l108 600h-68l-68 -377q-95 0 -144.5 41.5t-49.5 124.5q0 87 25 142t63.5 86.5t83.5 43t84 11.5h251l-13 -72h-74l-109 -604q-21 -116 -74 -173.5t-152 -57.5q-48 0 -85 11.5t-58 25.5z" />
    <glyph glyph-name="periodcentered" unicode="&#xb7;" horiz-adv-x="272" 
d="M140 302q-26 0 -40.5 17t-14.5 40q0 36 18.5 58t47.5 22q27 0 41.5 -18t14.5 -42q0 -36 -19.5 -56.5t-47.5 -20.5z" />
    <glyph glyph-name="cedilla" unicode="&#xb8;" horiz-adv-x="500" 
d="M160 -155q14 -10 33 -18t44 -8q26 0 39.5 14t13.5 38q0 23 -20.5 31.5t-52.5 8.5l36 99h58l-22 -60q35 -4 57 -22.5t22 -53.5q0 -51 -34 -82.5t-96 -31.5q-58 0 -106 32z" />
    <glyph glyph-name="onesuperior" unicode="&#xb9;" 
d="M104 345h91l50 281q0 1 0.5 3t0.5 4q0 4 -3 4q-4 0 -9 -4l-72 -53l-33 46l105 76q13 9 25.5 14t30.5 5q17 0 27 -8.5t10 -25.5q0 -10 -3 -25l-56 -317h89l-12 -61h-253z" />
    <glyph glyph-name="ordmasculine" unicode="&#xba;" horiz-adv-x="384" 
d="M190 328q27 0 47.5 16.5t33.5 43.5t19.5 61.5t6.5 69.5q0 41 -15.5 63t-44.5 22q-28 0 -49 -16.5t-34.5 -43t-20.5 -60t-7 -67.5q0 -43 16 -66t48 -23zM186 276q-36 0 -61.5 12t-42 31.5t-24.5 45t-8 53.5q0 60 17 104.5t44 74.5t61 44.5t69 14.5q33 0 57.5 -12
t41.5 -31.5t25.5 -45t8.5 -52.5q0 -60 -15.5 -105t-41.5 -75t-60 -44.5t-71 -14.5z" />
    <glyph glyph-name="guillemotright" unicode="&#xbb;" horiz-adv-x="469" 
d="M122 241q17 14 23 24t6 22q0 17 -15 35l-87 102l58 34l77 -83q20 -20 33 -39t13 -45q0 -32 -19 -55t-48 -46l-113 -89l-48 37zM312 241q17 14 23 24t6 22q0 17 -15 35l-87 102l58 34l77 -83q20 -20 33 -39t13 -45q0 -32 -19 -55t-48 -46l-113 -89l-48 37z" />
    <glyph glyph-name="onequarter" unicode="&#xbc;" horiz-adv-x="1000" 
d="M88 345h91l50 281q0 1 0.5 3t0.5 4q0 4 -3 4q-4 0 -9 -4l-72 -53l-33 46l105 76q13 9 25.5 14t30.5 5q17 0 27 -8.5t10 -25.5q0 -10 -3 -25l-56 -317h89l-12 -61h-253zM726 712h89l-496 -712h-89zM790 110h-117q-27 0 -39.5 11t-12.5 30q0 20 8.5 34.5t28.5 35.5l197 209
h62l-48 -263h59l-9 -57h-60l-19 -108h-69zM800 167l31 162l-141 -150q-6 -6 -6 -9t5 -3h111z" />
    <glyph glyph-name="onehalf" unicode="&#xbd;" horiz-adv-x="1000" 
d="M84 345h91l50 281q0 1 0.5 3t0.5 4q0 4 -3 4q-4 0 -9 -4l-72 -53l-33 46l105 76q13 9 25.5 14t30.5 5q17 0 27 -8.5t10 -25.5q0 -10 -3 -25l-56 -317h89l-12 -61h-253zM709 712h89l-496 -712h-89zM784 221q36 29 56 53.5t20 56.5q0 20 -13.5 33t-40.5 13q-32 0 -58 -13
t-49 -29l-29 47q29 21 65.5 39t79.5 18q55 0 86 -28.5t31 -70.5q0 -29 -10.5 -53.5t-27 -45.5t-37 -38.5t-39.5 -32.5l-124 -94q-4 -4 -4 -7q0 -4 7 -4h191l-11 -63h-210q-26 0 -42 12.5t-16 34.5q0 17 9 32t31 32z" />
    <glyph glyph-name="threequarters" unicode="&#xbe;" horiz-adv-x="1000" 
d="M89 372q18 -14 43 -24.5t57 -10.5q50 0 72.5 24.5t22.5 57.5q0 62 -83 62h-29l8 46l144 123h-189l11 62h202q25 0 36 -11t11 -28q0 -20 -9.5 -35.5t-33.5 -34.5l-91 -73q48 -3 73 -30.5t25 -69.5q0 -31 -11 -59t-32 -49.5t-51.5 -34t-69.5 -12.5q-51 0 -86 13t-56 32z
M733 712h89l-496 -712h-89zM781 110h-117q-27 0 -39.5 11t-12.5 30q0 20 8.5 34.5t28.5 35.5l197 209h62l-48 -263h59l-9 -57h-60l-19 -108h-69zM791 167l31 162l-141 -150q-6 -6 -6 -9t5 -3h111z" />
    <glyph glyph-name="questiondown" unicode="&#xbf;" horiz-adv-x="440" 
d="M150 150q36 29 59 53t30 62l6 32h71l-10 -52q-8 -47 -33.5 -78t-56.5 -56l-55 -46q-42 -35 -60 -66t-18 -70q0 -40 24.5 -63.5t78.5 -23.5q48 0 88.5 17t78.5 44l32 -55q-42 -34 -98.5 -56.5t-119.5 -22.5q-45 0 -78 11t-54.5 30.5t-32 46t-10.5 57.5q0 36 9.5 65
t25.5 54t37 45.5t44 38.5zM301 382q-26 0 -40.5 17t-14.5 40q0 36 18.5 58t47.5 22q27 0 41.5 -18t14.5 -42q0 -36 -19.5 -56.5t-47.5 -20.5z" />
    <glyph glyph-name="Agrave" unicode="&#xc0;" horiz-adv-x="603" 
d="M258 651q21 45 46.5 64.5t68.5 19.5q24 0 40.5 -4.5t27.5 -16t17.5 -32t9.5 -53.5l65 -628l-95 -15l-26 249h-256l-114 -249l-82 17zM404 310l-32 311q-2 22 -4.5 28.5t-10.5 6.5t-13 -7.5t-13 -25.5l-143 -313h216zM331 964l125 -162l-40 -35l-149 138z" />
    <glyph glyph-name="Aacute" unicode="&#xc1;" horiz-adv-x="603" 
d="M258 651q21 45 46.5 64.5t68.5 19.5q24 0 40.5 -4.5t27.5 -16t17.5 -32t9.5 -53.5l65 -628l-95 -15l-26 249h-256l-114 -249l-82 17zM404 310l-32 311q-2 22 -4.5 28.5t-10.5 6.5t-13 -7.5t-13 -25.5l-143 -313h216zM463 961l56 -66l-188 -128l-36 40z" />
    <glyph glyph-name="Acircumflex" unicode="&#xc2;" horiz-adv-x="603" 
d="M258 651q21 45 46.5 64.5t68.5 19.5q24 0 40.5 -4.5t27.5 -16t17.5 -32t9.5 -53.5l65 -628l-95 -15l-26 249h-256l-114 -249l-82 17zM404 310l-32 311q-2 22 -4.5 28.5t-10.5 6.5t-13 -7.5t-13 -25.5l-143 -313h216zM373 934h64l74 -143l-50 -21l-65 92l-104 -91l-38 27z
" />
    <glyph glyph-name="Atilde" unicode="&#xc3;" horiz-adv-x="603" 
d="M258 651q21 45 46.5 64.5t68.5 19.5q24 0 40.5 -4.5t27.5 -16t17.5 -32t9.5 -53.5l65 -628l-95 -15l-26 249h-256l-114 -249l-82 17zM404 310l-32 311q-2 22 -4.5 28.5t-10.5 6.5t-13 -7.5t-13 -25.5l-143 -313h216zM198 785q10 60 34 91t67 31q17 0 34.5 -6.5
t33.5 -13.5l39 -17q16 -7 29 -12t24 -5q18 0 29.5 11.5t16.5 44.5l51 -7q-10 -60 -34 -91t-67 -31q-17 0 -34.5 6t-33.5 13l-39 17q-16 7 -29 12.5t-24 5.5q-18 0 -29.5 -11.5t-16.5 -44.5z" />
    <glyph glyph-name="Adieresis" unicode="&#xc4;" horiz-adv-x="603" 
d="M258 651q21 45 46.5 64.5t68.5 19.5q24 0 40.5 -4.5t27.5 -16t17.5 -32t9.5 -53.5l65 -628l-95 -15l-26 249h-256l-114 -249l-82 17zM404 310l-32 311q-2 22 -4.5 28.5t-10.5 6.5t-13 -7.5t-13 -25.5l-143 -313h216zM275 776q-23 0 -35.5 14.5t-12.5 36.5q0 35 18.5 57.5
t49.5 22.5q23 0 35.5 -15.5t12.5 -38.5q0 -35 -19.5 -56t-48.5 -21zM471 776q-23 0 -35.5 14.5t-12.5 36.5q0 35 18.5 57.5t49.5 22.5q23 0 35.5 -15.5t12.5 -38.5q0 -35 -19.5 -56t-48.5 -21z" />
    <glyph glyph-name="Aring" unicode="&#xc5;" horiz-adv-x="603" 
d="M258 651q21 45 46.5 64.5t68.5 19.5q24 0 40.5 -4.5t27.5 -16t17.5 -32t9.5 -53.5l65 -628l-95 -15l-26 249h-256l-114 -249l-82 17zM404 310l-32 311q-2 22 -4.5 28.5t-10.5 6.5t-13 -7.5t-13 -25.5l-143 -313h216zM380 822q29 0 48 19.5t19 48.5t-19 48.5t-48 19.5
t-48 -19.5t-19 -48.5t19 -48.5t48 -19.5zM251 890q0 27 10 50.5t27.5 41t41 27.5t50.5 10t50.5 -10t41 -27.5t27.5 -41t10 -50.5t-10 -50.5t-27.5 -41t-41 -27.5t-50.5 -10t-50.5 10t-41 27.5t-27.5 41t-10 50.5z" />
    <glyph glyph-name="AE" unicode="&#xc6;" horiz-adv-x="901" 
d="M334 628q30 50 75 71.5t111 21.5h406l-14 -74h-310l-44 -247h231l-14 -76h-231l-44 -248h320l-13 -76h-411l57 324h-209l-202 -338l-82 17zM467 400l43 242q-43 0 -67 -13t-42 -43l-112 -186h178z" />
    <glyph glyph-name="Ccedilla" unicode="&#xc7;" horiz-adv-x="535" 
d="M479 40q-44 -26 -85.5 -40t-90.5 -17l-12 -33q35 -4 57 -22.5t22 -53.5q0 -51 -34 -82.5t-96 -31.5q-58 0 -106 32l28 53q14 -10 33 -18t44 -8q26 0 39.5 14t13.5 38q0 23 -20.5 31.5t-52.5 8.5l26 73q-58 5 -97 29t-62.5 62.5t-33.5 88.5t-10 107q0 109 30 195.5
t80 146.5t114.5 91.5t134.5 31.5q48 0 88 -13t71 -36l-37 -62q-27 19 -59.5 28t-62.5 9q-59 0 -106.5 -30t-81.5 -83t-52 -125t-18 -155q0 -44 7.5 -82t25 -67t46.5 -45.5t73 -16.5q40 0 76.5 12t82.5 38z" />
    <glyph glyph-name="Egrave" unicode="&#xc8;" horiz-adv-x="514" 
d="M147 721h392l-14 -74h-300l-41 -233h231l-14 -76h-231l-47 -262h320l-13 -76h-411zM326 964l125 -162l-40 -35l-149 138z" />
    <glyph glyph-name="Eacute" unicode="&#xc9;" horiz-adv-x="514" 
d="M147 721h392l-14 -74h-300l-41 -233h231l-14 -76h-231l-47 -262h320l-13 -76h-411zM458 961l56 -66l-188 -128l-36 40z" />
    <glyph glyph-name="Ecircumflex" unicode="&#xca;" horiz-adv-x="514" 
d="M147 721h392l-14 -74h-300l-41 -233h231l-14 -76h-231l-47 -262h320l-13 -76h-411zM355 934h64l74 -143l-50 -21l-65 92l-104 -91l-38 27z" />
    <glyph glyph-name="Edieresis" unicode="&#xcb;" horiz-adv-x="514" 
d="M147 721h392l-14 -74h-300l-41 -233h231l-14 -76h-231l-47 -262h320l-13 -76h-411zM255 776q-23 0 -35.5 14.5t-12.5 36.5q0 35 18.5 57.5t49.5 22.5q23 0 35.5 -15.5t12.5 -38.5q0 -35 -19.5 -56t-48.5 -21zM451 776q-23 0 -35.5 14.5t-12.5 36.5q0 35 18.5 57.5
t49.5 22.5q23 0 35.5 -15.5t12.5 -38.5q0 -35 -19.5 -56t-48.5 -21z" />
    <glyph glyph-name="Igrave" unicode="&#xcc;" horiz-adv-x="256" 
d="M147 721h91l-128 -721h-91zM149 964l125 -162l-40 -35l-149 138z" />
    <glyph glyph-name="Iacute" unicode="&#xcd;" horiz-adv-x="256" 
d="M147 721h91l-128 -721h-91zM283 961l56 -66l-188 -128l-36 40z" />
    <glyph glyph-name="Icircumflex" unicode="&#xce;" horiz-adv-x="256" 
d="M147 721h91l-128 -721h-91zM187 934h64l74 -143l-50 -21l-65 92l-104 -91l-38 27z" />
    <glyph glyph-name="Idieresis" unicode="&#xcf;" horiz-adv-x="256" 
d="M147 721h91l-128 -721h-91zM102 776q-23 0 -35.5 14.5t-12.5 36.5q0 35 18.5 57.5t49.5 22.5q23 0 35.5 -15.5t12.5 -38.5q0 -35 -19.5 -56t-48.5 -21zM298 776q-23 0 -35.5 14.5t-12.5 36.5q0 35 18.5 57.5t49.5 22.5q23 0 35.5 -15.5t12.5 -38.5q0 -35 -19.5 -56
t-48.5 -21z" />
    <glyph glyph-name="Eth" unicode="&#xd0;" horiz-adv-x="665" 
d="M160 721h177q76 0 130 -18.5t88 -55t49.5 -90.5t15.5 -124q0 -86 -25 -164.5t-72.5 -138t-117.5 -95t-160 -35.5h-213l58 329h-65l12 71h66zM245 75q61 0 111.5 24.5t86.5 70t56 111t20 147.5q0 62 -12 104t-36 68t-60.5 37t-85.5 11h-87l-45 -248h189l-12 -71h-189
l-45 -254h109z" />
    <glyph glyph-name="Ntilde" unicode="&#xd1;" horiz-adv-x="651" 
d="M146 721h93l181 -612q4 -14 5.5 -18.5t6.5 -4.5t6 3.5t3 11.5l111 620h81l-110 -621q-11 -60 -36.5 -83.5t-69.5 -23.5q-27 0 -47 14t-33 58l-141 484l-96 -549h-81zM231 785q10 60 34 91t67 31q17 0 34.5 -6.5t33.5 -13.5l39 -17q16 -7 29 -12t24 -5q18 0 29.5 11.5
t16.5 44.5l51 -7q-10 -60 -34 -91t-67 -31q-17 0 -34.5 6t-33.5 13l-39 17q-16 7 -29 12.5t-24 5.5q-18 0 -29.5 -11.5t-16.5 -44.5z" />
    <glyph glyph-name="Ograve" unicode="&#xd2;" horiz-adv-x="668" 
d="M270 -18q-62 0 -106 20.5t-72 57t-41 86.5t-13 110q0 99 25.5 186t72 152.5t111 103.5t142.5 38q60 0 105 -20.5t74 -57t43.5 -86.5t14.5 -110q0 -102 -25 -189.5t-71.5 -152t-112 -101.5t-147.5 -37zM279 57q60 0 106 34t77.5 91t47.5 131.5t16 155.5q0 89 -35 140.5
t-108 51.5q-60 0 -106 -34t-77 -91t-46.5 -131.5t-15.5 -155.5q0 -89 35 -140.5t106 -51.5zM376 964l125 -162l-40 -35l-149 138z" />
    <glyph glyph-name="Oacute" unicode="&#xd3;" horiz-adv-x="668" 
d="M270 -18q-62 0 -106 20.5t-72 57t-41 86.5t-13 110q0 99 25.5 186t72 152.5t111 103.5t142.5 38q60 0 105 -20.5t74 -57t43.5 -86.5t14.5 -110q0 -102 -25 -189.5t-71.5 -152t-112 -101.5t-147.5 -37zM279 57q60 0 106 34t77.5 91t47.5 131.5t16 155.5q0 89 -35 140.5
t-108 51.5q-60 0 -106 -34t-77 -91t-46.5 -131.5t-15.5 -155.5q0 -89 35 -140.5t106 -51.5zM491 961l56 -66l-188 -128l-36 40z" />
    <glyph glyph-name="Ocircumflex" unicode="&#xd4;" horiz-adv-x="668" 
d="M270 -18q-62 0 -106 20.5t-72 57t-41 86.5t-13 110q0 99 25.5 186t72 152.5t111 103.5t142.5 38q60 0 105 -20.5t74 -57t43.5 -86.5t14.5 -110q0 -102 -25 -189.5t-71.5 -152t-112 -101.5t-147.5 -37zM279 57q60 0 106 34t77.5 91t47.5 131.5t16 155.5q0 89 -35 140.5
t-108 51.5q-60 0 -106 -34t-77 -91t-46.5 -131.5t-15.5 -155.5q0 -89 35 -140.5t106 -51.5zM390 934h64l74 -143l-50 -21l-65 92l-104 -91l-38 27z" />
    <glyph glyph-name="Otilde" unicode="&#xd5;" horiz-adv-x="668" 
d="M270 -18q-62 0 -106 20.5t-72 57t-41 86.5t-13 110q0 99 25.5 186t72 152.5t111 103.5t142.5 38q60 0 105 -20.5t74 -57t43.5 -86.5t14.5 -110q0 -102 -25 -189.5t-71.5 -152t-112 -101.5t-147.5 -37zM279 57q60 0 106 34t77.5 91t47.5 131.5t16 155.5q0 89 -35 140.5
t-108 51.5q-60 0 -106 -34t-77 -91t-46.5 -131.5t-15.5 -155.5q0 -89 35 -140.5t106 -51.5zM229 785q10 60 34 91t67 31q17 0 34.5 -6.5t33.5 -13.5l39 -17q16 -7 29 -12t24 -5q18 0 29.5 11.5t16.5 44.5l51 -7q-10 -60 -34 -91t-67 -31q-17 0 -34.5 6t-33.5 13l-39 17
q-16 7 -29 12.5t-24 5.5q-18 0 -29.5 -11.5t-16.5 -44.5z" />
    <glyph glyph-name="Odieresis" unicode="&#xd6;" horiz-adv-x="668" 
d="M270 -18q-62 0 -106 20.5t-72 57t-41 86.5t-13 110q0 99 25.5 186t72 152.5t111 103.5t142.5 38q60 0 105 -20.5t74 -57t43.5 -86.5t14.5 -110q0 -102 -25 -189.5t-71.5 -152t-112 -101.5t-147.5 -37zM279 57q60 0 106 34t77.5 91t47.5 131.5t16 155.5q0 89 -35 140.5
t-108 51.5q-60 0 -106 -34t-77 -91t-46.5 -131.5t-15.5 -155.5q0 -89 35 -140.5t106 -51.5zM300 776q-23 0 -35.5 14.5t-12.5 36.5q0 35 18.5 57.5t49.5 22.5q23 0 35.5 -15.5t12.5 -38.5q0 -35 -19.5 -56t-48.5 -21zM496 776q-23 0 -35.5 14.5t-12.5 36.5q0 35 18.5 57.5
t49.5 22.5q23 0 35.5 -15.5t12.5 -38.5q0 -35 -19.5 -56t-48.5 -21z" />
    <glyph glyph-name="multiply" unicode="&#xd7;" horiz-adv-x="594" 
d="M106 204l134 134l-138 138l60 60l138 -138l135 135l56 -57l-135 -135l138 -138l-59 -59l-138 138l-135 -135z" />
    <glyph glyph-name="Oslash" unicode="&#xd8;" horiz-adv-x="672" 
d="M109 44q-35 37 -51 91t-16 121q0 99 25.5 186t72 152.5t111 103.5t142.5 38q64 0 114 -25l46 77h89l-74 -125q32 -37 47 -88t15 -113q0 -102 -25 -189.5t-71.5 -152t-112 -101.5t-147.5 -37q-29 0 -54.5 5t-47.5 13l-49 -83h-89zM464 639q-31 22 -77 22q-60 0 -106 -34
t-77 -91t-46.5 -131.5t-15.5 -155.5q0 -70 21 -115zM216 73q26 -16 67 -16q60 0 106 34t77.5 91t47.5 131.5t16 155.5q0 62 -16 104z" />
    <glyph glyph-name="Ugrave" unicode="&#xd9;" horiz-adv-x="641" 
d="M141 721h91l-74 -415q-7 -39 -11.5 -72t-4.5 -60q0 -58 25.5 -87.5t92.5 -29.5q46 0 78.5 14.5t54 43.5t35.5 72t24 100l78 434h91l-77 -435q-13 -72 -33.5 -128.5t-54.5 -95.5t-84 -59.5t-121 -20.5q-56 0 -94 12t-61.5 35.5t-34 58t-10.5 79.5q0 51 12 116zM342 964
l125 -162l-40 -35l-149 138z" />
    <glyph glyph-name="Uacute" unicode="&#xda;" horiz-adv-x="641" 
d="M141 721h91l-74 -415q-7 -39 -11.5 -72t-4.5 -60q0 -58 25.5 -87.5t92.5 -29.5q46 0 78.5 14.5t54 43.5t35.5 72t24 100l78 434h91l-77 -435q-13 -72 -33.5 -128.5t-54.5 -95.5t-84 -59.5t-121 -20.5q-56 0 -94 12t-61.5 35.5t-34 58t-10.5 79.5q0 51 12 116zM494 961
l56 -66l-188 -128l-36 40z" />
    <glyph glyph-name="Ucircumflex" unicode="&#xdb;" horiz-adv-x="641" 
d="M141 721h91l-74 -415q-7 -39 -11.5 -72t-4.5 -60q0 -58 25.5 -87.5t92.5 -29.5q46 0 78.5 14.5t54 43.5t35.5 72t24 100l78 434h91l-77 -435q-13 -72 -33.5 -128.5t-54.5 -95.5t-84 -59.5t-121 -20.5q-56 0 -94 12t-61.5 35.5t-34 58t-10.5 79.5q0 51 12 116zM387 934h64
l74 -143l-50 -21l-65 92l-104 -91l-38 27z" />
    <glyph glyph-name="Udieresis" unicode="&#xdc;" horiz-adv-x="641" 
d="M141 721h91l-74 -415q-7 -39 -11.5 -72t-4.5 -60q0 -58 25.5 -87.5t92.5 -29.5q46 0 78.5 14.5t54 43.5t35.5 72t24 100l78 434h91l-77 -435q-13 -72 -33.5 -128.5t-54.5 -95.5t-84 -59.5t-121 -20.5q-56 0 -94 12t-61.5 35.5t-34 58t-10.5 79.5q0 51 12 116zM293 776
q-23 0 -35.5 14.5t-12.5 36.5q0 35 18.5 57.5t49.5 22.5q23 0 35.5 -15.5t12.5 -38.5q0 -35 -19.5 -56t-48.5 -21zM489 776q-23 0 -35.5 14.5t-12.5 36.5q0 35 18.5 57.5t49.5 22.5q23 0 35.5 -15.5t12.5 -38.5q0 -35 -19.5 -56t-48.5 -21z" />
    <glyph glyph-name="Yacute" unicode="&#xdd;" horiz-adv-x="524" 
d="M191 279q-17 4 -26 25.5t-17 55.5l-85 352l90 18l84 -359q4 -15 7 -20t8 -5t10.5 5.5t14.5 20.5l215 356l80 -19l-226 -366q-13 -20 -22 -32.5t-16.5 -19.5t-14 -10t-12.5 -4l-48 -277h-92zM454 961l56 -66l-188 -128l-36 40z" />
    <glyph glyph-name="Thorn" unicode="&#xde;" horiz-adv-x="564" 
d="M156 721h91l-19 -108h111q91 0 145.5 -41t54.5 -129q0 -53 -18 -100.5t-53.5 -83.5t-88.5 -57t-122 -21h-106l-32 -181h-91zM276 256q37 0 67.5 10t53 30.5t35 53t12.5 77.5q0 64 -33 89t-99 25h-97l-51 -285h112z" />
    <glyph glyph-name="germandbls" unicode="&#xdf;" horiz-adv-x="569" 
d="M-54 -127q31 10 49.5 44.5t30.5 105.5l92 518q7 40 22 75t41 61.5t65.5 41.5t95.5 15q45 0 75 -12.5t47 -31.5t24 -42t7 -43q0 -42 -19.5 -71t-43.5 -52t-43.5 -45.5t-19.5 -51.5t16.5 -48t45.5 -42q13 -10 25 -22t21.5 -27t15.5 -34t6 -44q0 -38 -14 -71.5t-39.5 -59
t-61 -40.5t-79.5 -15q-47 0 -79.5 10.5t-56.5 24.5l23 62q26 -14 50 -21.5t58 -7.5q25 0 46.5 6.5t37.5 19.5t25.5 33t9.5 47q0 32 -19 53t-42 40q-30 24 -51.5 47.5t-21.5 60.5q0 33 9.5 56t23.5 41.5t30.5 33.5t30.5 30.5t23.5 34t9.5 43.5q0 14 -3.5 27t-12 23t-24 16
t-39.5 6q-35 0 -57.5 -10t-37.5 -29t-23.5 -46.5t-14.5 -61.5l-93 -521q-6 -37 -16.5 -65t-26.5 -50t-39 -38t-56 -28z" />
    <glyph glyph-name="agrave" unicode="&#xe0;" horiz-adv-x="528" 
d="M325 55q-32 -31 -66.5 -52t-81.5 -21q-71 0 -109 46.5t-38 136.5q0 75 21.5 140t61.5 112.5t97 74.5t127 27q49 0 85 -10t52 -17l-69 -397l34 -74l-72 -37zM381 447q-10 4 -23 6.5t-33 2.5q-43 0 -80.5 -21t-65 -58.5t-43 -88t-15.5 -109.5q0 -39 6 -63.5t16.5 -38.5
t26 -19t34.5 -5q18 0 38 8t39 24t33 40t20 57zM239 754l76 42l83 -189l-49 -24z" />
    <glyph glyph-name="aacute" unicode="&#xe1;" horiz-adv-x="528" 
d="M325 55q-32 -31 -66.5 -52t-81.5 -21q-71 0 -109 46.5t-38 136.5q0 75 21.5 140t61.5 112.5t97 74.5t127 27q49 0 85 -10t52 -17l-69 -397l34 -74l-72 -37zM381 447q-10 4 -23 6.5t-33 2.5q-43 0 -80.5 -21t-65 -58.5t-43 -88t-15.5 -109.5q0 -39 6 -63.5t16.5 -38.5
t26 -19t34.5 -5q18 0 38 8t39 24t33 40t20 57zM416 797l66 -56l-165 -159l-42 34z" />
    <glyph glyph-name="acircumflex" unicode="&#xe2;" horiz-adv-x="528" 
d="M325 55q-32 -31 -66.5 -52t-81.5 -21q-71 0 -109 46.5t-38 136.5q0 75 21.5 140t61.5 112.5t97 74.5t127 27q49 0 85 -10t52 -17l-69 -397l34 -74l-72 -37zM381 447q-10 4 -23 6.5t-33 2.5q-43 0 -80.5 -21t-65 -58.5t-43 -88t-15.5 -109.5q0 -39 6 -63.5t16.5 -38.5
t26 -19t34.5 -5q18 0 38 8t39 24t33 40t20 57zM314 774h68l75 -178l-50 -21l-68 119l-113 -118l-38 27z" />
    <glyph glyph-name="atilde" unicode="&#xe3;" horiz-adv-x="528" 
d="M325 55q-32 -31 -66.5 -52t-81.5 -21q-71 0 -109 46.5t-38 136.5q0 75 21.5 140t61.5 112.5t97 74.5t127 27q49 0 85 -10t52 -17l-69 -397l34 -74l-72 -37zM381 447q-10 4 -23 6.5t-33 2.5q-43 0 -80.5 -21t-65 -58.5t-43 -88t-15.5 -109.5q0 -39 6 -63.5t16.5 -38.5
t26 -19t34.5 -5q18 0 38 8t39 24t33 40t20 57zM165 607q10 60 34 91t67 31q17 0 34.5 -6.5t33.5 -13.5l39 -17q16 -7 29 -12t24 -5q18 0 29.5 11.5t16.5 44.5l51 -7q-10 -60 -34 -91t-67 -31q-17 0 -34.5 6t-33.5 13l-39 17q-16 7 -29 12.5t-24 5.5q-18 0 -29.5 -11.5
t-16.5 -44.5z" />
    <glyph glyph-name="adieresis" unicode="&#xe4;" horiz-adv-x="528" 
d="M325 55q-32 -31 -66.5 -52t-81.5 -21q-71 0 -109 46.5t-38 136.5q0 75 21.5 140t61.5 112.5t97 74.5t127 27q49 0 85 -10t52 -17l-69 -397l34 -74l-72 -37zM381 447q-10 4 -23 6.5t-33 2.5q-43 0 -80.5 -21t-65 -58.5t-43 -88t-15.5 -109.5q0 -39 6 -63.5t16.5 -38.5
t26 -19t34.5 -5q18 0 38 8t39 24t33 40t20 57zM238 604q-25 0 -38.5 16.5t-13.5 38.5q0 35 17.5 55.5t45.5 20.5q26 0 39.5 -17t13.5 -40q0 -34 -19 -54t-45 -20zM434 604q-25 0 -38.5 16.5t-13.5 38.5q0 35 17.5 55.5t45.5 20.5q26 0 39.5 -17t13.5 -40q0 -34 -19 -54
t-45 -20z" />
    <glyph glyph-name="aring" unicode="&#xe5;" horiz-adv-x="528" 
d="M325 55q-32 -31 -66.5 -52t-81.5 -21q-71 0 -109 46.5t-38 136.5q0 75 21.5 140t61.5 112.5t97 74.5t127 27q49 0 85 -10t52 -17l-69 -397l34 -74l-72 -37zM381 447q-10 4 -23 6.5t-33 2.5q-43 0 -80.5 -21t-65 -58.5t-43 -88t-15.5 -109.5q0 -39 6 -63.5t16.5 -38.5
t26 -19t34.5 -5q18 0 38 8t39 24t33 40t20 57zM327 642q29 0 48 19.5t19 48.5t-19 48.5t-48 19.5t-48 -19.5t-19 -48.5t19 -48.5t48 -19.5zM198 710q0 27 10 50.5t27.5 41t41 27.5t50.5 10t50.5 -10t41 -27.5t27.5 -41t10 -50.5t-10 -50.5t-27.5 -41t-41 -27.5t-50.5 -10
t-50.5 10t-41 27.5t-27.5 41t-10 50.5z" />
    <glyph glyph-name="ae" unicode="&#xe6;" horiz-adv-x="791" 
d="M381 447q-10 4 -23 6.5t-33 2.5q-43 0 -80.5 -21t-65 -58.5t-43 -88t-15.5 -109.5q0 -39 6.5 -63.5t17.5 -38.5t26.5 -19t32.5 -5t37 8t39 24t33.5 40t20.5 57zM455 277q11 -1 29.5 -1.5t38.5 -0.5q30 0 58 8t49.5 23.5t34.5 38t13 51.5q0 58 -66 58q-30 0 -55 -15
t-45.5 -40t-35 -57t-21.5 -65zM688 19q-27 -14 -62 -25.5t-82 -11.5q-75 0 -119 33t-57 78q-70 -111 -189 -111q-72 0 -110.5 46.5t-38.5 136.5q0 75 21.5 140t61.5 112.5t97 74.5t127 27q49 0 85 -10t52 -17l-7 -39q29 28 68.5 47t90.5 19q39 0 65.5 -9.5t42.5 -24.5
t22.5 -35t6.5 -41q0 -46 -18.5 -82t-51 -60.5t-77 -37.5t-96.5 -13q-14 0 -32 0.5t-42 2.5q-1 -9 -1 -18v-14q0 -66 27 -101t83 -35q37 0 63.5 10t49.5 21z" />
    <glyph glyph-name="ccedilla" unicode="&#xe7;" horiz-adv-x="436" 
d="M367 16q-23 -12 -55.5 -21.5t-73.5 -11.5l-12 -33q35 -4 57 -22.5t22 -53.5q0 -51 -34 -82.5t-96 -31.5q-58 0 -106 32l28 53q14 -10 33 -18t44 -8q26 0 39.5 14t13.5 38q0 23 -20.5 31.5t-52.5 8.5l27 75q-75 12 -110.5 65.5t-35.5 138.5q0 76 20.5 136.5t57 103.5
t87.5 66t112 23q41 0 74.5 -11t54.5 -25l-32 -55q-17 10 -43 18t-58 8q-42 0 -75.5 -19.5t-57.5 -53.5t-36.5 -80.5t-12.5 -99.5q0 -82 28.5 -116.5t81.5 -34.5q29 0 60 8t53 19z" />
    <glyph glyph-name="egrave" unicode="&#xe8;" horiz-adv-x="471" 
d="M135 277q11 -1 29.5 -1.5t38.5 -0.5q30 0 58 8t49.5 23.5t34.5 38t13 51.5q0 58 -66 58q-30 0 -55 -15t-45.5 -40t-35 -57t-21.5 -65zM126 219q-1 -9 -1 -18v-14q0 -66 27 -101t83 -35q37 0 63.5 10t49.5 21l20 -63q-27 -14 -62 -25.5t-82 -11.5q-51 0 -87 15.5
t-58.5 41.5t-33 61.5t-10.5 74.5q0 66 19 128t54 110t85 77t113 29q39 0 65.5 -9.5t42.5 -24.5t22.5 -35t6.5 -41q0 -46 -18.5 -82t-51 -60.5t-77 -37.5t-96.5 -13q-14 0 -32 0.5t-42 2.5zM228 754l76 42l83 -189l-49 -24z" />
    <glyph glyph-name="eacute" unicode="&#xe9;" horiz-adv-x="471" 
d="M135 277q11 -1 29.5 -1.5t38.5 -0.5q30 0 58 8t49.5 23.5t34.5 38t13 51.5q0 58 -66 58q-30 0 -55 -15t-45.5 -40t-35 -57t-21.5 -65zM126 219q-1 -9 -1 -18v-14q0 -66 27 -101t83 -35q37 0 63.5 10t49.5 21l20 -63q-27 -14 -62 -25.5t-82 -11.5q-51 0 -87 15.5
t-58.5 41.5t-33 61.5t-10.5 74.5q0 66 19 128t54 110t85 77t113 29q39 0 65.5 -9.5t42.5 -24.5t22.5 -35t6.5 -41q0 -46 -18.5 -82t-51 -60.5t-77 -37.5t-96.5 -13q-14 0 -32 0.5t-42 2.5zM401 797l66 -56l-165 -159l-42 34z" />
    <glyph glyph-name="ecircumflex" unicode="&#xea;" horiz-adv-x="471" 
d="M135 277q11 -1 29.5 -1.5t38.5 -0.5q30 0 58 8t49.5 23.5t34.5 38t13 51.5q0 58 -66 58q-30 0 -55 -15t-45.5 -40t-35 -57t-21.5 -65zM126 219q-1 -9 -1 -18v-14q0 -66 27 -101t83 -35q37 0 63.5 10t49.5 21l20 -63q-27 -14 -62 -25.5t-82 -11.5q-51 0 -87 15.5
t-58.5 41.5t-33 61.5t-10.5 74.5q0 66 19 128t54 110t85 77t113 29q39 0 65.5 -9.5t42.5 -24.5t22.5 -35t6.5 -41q0 -46 -18.5 -82t-51 -60.5t-77 -37.5t-96.5 -13q-14 0 -32 0.5t-42 2.5zM304 774h68l75 -178l-50 -21l-68 119l-113 -118l-38 27z" />
    <glyph glyph-name="edieresis" unicode="&#xeb;" horiz-adv-x="471" 
d="M135 277q11 -1 29.5 -1.5t38.5 -0.5q30 0 58 8t49.5 23.5t34.5 38t13 51.5q0 58 -66 58q-30 0 -55 -15t-45.5 -40t-35 -57t-21.5 -65zM126 219q-1 -9 -1 -18v-14q0 -66 27 -101t83 -35q37 0 63.5 10t49.5 21l20 -63q-27 -14 -62 -25.5t-82 -11.5q-51 0 -87 15.5
t-58.5 41.5t-33 61.5t-10.5 74.5q0 66 19 128t54 110t85 77t113 29q39 0 65.5 -9.5t42.5 -24.5t22.5 -35t6.5 -41q0 -46 -18.5 -82t-51 -60.5t-77 -37.5t-96.5 -13q-14 0 -32 0.5t-42 2.5zM213 604q-25 0 -38.5 16.5t-13.5 38.5q0 35 17.5 55.5t45.5 20.5q26 0 39.5 -17
t13.5 -40q0 -34 -19 -54t-45 -20zM409 604q-25 0 -38.5 16.5t-13.5 38.5q0 35 17.5 55.5t45.5 20.5q26 0 39.5 -17t13.5 -40q0 -34 -19 -54t-45 -20z" />
    <glyph glyph-name="igrave" unicode="&#xec;" horiz-adv-x="254" 
d="M104 435h-58l12 66h144l-88 -501h-86zM57 754l76 42l83 -189l-49 -24z" />
    <glyph glyph-name="iacute" unicode="&#xed;" horiz-adv-x="254" 
d="M104 435h-58l12 66h144l-88 -501h-86zM238 797l66 -56l-165 -159l-42 34z" />
    <glyph glyph-name="icircumflex" unicode="&#xee;" horiz-adv-x="254" 
d="M104 435h-58l12 66h144l-88 -501h-86zM141 774h68l75 -178l-50 -21l-68 119l-113 -118l-38 27z" />
    <glyph glyph-name="idieresis" unicode="&#xef;" horiz-adv-x="254" 
d="M104 435h-58l12 66h144l-88 -501h-86zM55 604q-25 0 -38.5 16.5t-13.5 38.5q0 35 17.5 55.5t45.5 20.5q26 0 39.5 -17t13.5 -40q0 -34 -19 -54t-45 -20zM251 604q-25 0 -38.5 16.5t-13.5 38.5q0 35 17.5 55.5t45.5 20.5q26 0 39.5 -17t13.5 -40q0 -34 -19 -54t-45 -20z
" />
    <glyph glyph-name="eth" unicode="&#xf0;" horiz-adv-x="524" 
d="M212 571l91 59q-16 14 -43 29t-48 21l25 58q30 -8 63.5 -25t62.5 -43l97 63l29 -46l-88 -58q14 -18 27 -43.5t23.5 -56.5t16.5 -66.5t6 -72.5q0 -95 -16 -170.5t-49 -128t-82.5 -81t-116.5 -28.5q-88 0 -136.5 54t-48.5 152q0 76 21.5 131t55.5 90.5t76.5 52.5t84.5 17
t77 -15.5t49 -38.5q-3 46 -15 88.5t-36 74.5l-97 -63zM388 345q-14 28 -44.5 48.5t-72.5 20.5q-29 0 -57.5 -12.5t-51 -39.5t-36 -68.5t-13.5 -99.5q0 -69 26 -107.5t83 -38.5q45 0 75 28t49 71t28.5 95.5t13.5 102.5z" />
    <glyph glyph-name="ntilde" unicode="&#xf1;" horiz-adv-x="552" 
d="M93 404l-24 79l72 35l33 -76q11 13 27 26.5t37 24.5t47.5 18.5t58.5 7.5q34 0 58.5 -9.5t40.5 -26.5t23.5 -40t7.5 -50q0 -9 -1 -21.5t-2.5 -26t-3 -26.5t-3.5 -23l-53 -296h-86l51 285q1 9 3.5 22t4 27t3 26t1.5 20q0 66 -70 66q-29 0 -55 -10.5t-47 -29t-35 -45
t-20 -59.5l-53 -302h-86zM145 607q10 60 34 91t67 31q17 0 34.5 -6.5t33.5 -13.5l39 -17q16 -7 29 -12t24 -5q18 0 29.5 11.5t16.5 44.5l51 -7q-10 -60 -34 -91t-67 -31q-17 0 -34.5 6t-33.5 13l-39 17q-16 7 -29 12.5t-24 5.5q-18 0 -29.5 -11.5t-16.5 -44.5z" />
    <glyph glyph-name="ograve" unicode="&#xf2;" horiz-adv-x="534" 
d="M215 47q42 0 73.5 24.5t52 64.5t30.5 91t10 103q0 59 -25 91.5t-73 32.5q-42 0 -73.5 -24.5t-52 -64.5t-30.5 -91t-10 -103q0 -57 23.5 -90.5t74.5 -33.5zM206 -18q-48 0 -82 16.5t-55.5 44.5t-31.5 64t-10 75q0 85 22.5 148.5t59 105.5t84.5 62.5t99 20.5q48 0 82 -16.5
t55.5 -44.5t31.5 -64t10 -75q0 -85 -22 -148.5t-58.5 -105.5t-84.5 -62.5t-100 -20.5zM216 754l76 42l83 -189l-49 -24z" />
    <glyph glyph-name="oacute" unicode="&#xf3;" horiz-adv-x="534" 
d="M215 47q42 0 73.5 24.5t52 64.5t30.5 91t10 103q0 59 -25 91.5t-73 32.5q-42 0 -73.5 -24.5t-52 -64.5t-30.5 -91t-10 -103q0 -57 23.5 -90.5t74.5 -33.5zM206 -18q-48 0 -82 16.5t-55.5 44.5t-31.5 64t-10 75q0 85 22.5 148.5t59 105.5t84.5 62.5t99 20.5q48 0 82 -16.5
t55.5 -44.5t31.5 -64t10 -75q0 -85 -22 -148.5t-58.5 -105.5t-84.5 -62.5t-100 -20.5zM393 797l66 -56l-165 -159l-42 34z" />
    <glyph glyph-name="ocircumflex" unicode="&#xf4;" horiz-adv-x="534" 
d="M215 47q42 0 73.5 24.5t52 64.5t30.5 91t10 103q0 59 -25 91.5t-73 32.5q-42 0 -73.5 -24.5t-52 -64.5t-30.5 -91t-10 -103q0 -57 23.5 -90.5t74.5 -33.5zM206 -18q-48 0 -82 16.5t-55.5 44.5t-31.5 64t-10 75q0 85 22.5 148.5t59 105.5t84.5 62.5t99 20.5q48 0 82 -16.5
t55.5 -44.5t31.5 -64t10 -75q0 -85 -22 -148.5t-58.5 -105.5t-84.5 -62.5t-100 -20.5zM294 774h68l75 -178l-50 -21l-68 119l-113 -118l-38 27z" />
    <glyph glyph-name="otilde" unicode="&#xf5;" horiz-adv-x="534" 
d="M215 47q42 0 73.5 24.5t52 64.5t30.5 91t10 103q0 59 -25 91.5t-73 32.5q-42 0 -73.5 -24.5t-52 -64.5t-30.5 -91t-10 -103q0 -57 23.5 -90.5t74.5 -33.5zM206 -18q-48 0 -82 16.5t-55.5 44.5t-31.5 64t-10 75q0 85 22.5 148.5t59 105.5t84.5 62.5t99 20.5q48 0 82 -16.5
t55.5 -44.5t31.5 -64t10 -75q0 -85 -22 -148.5t-58.5 -105.5t-84.5 -62.5t-100 -20.5zM119 607q10 60 34 91t67 31q17 0 34.5 -6.5t33.5 -13.5l39 -17q16 -7 29 -12t24 -5q18 0 29.5 11.5t16.5 44.5l51 -7q-10 -60 -34 -91t-67 -31q-17 0 -34.5 6t-33.5 13l-39 17
q-16 7 -29 12.5t-24 5.5q-18 0 -29.5 -11.5t-16.5 -44.5z" />
    <glyph glyph-name="odieresis" unicode="&#xf6;" horiz-adv-x="534" 
d="M215 47q42 0 73.5 24.5t52 64.5t30.5 91t10 103q0 59 -25 91.5t-73 32.5q-42 0 -73.5 -24.5t-52 -64.5t-30.5 -91t-10 -103q0 -57 23.5 -90.5t74.5 -33.5zM206 -18q-48 0 -82 16.5t-55.5 44.5t-31.5 64t-10 75q0 85 22.5 148.5t59 105.5t84.5 62.5t99 20.5q48 0 82 -16.5
t55.5 -44.5t31.5 -64t10 -75q0 -85 -22 -148.5t-58.5 -105.5t-84.5 -62.5t-100 -20.5zM213 604q-25 0 -38.5 16.5t-13.5 38.5q0 35 17.5 55.5t45.5 20.5q26 0 39.5 -17t13.5 -40q0 -34 -19 -54t-45 -20zM409 604q-25 0 -38.5 16.5t-13.5 38.5q0 35 17.5 55.5t45.5 20.5
q26 0 39.5 -17t13.5 -40q0 -34 -19 -54t-45 -20z" />
    <glyph glyph-name="divide" unicode="&#xf7;" horiz-adv-x="594" 
d="M297 100q-33 0 -48 19.5t-15 49.5t15 49.5t48 19.5q32 0 47 -19.5t15 -49.5t-15 -49.5t-47 -19.5zM73 380h447v-80h-447v80zM296 446q-33 0 -48 19.5t-15 49.5t15 49.5t48 19.5q32 0 47 -19.5t15 -49.5t-15 -49.5t-47 -19.5z" />
    <glyph glyph-name="oslash" unicode="&#xf8;" horiz-adv-x="534" 
d="M89 23q-31 29 -45 70.5t-14 88.5q0 85 22.5 148.5t59 105.5t84.5 62.5t99 20.5q36 0 66 -11l46 83h81l-67 -120q28 -29 40.5 -68.5t12.5 -83.5q0 -85 -22 -148.5t-58.5 -105.5t-84.5 -62.5t-100 -20.5q-31 0 -58 8l-52 -94h-81zM326 446q-19 8 -40 8q-42 0 -73.5 -24.5
t-52 -64.5t-30.5 -91t-10 -103q0 -41 12 -71zM186 51q12 -4 32 -4q42 0 73.5 24.5t52 64.5t30.5 91t10 103q0 17 -2.5 31.5t-6.5 27.5z" />
    <glyph glyph-name="ugrave" unicode="&#xf9;" horiz-adv-x="544" 
d="M111 501h86l-51 -285q-2 -9 -4 -22t-3.5 -27t-3 -26.5t-1.5 -19.5q0 -68 70 -68q57 0 94.5 34.5t51.5 111.5l53 302h86l-71 -404l33 -76l-71 -37l-42 72q-13 -14 -28 -27t-33.5 -23.5t-41.5 -17t-52 -6.5q-36 0 -62 9.5t-42 26.5t-23.5 40t-7.5 50q0 9 1 21.5t2.5 26
t3 26.5t3.5 23zM210 754l76 42l83 -189l-49 -24z" />
    <glyph glyph-name="uacute" unicode="&#xfa;" horiz-adv-x="544" 
d="M111 501h86l-51 -285q-2 -9 -4 -22t-3.5 -27t-3 -26.5t-1.5 -19.5q0 -68 70 -68q57 0 94.5 34.5t51.5 111.5l53 302h86l-71 -404l33 -76l-71 -37l-42 72q-13 -14 -28 -27t-33.5 -23.5t-41.5 -17t-52 -6.5q-36 0 -62 9.5t-42 26.5t-23.5 40t-7.5 50q0 9 1 21.5t2.5 26
t3 26.5t3.5 23zM415 797l66 -56l-165 -159l-42 34z" />
    <glyph glyph-name="ucircumflex" unicode="&#xfb;" horiz-adv-x="544" 
d="M111 501h86l-51 -285q-2 -9 -4 -22t-3.5 -27t-3 -26.5t-1.5 -19.5q0 -68 70 -68q57 0 94.5 34.5t51.5 111.5l53 302h86l-71 -404l33 -76l-71 -37l-42 72q-13 -14 -28 -27t-33.5 -23.5t-41.5 -17t-52 -6.5q-36 0 -62 9.5t-42 26.5t-23.5 40t-7.5 50q0 9 1 21.5t2.5 26
t3 26.5t3.5 23zM304 774h68l75 -178l-50 -21l-68 119l-113 -118l-38 27z" />
    <glyph glyph-name="udieresis" unicode="&#xfc;" horiz-adv-x="544" 
d="M111 501h86l-51 -285q-2 -9 -4 -22t-3.5 -27t-3 -26.5t-1.5 -19.5q0 -68 70 -68q57 0 94.5 34.5t51.5 111.5l53 302h86l-71 -404l33 -76l-71 -37l-42 72q-13 -14 -28 -27t-33.5 -23.5t-41.5 -17t-52 -6.5q-36 0 -62 9.5t-42 26.5t-23.5 40t-7.5 50q0 9 1 21.5t2.5 26
t3 26.5t3.5 23zM224 604q-25 0 -38.5 16.5t-13.5 38.5q0 35 17.5 55.5t45.5 20.5q26 0 39.5 -17t13.5 -40q0 -34 -19 -54t-45 -20zM420 604q-25 0 -38.5 16.5t-13.5 38.5q0 35 17.5 55.5t45.5 20.5q26 0 39.5 -17t13.5 -40q0 -34 -19 -54t-45 -20z" />
    <glyph glyph-name="yacute" unicode="&#xfd;" horiz-adv-x="489" 
d="M-17 -142q16 -7 33 -11.5t40 -4.5q25 0 42.5 6.5t31 18.5t24 30t21.5 42l30 69h-6q-59 0 -85 37t-32 108l-40 344l90 15l37 -357q2 -26 6.5 -43t11.5 -26.5t16.5 -13t21.5 -3.5h7l177 444l80 -16l-238 -575q-30 -74 -75 -110t-116 -36q-35 0 -57.5 4.5t-42.5 13.5z
M375 797l66 -56l-165 -159l-42 34z" />
    <glyph glyph-name="thorn" unicode="&#xfe;" horiz-adv-x="546" 
d="M137 58q13 -4 30.5 -7.5t34.5 -3.5q40 0 77 19.5t65.5 56.5t45.5 90t17 120q0 34 -5.5 56t-16.5 35t-27 18t-37 5q-22 0 -44 -8.5t-41.5 -25t-33.5 -42t-20 -58.5zM172 736h85l-50 -280q9 10 23.5 21t33 20.5t39.5 15.5t44 6q70 0 111 -45t41 -123q0 -90 -24 -158.5
t-65 -115t-95.5 -70t-116.5 -23.5q-19 0 -36.5 3t-35.5 8l-38 -213h-86z" />
    <glyph glyph-name="ydieresis" unicode="&#xff;" horiz-adv-x="489" 
d="M-17 -142q16 -7 33 -11.5t40 -4.5q25 0 42.5 6.5t31 18.5t24 30t21.5 42l30 69h-6q-59 0 -85 37t-32 108l-40 344l90 15l37 -357q2 -26 6.5 -43t11.5 -26.5t16.5 -13t21.5 -3.5h7l177 444l80 -16l-238 -575q-30 -74 -75 -110t-116 -36q-35 0 -57.5 4.5t-42.5 13.5z
M188 604q-25 0 -38.5 16.5t-13.5 38.5q0 35 17.5 55.5t45.5 20.5q26 0 39.5 -17t13.5 -40q0 -34 -19 -54t-45 -20zM384 604q-25 0 -38.5 16.5t-13.5 38.5q0 35 17.5 55.5t45.5 20.5q26 0 39.5 -17t13.5 -40q0 -34 -19 -54t-45 -20z" />
    <glyph glyph-name="Amacron" unicode="&#x100;" horiz-adv-x="603" 
d="M258 651q21 45 46.5 64.5t68.5 19.5q24 0 40.5 -4.5t27.5 -16t17.5 -32t9.5 -53.5l65 -628l-95 -15l-26 249h-256l-114 -249l-82 17zM404 310l-32 311q-2 22 -4.5 28.5t-10.5 6.5t-13 -7.5t-13 -25.5l-143 -313h216zM239 864h289l-13 -75h-289z" />
    <glyph glyph-name="amacron" unicode="&#x101;" horiz-adv-x="528" 
d="M325 55q-32 -31 -66.5 -52t-81.5 -21q-71 0 -109 46.5t-38 136.5q0 75 21.5 140t61.5 112.5t97 74.5t127 27q49 0 85 -10t52 -17l-69 -397l34 -74l-72 -37zM381 447q-10 4 -23 6.5t-33 2.5q-43 0 -80.5 -21t-65 -58.5t-43 -88t-15.5 -109.5q0 -39 6 -63.5t16.5 -38.5
t26 -19t34.5 -5q18 0 38 8t39 24t33 40t20 57zM203 688h289l-13 -73h-289z" />
    <glyph glyph-name="Abreve" unicode="&#x102;" horiz-adv-x="603" 
d="M258 651q21 45 46.5 64.5t68.5 19.5q24 0 40.5 -4.5t27.5 -16t17.5 -32t9.5 -53.5l65 -628l-95 -15l-26 249h-256l-114 -249l-82 17zM404 310l-32 311q-2 22 -4.5 28.5t-10.5 6.5t-13 -7.5t-13 -25.5l-143 -313h216zM314 909q11 -33 28.5 -47.5t47.5 -14.5q65 0 94 62
l53 -18q-23 -57 -63.5 -84.5t-88.5 -27.5q-20 0 -40.5 5t-38.5 17t-31.5 33.5t-18.5 54.5z" />
    <glyph glyph-name="abreve" unicode="&#x103;" horiz-adv-x="528" 
d="M325 55q-32 -31 -66.5 -52t-81.5 -21q-71 0 -109 46.5t-38 136.5q0 75 21.5 140t61.5 112.5t97 74.5t127 27q49 0 85 -10t52 -17l-69 -397l34 -74l-72 -37zM381 447q-10 4 -23 6.5t-33 2.5q-43 0 -80.5 -21t-65 -58.5t-43 -88t-15.5 -109.5q0 -39 6 -63.5t16.5 -38.5
t26 -19t34.5 -5q18 0 38 8t39 24t33 40t20 57zM269 721q11 -33 28.5 -47.5t47.5 -14.5q65 0 94 62l53 -18q-23 -57 -63.5 -84.5t-88.5 -27.5q-20 0 -40.5 5t-38.5 17t-31.5 33.5t-18.5 54.5z" />
    <glyph glyph-name="Aogonek" unicode="&#x104;" horiz-adv-x="603" 
d="M258 651q21 45 46.5 64.5t68.5 19.5q24 0 40.5 -4.5t27.5 -16t17.5 -32t9.5 -53.5l65 -628q-40 -38 -63 -68t-23 -55q0 -20 15.5 -33t62.5 -25l-24 -50q-39 7 -65 15t-42 19.5t-23 26.5t-7 37q0 27 21 56.5t53 63.5l-26 247h-256l-114 -249l-82 17zM404 310l-32 311
q-2 22 -4.5 28.5t-10.5 6.5t-13 -7.5t-13 -25.5l-143 -313h216z" />
    <glyph glyph-name="aogonek" unicode="&#x105;" horiz-adv-x="528" 
d="M325 55q-32 -31 -66.5 -52t-81.5 -21q-71 0 -109 46.5t-38 136.5q0 75 21.5 140t61.5 112.5t97 74.5t127 27q49 0 85 -10t52 -17l-69 -397l40 -86q-35 -39 -57 -72t-22 -59q0 -20 15.5 -33t62.5 -25l-24 -50q-39 7 -65 15t-42 19.5t-23 26.5t-7 37q0 29 23 63.5t53 66.5z
M381 447q-10 4 -23 6.5t-33 2.5q-43 0 -80.5 -21t-65 -58.5t-43 -88t-15.5 -109.5q0 -39 6 -63.5t16.5 -38.5t26 -19t34.5 -5q18 0 38 8t39 24t33 40t20 57z" />
    <glyph glyph-name="Cacute" unicode="&#x106;" horiz-adv-x="535" 
d="M479 40q-49 -29 -96.5 -43.5t-105.5 -14.5q-68 0 -113 22.5t-72 61.5t-38.5 91.5t-11.5 113.5q0 109 30 195.5t80 146.5t114.5 91.5t134.5 31.5q48 0 88 -13t71 -36l-37 -62q-27 19 -59.5 28t-62.5 9q-59 0 -106.5 -30t-81.5 -83t-52 -125t-18 -155q0 -44 7.5 -82t25 -67
t46.5 -45.5t73 -16.5q40 0 76.5 12t82.5 38zM504 961l56 -66l-188 -128l-36 40z" />
    <glyph glyph-name="cacute" unicode="&#x107;" horiz-adv-x="436" 
d="M367 16q-25 -13 -61 -23.5t-82 -10.5q-97 0 -143 56t-46 152q0 76 20.5 136.5t57 103.5t87.5 66t112 23q41 0 74.5 -11t54.5 -25l-32 -55q-17 10 -43 18t-58 8q-42 0 -75.5 -19.5t-57.5 -53.5t-36.5 -80.5t-12.5 -99.5q0 -82 28.5 -116.5t81.5 -34.5q29 0 60 8t53 19z
M394 797l66 -56l-165 -159l-42 34z" />
    <glyph glyph-name="Ccircumflex" unicode="&#x108;" horiz-adv-x="535" 
d="M479 40q-49 -29 -96.5 -43.5t-105.5 -14.5q-68 0 -113 22.5t-72 61.5t-38.5 91.5t-11.5 113.5q0 109 30 195.5t80 146.5t114.5 91.5t134.5 31.5q48 0 88 -13t71 -36l-37 -62q-27 19 -59.5 28t-62.5 9q-59 0 -106.5 -30t-81.5 -83t-52 -125t-18 -155q0 -44 7.5 -82t25 -67
t46.5 -45.5t73 -16.5q40 0 76.5 12t82.5 38zM394 934h64l74 -143l-50 -21l-65 92l-104 -91l-38 27z" />
    <glyph glyph-name="ccircumflex" unicode="&#x109;" horiz-adv-x="436" 
d="M367 16q-25 -13 -61 -23.5t-82 -10.5q-97 0 -143 56t-46 152q0 76 20.5 136.5t57 103.5t87.5 66t112 23q41 0 74.5 -11t54.5 -25l-32 -55q-17 10 -43 18t-58 8q-42 0 -75.5 -19.5t-57.5 -53.5t-36.5 -80.5t-12.5 -99.5q0 -82 28.5 -116.5t81.5 -34.5q29 0 60 8t53 19z
M297 774h68l75 -178l-50 -21l-68 119l-113 -118l-38 27z" />
    <glyph glyph-name="Cdotaccent" unicode="&#x10a;" horiz-adv-x="535" 
d="M479 40q-49 -29 -96.5 -43.5t-105.5 -14.5q-68 0 -113 22.5t-72 61.5t-38.5 91.5t-11.5 113.5q0 109 30 195.5t80 146.5t114.5 91.5t134.5 31.5q48 0 88 -13t71 -36l-37 -62q-27 19 -59.5 28t-62.5 9q-59 0 -106.5 -30t-81.5 -83t-52 -125t-18 -155q0 -44 7.5 -82t25 -67
t46.5 -45.5t73 -16.5q40 0 76.5 12t82.5 38zM399 775q-26 0 -40 17t-14 40q0 36 18 57.5t47 21.5q26 0 40.5 -18t14.5 -41q0 -35 -19.5 -56t-46.5 -21z" />
    <glyph glyph-name="cdotaccent" unicode="&#x10b;" horiz-adv-x="436" 
d="M367 16q-25 -13 -61 -23.5t-82 -10.5q-97 0 -143 56t-46 152q0 76 20.5 136.5t57 103.5t87.5 66t112 23q41 0 74.5 -11t54.5 -25l-32 -55q-17 10 -43 18t-58 8q-42 0 -75.5 -19.5t-57.5 -53.5t-36.5 -80.5t-12.5 -99.5q0 -82 28.5 -116.5t81.5 -34.5q29 0 60 8t53 19z
M312 601q-26 0 -40 17t-14 40q0 36 18 57.5t47 21.5q26 0 40.5 -18t14.5 -41q0 -35 -19.5 -56t-46.5 -21z" />
    <glyph glyph-name="Ccaron" unicode="&#x10c;" horiz-adv-x="535" 
d="M479 40q-49 -29 -96.5 -43.5t-105.5 -14.5q-68 0 -113 22.5t-72 61.5t-38.5 91.5t-11.5 113.5q0 109 30 195.5t80 146.5t114.5 91.5t134.5 31.5q48 0 88 -13t71 -36l-37 -62q-27 19 -59.5 28t-62.5 9q-59 0 -106.5 -30t-81.5 -83t-52 -125t-18 -155q0 -44 7.5 -82t25 -67
t46.5 -45.5t73 -16.5q40 0 76.5 12t82.5 38zM294 916l51 21l65 -92l104 91l37 -27l-119 -136h-64z" />
    <glyph glyph-name="ccaron" unicode="&#x10d;" horiz-adv-x="436" 
d="M367 16q-25 -13 -61 -23.5t-82 -10.5q-97 0 -143 56t-46 152q0 76 20.5 136.5t57 103.5t87.5 66t112 23q41 0 74.5 -11t54.5 -25l-32 -55q-17 10 -43 18t-58 8q-42 0 -75.5 -19.5t-57.5 -53.5t-36.5 -80.5t-12.5 -99.5q0 -82 28.5 -116.5t81.5 -34.5q29 0 60 8t53 19z
M201 753l50 21l68 -119l113 118l38 -27l-126 -171h-68z" />
    <glyph glyph-name="Dcaron" unicode="&#x10e;" horiz-adv-x="652" 
d="M147 721h177q76 0 130 -18.5t88 -55t49.5 -90.5t15.5 -124q0 -86 -25 -164.5t-72.5 -138t-117.5 -95t-160 -35.5h-213zM232 75q61 0 111.5 24.5t86.5 70t56 111t20 147.5q0 62 -12 104t-36 68t-60.5 37t-85.5 11h-87l-102 -573h109zM246 916l51 21l65 -92l104 91l37 -27
l-119 -136h-64z" />
    <glyph glyph-name="dcaron" unicode="&#x10f;" horiz-adv-x="605" 
d="M331 55q-26 -29 -62.5 -51t-89.5 -22q-70 0 -109.5 47.5t-39.5 135.5q0 81 23 146t64.5 111.5t98 71.5t124.5 25q17 0 29 -1.5t30 -5.5l40 224h84l-112 -641l34 -74l-72 -37zM387 449q-11 3 -27.5 5t-30.5 2q-47 0 -85.5 -22.5t-65.5 -60.5t-42 -87t-15 -103
q0 -62 17 -96t67 -34q19 0 40.5 9t40.5 25.5t33.5 40.5t20.5 54zM605 736h85l-79 -229h-51z" />
    <glyph glyph-name="Dcroat" unicode="&#x110;" horiz-adv-x="665" 
d="M160 721h177q76 0 130 -18.5t88 -55t49.5 -90.5t15.5 -124q0 -86 -25 -164.5t-72.5 -138t-117.5 -95t-160 -35.5h-213l58 329h-65l12 71h66zM245 75q61 0 111.5 24.5t86.5 70t56 111t20 147.5q0 62 -12 104t-36 68t-60.5 37t-85.5 11h-87l-45 -248h189l-12 -71h-189
l-45 -254h109z" />
    <glyph glyph-name="dcroat" unicode="&#x111;" horiz-adv-x="535" 
d="M332 55q-26 -29 -63.5 -51t-88.5 -22q-72 0 -110.5 49t-38.5 134q0 81 22.5 143t62.5 105t95.5 65t120.5 22q21 0 34 -1.5t31 -5.5l15 86h-152l11 68h153l16 89h84l-16 -89h60l-11 -68h-61l-84 -484l34 -74l-72 -37zM385 430q-11 3 -27.5 5t-30.5 2q-47 0 -85 -19.5
t-64.5 -54.5t-41 -82.5t-14.5 -103.5q0 -58 17.5 -91t66.5 -33q19 0 40.5 9t40.5 25.5t33.5 40.5t20.5 54z" />
    <glyph glyph-name="Emacron" unicode="&#x112;" horiz-adv-x="514" 
d="M147 721h392l-14 -74h-300l-41 -233h231l-14 -76h-231l-47 -262h320l-13 -76h-411zM232 864h289l-13 -75h-289z" />
    <glyph glyph-name="emacron" unicode="&#x113;" horiz-adv-x="471" 
d="M135 277q11 -1 29.5 -1.5t38.5 -0.5q30 0 58 8t49.5 23.5t34.5 38t13 51.5q0 58 -66 58q-30 0 -55 -15t-45.5 -40t-35 -57t-21.5 -65zM126 219q-1 -9 -1 -18v-14q0 -66 27 -101t83 -35q37 0 63.5 10t49.5 21l20 -63q-27 -14 -62 -25.5t-82 -11.5q-51 0 -87 15.5
t-58.5 41.5t-33 61.5t-10.5 74.5q0 66 19 128t54 110t85 77t113 29q39 0 65.5 -9.5t42.5 -24.5t22.5 -35t6.5 -41q0 -46 -18.5 -82t-51 -60.5t-77 -37.5t-96.5 -13q-14 0 -32 0.5t-42 2.5zM175 688h289l-13 -73h-289z" />
    <glyph glyph-name="Ebreve" unicode="&#x114;" horiz-adv-x="514" 
d="M147 721h392l-14 -74h-300l-41 -233h231l-14 -76h-231l-47 -262h320l-13 -76h-411zM289 909q11 -33 28.5 -47.5t47.5 -14.5q65 0 94 62l53 -18q-23 -57 -63.5 -84.5t-88.5 -27.5q-20 0 -40.5 5t-38.5 17t-31.5 33.5t-18.5 54.5z" />
    <glyph glyph-name="ebreve" unicode="&#x115;" horiz-adv-x="471" 
d="M135 277q11 -1 29.5 -1.5t38.5 -0.5q30 0 58 8t49.5 23.5t34.5 38t13 51.5q0 58 -66 58q-30 0 -55 -15t-45.5 -40t-35 -57t-21.5 -65zM126 219q-1 -9 -1 -18v-14q0 -66 27 -101t83 -35q37 0 63.5 10t49.5 21l20 -63q-27 -14 -62 -25.5t-82 -11.5q-51 0 -87 15.5
t-58.5 41.5t-33 61.5t-10.5 74.5q0 66 19 128t54 110t85 77t113 29q39 0 65.5 -9.5t42.5 -24.5t22.5 -35t6.5 -41q0 -46 -18.5 -82t-51 -60.5t-77 -37.5t-96.5 -13q-14 0 -32 0.5t-42 2.5zM247 721q11 -33 28.5 -47.5t47.5 -14.5q65 0 94 62l53 -18q-23 -57 -63.5 -84.5
t-88.5 -27.5q-20 0 -40.5 5t-38.5 17t-31.5 33.5t-18.5 54.5z" />
    <glyph glyph-name="Edotaccent" unicode="&#x116;" horiz-adv-x="514" 
d="M147 721h392l-14 -74h-300l-41 -233h231l-14 -76h-231l-47 -262h320l-13 -76h-411zM368 775q-26 0 -40 17t-14 40q0 36 18 57.5t47 21.5q26 0 40.5 -18t14.5 -41q0 -35 -19.5 -56t-46.5 -21z" />
    <glyph glyph-name="edotaccent" unicode="&#x117;" horiz-adv-x="471" 
d="M135 277q11 -1 29.5 -1.5t38.5 -0.5q30 0 58 8t49.5 23.5t34.5 38t13 51.5q0 58 -66 58q-30 0 -55 -15t-45.5 -40t-35 -57t-21.5 -65zM126 219q-1 -9 -1 -18v-14q0 -66 27 -101t83 -35q37 0 63.5 10t49.5 21l20 -63q-27 -14 -62 -25.5t-82 -11.5q-51 0 -87 15.5
t-58.5 41.5t-33 61.5t-10.5 74.5q0 66 19 128t54 110t85 77t113 29q39 0 65.5 -9.5t42.5 -24.5t22.5 -35t6.5 -41q0 -46 -18.5 -82t-51 -60.5t-77 -37.5t-96.5 -13q-14 0 -32 0.5t-42 2.5zM315 601q-26 0 -40 17t-14 40q0 36 18 57.5t47 21.5q26 0 40.5 -18t14.5 -41
q0 -35 -19.5 -56t-46.5 -21z" />
    <glyph glyph-name="Eogonek" unicode="&#x118;" horiz-adv-x="514" 
d="M147 721h392l-14 -74h-300l-41 -233h231l-14 -76h-231l-47 -262h320l-13 -76h-62q-35 -39 -56 -68t-21 -54q0 -20 15.5 -33t62.5 -25l-24 -50q-39 7 -65 15t-42 19.5t-23 26.5t-7 37q0 15 7.5 31.5t20 33.5t28 34t32.5 33h-277z" />
    <glyph glyph-name="eogonek" unicode="&#x119;" horiz-adv-x="471" 
d="M135 277q11 -1 29.5 -1.5t38.5 -0.5q30 0 58 8t49.5 23.5t34.5 38t13 51.5q0 58 -66 58q-30 0 -55 -15t-45.5 -40t-35 -57t-21.5 -65zM126 219q-1 -9 -1 -18v-14q0 -66 27 -101t83 -35q37 0 63.5 10t49.5 21l20 -63q-50 -53 -73 -84.5t-23 -56.5q0 -20 15.5 -33t62.5 -25
l-24 -50q-39 7 -65 16t-42 20t-23 25.5t-7 33.5q0 29 21.5 60.5t48.5 58.5q-8 -1 -17 -1.5t-18 -0.5q-51 0 -87 15.5t-58.5 41.5t-33 61.5t-10.5 74.5q0 66 19 128t54 110t85 77t113 29q39 0 65.5 -9.5t42.5 -24.5t22.5 -35t6.5 -41q0 -46 -18.5 -82t-51 -60.5t-77 -37.5
t-96.5 -13q-14 0 -32 0.5t-42 2.5z" />
    <glyph glyph-name="Ecaron" unicode="&#x11a;" horiz-adv-x="514" 
d="M147 721h392l-14 -74h-300l-41 -233h231l-14 -76h-231l-47 -262h320l-13 -76h-411zM250 916l51 21l65 -92l104 91l37 -27l-119 -136h-64z" />
    <glyph glyph-name="ecaron" unicode="&#x11b;" horiz-adv-x="471" 
d="M135 277q11 -1 29.5 -1.5t38.5 -0.5q30 0 58 8t49.5 23.5t34.5 38t13 51.5q0 58 -66 58q-30 0 -55 -15t-45.5 -40t-35 -57t-21.5 -65zM126 219q-1 -9 -1 -18v-14q0 -66 27 -101t83 -35q37 0 63.5 10t49.5 21l20 -63q-27 -14 -62 -25.5t-82 -11.5q-51 0 -87 15.5
t-58.5 41.5t-33 61.5t-10.5 74.5q0 66 19 128t54 110t85 77t113 29q39 0 65.5 -9.5t42.5 -24.5t22.5 -35t6.5 -41q0 -46 -18.5 -82t-51 -60.5t-77 -37.5t-96.5 -13q-14 0 -32 0.5t-42 2.5zM201 753l50 21l68 -119l113 118l38 -27l-126 -171h-68z" />
    <glyph glyph-name="Gcircumflex" unicode="&#x11c;" horiz-adv-x="613" 
d="M460 302h-128l14 74h215l-58 -325q-17 -12 -41 -24.5t-52.5 -22t-60 -16t-64.5 -6.5q-70 0 -116.5 21t-74.5 59.5t-40 91.5t-12 117q0 106 28.5 192t78 147t116.5 93.5t143 32.5q50 0 91.5 -14.5t68.5 -36.5l-39 -63q-22 17 -54.5 28.5t-72.5 11.5q-58 0 -105.5 -29
t-81.5 -81.5t-53 -124.5t-19 -158q0 -44 7.5 -82t25 -67t46 -45.5t70.5 -16.5t75 10t57 24zM406 934h64l74 -143l-50 -21l-65 92l-104 -91l-38 27z" />
    <glyph glyph-name="gcircumflex" unicode="&#x11d;" horiz-adv-x="531" 
d="M32 -121q26 -14 58 -24.5t70 -10.5q37 0 62 8.5t41.5 25t25.5 41.5t15 59l12 67q-20 -24 -53 -43.5t-84 -19.5q-69 0 -109 47t-40 139q0 86 22.5 151.5t59 110t83.5 67t95 22.5q45 0 73.5 -17.5t43.5 -38.5l33 55l66 -32l-42 -88l-73 -420q-18 -105 -72.5 -154
t-157.5 -49q-49 0 -92 12t-69 29zM380 403q-8 20 -31 37.5t-55 17.5q-30 0 -61 -18.5t-56 -54t-40.5 -87.5t-15.5 -118q0 -61 18 -94t64 -33q18 0 39 7.5t41 23.5t36 41t22 60zM310 774h68l75 -178l-50 -21l-68 119l-113 -118l-38 27z" />
    <glyph glyph-name="Gbreve" unicode="&#x11e;" horiz-adv-x="613" 
d="M460 302h-128l14 74h215l-58 -325q-17 -12 -41 -24.5t-52.5 -22t-60 -16t-64.5 -6.5q-70 0 -116.5 21t-74.5 59.5t-40 91.5t-12 117q0 106 28.5 192t78 147t116.5 93.5t143 32.5q50 0 91.5 -14.5t68.5 -36.5l-39 -63q-22 17 -54.5 28.5t-72.5 11.5q-58 0 -105.5 -29
t-81.5 -81.5t-53 -124.5t-19 -158q0 -44 7.5 -82t25 -67t46 -45.5t70.5 -16.5t75 10t57 24zM334 909q11 -33 28.5 -47.5t47.5 -14.5q65 0 94 62l53 -18q-23 -57 -63.5 -84.5t-88.5 -27.5q-20 0 -40.5 5t-38.5 17t-31.5 33.5t-18.5 54.5z" />
    <glyph glyph-name="gbreve" unicode="&#x11f;" horiz-adv-x="531" 
d="M32 -121q26 -14 58 -24.5t70 -10.5q37 0 62 8.5t41.5 25t25.5 41.5t15 59l12 67q-20 -24 -53 -43.5t-84 -19.5q-69 0 -109 47t-40 139q0 86 22.5 151.5t59 110t83.5 67t95 22.5q45 0 73.5 -17.5t43.5 -38.5l33 55l66 -32l-42 -88l-73 -420q-18 -105 -72.5 -154
t-157.5 -49q-49 0 -92 12t-69 29zM380 403q-8 20 -31 37.5t-55 17.5q-30 0 -61 -18.5t-56 -54t-40.5 -87.5t-15.5 -118q0 -61 18 -94t64 -33q18 0 39 7.5t41 23.5t36 41t22 60zM255 721q11 -33 28.5 -47.5t47.5 -14.5q65 0 94 62l53 -18q-23 -57 -63.5 -84.5t-88.5 -27.5
q-20 0 -40.5 5t-38.5 17t-31.5 33.5t-18.5 54.5z" />
    <glyph glyph-name="Gdotaccent" unicode="&#x120;" horiz-adv-x="613" 
d="M460 302h-128l14 74h215l-58 -325q-17 -12 -41 -24.5t-52.5 -22t-60 -16t-64.5 -6.5q-70 0 -116.5 21t-74.5 59.5t-40 91.5t-12 117q0 106 28.5 192t78 147t116.5 93.5t143 32.5q50 0 91.5 -14.5t68.5 -36.5l-39 -63q-22 17 -54.5 28.5t-72.5 11.5q-58 0 -105.5 -29
t-81.5 -81.5t-53 -124.5t-19 -158q0 -44 7.5 -82t25 -67t46 -45.5t70.5 -16.5t75 10t57 24zM408 775q-26 0 -40 17t-14 40q0 36 18 57.5t47 21.5q26 0 40.5 -18t14.5 -41q0 -35 -19.5 -56t-46.5 -21z" />
    <glyph glyph-name="gdotaccent" unicode="&#x121;" horiz-adv-x="531" 
d="M32 -121q26 -14 58 -24.5t70 -10.5q37 0 62 8.5t41.5 25t25.5 41.5t15 59l12 67q-20 -24 -53 -43.5t-84 -19.5q-69 0 -109 47t-40 139q0 86 22.5 151.5t59 110t83.5 67t95 22.5q45 0 73.5 -17.5t43.5 -38.5l33 55l66 -32l-42 -88l-73 -420q-18 -105 -72.5 -154
t-157.5 -49q-49 0 -92 12t-69 29zM380 403q-8 20 -31 37.5t-55 17.5q-30 0 -61 -18.5t-56 -54t-40.5 -87.5t-15.5 -118q0 -61 18 -94t64 -33q18 0 39 7.5t41 23.5t36 41t22 60zM319 601q-26 0 -40 17t-14 40q0 36 18 57.5t47 21.5q26 0 40.5 -18t14.5 -41q0 -35 -19.5 -56
t-46.5 -21z" />
    <glyph glyph-name="Gcommaaccent" unicode="&#x122;" horiz-adv-x="613" 
d="M460 302h-128l14 74h215l-58 -325q-17 -12 -41 -24.5t-52.5 -22t-60 -16t-64.5 -6.5q-70 0 -116.5 21t-74.5 59.5t-40 91.5t-12 117q0 106 28.5 192t78 147t116.5 93.5t143 32.5q50 0 91.5 -14.5t68.5 -36.5l-39 -63q-22 17 -54.5 28.5t-72.5 11.5q-58 0 -105.5 -29
t-81.5 -81.5t-53 -124.5t-19 -158q0 -44 7.5 -82t25 -67t46 -45.5t70.5 -16.5t75 10t57 24zM253 -72l86 -22l-90 -176l-55 17z" />
    <glyph glyph-name="gcommaaccent" unicode="&#x123;" horiz-adv-x="531" 
d="M32 -121q26 -14 58 -24.5t70 -10.5q37 0 62 8.5t41.5 25t25.5 41.5t15 59l12 67q-20 -24 -53 -43.5t-84 -19.5q-69 0 -109 47t-40 139q0 86 22.5 151.5t59 110t83.5 67t95 22.5q45 0 73.5 -17.5t43.5 -38.5l33 55l66 -32l-42 -88l-73 -420q-18 -105 -72.5 -154
t-157.5 -49q-49 0 -92 12t-69 29zM380 403q-8 20 -31 37.5t-55 17.5q-30 0 -61 -18.5t-56 -54t-40.5 -87.5t-15.5 -118q0 -61 18 -94t64 -33q18 0 39 7.5t41 23.5t36 41t22 60zM350 771l55 -17l-59 -181l-86 22z" />
    <glyph glyph-name="Hcircumflex" unicode="&#x124;" horiz-adv-x="644" 
d="M147 721h91l-54 -307h297l54 307h91l-128 -721h-91l60 338h-297l-60 -338h-91zM401 934h64l74 -143l-50 -21l-65 92l-104 -91l-38 27z" />
    <glyph glyph-name="hcircumflex" unicode="&#x125;" horiz-adv-x="552" 
d="M153 736h85l-51 -285q12 11 28 23t36 22t44 16.5t52 6.5q66 0 96.5 -36.5t30.5 -93.5q0 -14 -2.5 -39t-5.5 -42l-54 -308h-86l50 286l3 18t4 25.5t3.5 26.5t1.5 21q0 33 -16 51t-54 18q-26 0 -51.5 -9.5t-47 -27t-36.5 -43t-21 -57.5l-54 -309h-86zM275 934h64l74 -143
l-50 -21l-65 92l-104 -91l-38 27z" />
    <glyph glyph-name="Hbar" unicode="&#x126;" horiz-adv-x="664" 
d="M123 532h-66l12 65h66l22 124h91l-22 -124h297l22 124h91l-22 -124h65l-12 -65h-65l-94 -532h-91l60 338h-297l-60 -338h-91zM491 414l21 118h-297l-21 -118h297z" />
    <glyph glyph-name="hbar" unicode="&#x127;" horiz-adv-x="552" 
d="M153 736h85l-16 -89h155l-11 -68h-156l-26 -147q27 28 66 48t98 20q63 0 93 -36.5t30 -93.5q0 -14 -2.5 -39t-5.5 -42l-51 -289h-86l47 267l3 18t4 25.5t3.5 26.5t1.5 21q0 33 -16 51t-54 18q-26 0 -51.5 -9.5t-47 -27t-36.5 -43t-21 -57.5l-51 -290h-86l103 579h-56
l11 68h57z" />
    <glyph glyph-name="Itilde" unicode="&#x128;" horiz-adv-x="256" 
d="M147 721h91l-128 -721h-91zM28 785q10 60 34 91t67 31q17 0 34.5 -6.5t33.5 -13.5l39 -17q16 -7 29 -12t24 -5q18 0 29.5 11.5t16.5 44.5l51 -7q-10 -60 -34 -91t-67 -31q-17 0 -34.5 6t-33.5 13l-39 17q-16 7 -29 12.5t-24 5.5q-18 0 -29.5 -11.5t-16.5 -44.5z" />
    <glyph glyph-name="itilde" unicode="&#x129;" horiz-adv-x="254" 
d="M104 435h-58l12 66h144l-88 -501h-86zM-31 607q10 60 34 91t67 31q17 0 34.5 -6.5t33.5 -13.5l39 -17q16 -7 29 -12t24 -5q18 0 29.5 11.5t16.5 44.5l51 -7q-10 -60 -34 -91t-67 -31q-17 0 -34.5 6t-33.5 13l-39 17q-16 7 -29 12.5t-24 5.5q-18 0 -29.5 -11.5
t-16.5 -44.5z" />
    <glyph glyph-name="Imacron" unicode="&#x12a;" horiz-adv-x="256" 
d="M147 721h91l-128 -721h-91zM66 864h289l-13 -75h-289z" />
    <glyph glyph-name="imacron" unicode="&#x12b;" horiz-adv-x="254" 
d="M104 435h-58l12 66h144l-88 -501h-86zM16 688h289l-13 -73h-289z" />
    <glyph glyph-name="Ibreve" unicode="&#x12c;" horiz-adv-x="256" 
d="M147 721h91l-128 -721h-91zM136 909q11 -33 28.5 -47.5t47.5 -14.5q65 0 94 62l53 -18q-23 -57 -63.5 -84.5t-88.5 -27.5q-20 0 -40.5 5t-38.5 17t-31.5 33.5t-18.5 54.5z" />
    <glyph glyph-name="ibreve" unicode="&#x12d;" horiz-adv-x="254" 
d="M104 435h-58l12 66h144l-88 -501h-86zM92 721q11 -33 28.5 -47.5t47.5 -14.5q65 0 94 62l53 -18q-23 -57 -63.5 -84.5t-88.5 -27.5q-20 0 -40.5 5t-38.5 17t-31.5 33.5t-18.5 54.5z" />
    <glyph glyph-name="Iogonek" unicode="&#x12e;" horiz-adv-x="256" 
d="M147 721h91l-128 -721q-41 -45 -60.5 -71t-19.5 -51q0 -20 15.5 -33t62.5 -25l-24 -50q-39 7 -65 15t-42 19t-23 25.5t-7 34.5q0 17 6.5 34t16.5 34t23 34l26 34z" />
    <glyph glyph-name="iogonek" unicode="&#x12f;" horiz-adv-x="254" 
d="M104 435h-58l12 66h144l-88 -501q-41 -41 -61 -68.5t-20 -53.5q0 -20 15.5 -33t62.5 -25l-24 -50q-39 7 -65 15t-42 19.5t-23 26.5t-7 37q0 15 7 31.5t18 33t25 33.5l28 34zM172 594q-26 0 -38.5 18t-12.5 41q0 33 19.5 54.5t48.5 21.5q26 0 39 -19.5t13 -42.5
q0 -33 -20.5 -53t-48.5 -20z" />
    <glyph glyph-name="Idotaccent" unicode="&#x130;" horiz-adv-x="256" 
d="M147 721h91l-128 -721h-91zM211 775q-26 0 -40 17t-14 40q0 36 18 57.5t47 21.5q26 0 40.5 -18t14.5 -41q0 -35 -19.5 -56t-46.5 -21z" />
    <glyph glyph-name="dotlessi" unicode="&#x131;" horiz-adv-x="254" 
d="M104 435h-58l12 66h144l-88 -501h-86z" />
    <glyph glyph-name="IJ" unicode="&#x132;" horiz-adv-x="699" 
d="M147 721h91l-128 -721h-91zM256 90q24 -14 51 -22.5t62 -8.5q34 0 56 9t35.5 26t21.5 42.5t14 58.5l94 526h91l-95 -539q-10 -55 -27 -93t-43 -62t-61.5 -34.5t-81.5 -10.5q-57 0 -95 13t-57 27z" />
    <glyph glyph-name="ij" unicode="&#x133;" horiz-adv-x="522" 
d="M104 435h-58l12 66h144l-88 -501h-86zM172 594q-26 0 -38.5 18t-12.5 41q0 33 19.5 54.5t48.5 21.5q26 0 39 -19.5t13 -42.5q0 -33 -20.5 -53t-48.5 -20zM114 -137q13 -8 32.5 -13.5t44.5 -5.5q26 0 43 10t28 28t18 42.5t12 53.5l91 523h87l-95 -540q-7 -41 -19.5 -75
t-33.5 -59t-52.5 -38.5t-76.5 -13.5q-35 0 -64.5 7.5t-46.5 19.5zM440 594q-26 0 -38.5 18t-12.5 41q0 33 19.5 54.5t48.5 21.5q26 0 39 -19.5t13 -42.5q0 -33 -20.5 -53t-48.5 -20z" />
    <glyph glyph-name="Jcircumflex" unicode="&#x134;" horiz-adv-x="428" 
d="M-15 90q24 -14 51 -22.5t62 -8.5q34 0 56 9t35.5 26t21.5 42.5t14 58.5l94 526h91l-95 -539q-10 -55 -27 -93t-43 -62t-61.5 -34.5t-81.5 -10.5q-57 0 -95 13t-57 27zM363 934h64l74 -143l-50 -21l-65 92l-104 -91l-38 27z" />
    <glyph glyph-name="jcircumflex" unicode="&#x135;" horiz-adv-x="249" 
d="M-159 -137q13 -8 32.5 -13.5t44.5 -5.5q26 0 43 10t28 28t18 42.5t12 53.5l91 523h87l-95 -540q-7 -41 -19.5 -75t-33.5 -59t-52.5 -38.5t-76.5 -13.5q-35 0 -64.5 7.5t-46.5 19.5zM161 774h68l75 -178l-50 -21l-68 119l-113 -118l-38 27z" />
    <glyph glyph-name="Kcommaaccent" unicode="&#x136;" horiz-adv-x="556" 
d="M147 721h91l-56 -315h43q23 0 34 4.5t22 18.5l244 300l81 -18l-273 -338l164 -362l-94 -20l-139 312q-8 19 -18 23t-24 4h-53l-59 -330h-91zM204 -72l86 -22l-90 -176l-55 17z" />
    <glyph glyph-name="kcommaaccent" unicode="&#x137;" horiz-adv-x="472" 
d="M153 736h85l-75 -423h23q14 0 20 3.5t18 16.5l168 179l75 -21l-189 -205l139 -275l-88 -22l-110 226q-9 18 -18 24t-24 6h-26l-43 -245h-86zM167 -72l86 -22l-90 -176l-55 17z" />
    <glyph glyph-name="kgreenlandic" unicode="&#x138;" horiz-adv-x="481" 
d="M131 501h85l-37 -209h21q14 0 23.5 4.5t18.5 15.5l170 200l74 -21l-196 -232l142 -249l-86 -21l-115 205q-11 19 -19.5 24.5t-22.5 5.5h-22l-40 -224h-86z" />
    <glyph glyph-name="Lacute" unicode="&#x139;" horiz-adv-x="515" 
d="M147 721h91l-114 -645h336l-14 -76h-427zM316 961l56 -66l-188 -128l-36 40z" />
    <glyph glyph-name="lacute" unicode="&#x13a;" horiz-adv-x="249" 
d="M93 736h145l-129 -736h-86l117 670h-59zM283 961l56 -66l-188 -128l-36 40z" />
    <glyph glyph-name="Lcommaaccent" unicode="&#x13b;" horiz-adv-x="515" 
d="M147 721h91l-114 -645h336l-14 -76h-427zM209 -72l86 -22l-90 -176l-55 17z" />
    <glyph glyph-name="lcommaaccent" unicode="&#x13c;" horiz-adv-x="249" 
d="M93 736h145l-129 -736h-86l117 670h-59zM14 -72l86 -22l-90 -176l-55 17z" />
    <glyph glyph-name="Lcaron" unicode="&#x13d;" horiz-adv-x="515" 
d="M147 721h91l-114 -645h336l-14 -76h-427zM371 723h85l-79 -229h-51z" />
    <glyph glyph-name="lcaron" unicode="&#x13e;" horiz-adv-x="326" 
d="M93 736h145l-129 -736h-86l117 670h-59zM326 736h85l-79 -229h-51z" />
    <glyph glyph-name="Ldot" unicode="&#x13f;" horiz-adv-x="515" 
d="M147 721h91l-114 -645h336l-14 -76h-427zM370 304q-26 0 -40 17t-14 40q0 36 18 57.5t47 21.5q26 0 40.5 -18t14.5 -41q0 -35 -19.5 -56t-46.5 -21z" />
    <glyph glyph-name="ldot" unicode="&#x140;" horiz-adv-x="362" 
d="M93 736h145l-129 -736h-86l117 670h-59zM298 277q-26 0 -40 17t-14 40q0 36 18 57.5t47 21.5q26 0 40.5 -18t14.5 -41q0 -35 -19.5 -56t-46.5 -21z" />
    <glyph glyph-name="Lslash" unicode="&#x141;" horiz-adv-x="520" 
d="M162 721h91l-58 -325l207 56l-12 -76l-208 -56l-43 -244h336l-14 -76h-427l52 294l-67 -18l12 76l68 18z" />
    <glyph glyph-name="lslash" unicode="&#x142;" horiz-adv-x="323" 
d="M125 736h145l-55 -312l100 27l-12 -76l-101 -27l-61 -348h-86l56 323l-101 -27l12 76l103 27l47 271h-59z" />
    <glyph glyph-name="Nacute" unicode="&#x143;" horiz-adv-x="651" 
d="M146 721h93l181 -612q4 -14 5.5 -18.5t6.5 -4.5t6 3.5t3 11.5l111 620h81l-110 -621q-11 -60 -36.5 -83.5t-69.5 -23.5q-27 0 -47 14t-33 58l-141 484l-96 -549h-81zM510 961l56 -66l-188 -128l-36 40z" />
    <glyph glyph-name="nacute" unicode="&#x144;" horiz-adv-x="552" 
d="M93 404l-24 79l72 35l33 -76q11 13 27 26.5t37 24.5t47.5 18.5t58.5 7.5q34 0 58.5 -9.5t40.5 -26.5t23.5 -40t7.5 -50q0 -9 -1 -21.5t-2.5 -26t-3 -26.5t-3.5 -23l-53 -296h-86l51 285q1 9 3.5 22t4 27t3 26t1.5 20q0 66 -70 66q-29 0 -55 -10.5t-47 -29t-35 -45
t-20 -59.5l-53 -302h-86zM396 797l66 -56l-165 -159l-42 34z" />
    <glyph glyph-name="Ncommaaccent" unicode="&#x145;" horiz-adv-x="651" 
d="M146 721h93l181 -612q4 -14 5.5 -18.5t6.5 -4.5t6 3.5t3 11.5l111 620h81l-110 -621q-11 -60 -36.5 -83.5t-69.5 -23.5q-27 0 -47 14t-33 58l-141 484l-96 -549h-81zM237 -72l86 -22l-90 -176l-55 17z" />
    <glyph glyph-name="ncommaaccent" unicode="&#x146;" horiz-adv-x="552" 
d="M93 404l-24 79l72 35l33 -76q11 13 27 26.5t37 24.5t47.5 18.5t58.5 7.5q34 0 58.5 -9.5t40.5 -26.5t23.5 -40t7.5 -50q0 -9 -1 -21.5t-2.5 -26t-3 -26.5t-3.5 -23l-53 -296h-86l51 285q1 9 3.5 22t4 27t3 26t1.5 20q0 66 -70 66q-29 0 -55 -10.5t-47 -29t-35 -45
t-20 -59.5l-53 -302h-86zM172 -72l86 -22l-90 -176l-55 17z" />
    <glyph glyph-name="Ncaron" unicode="&#x147;" horiz-adv-x="651" 
d="M146 721h93l181 -612q4 -14 5.5 -18.5t6.5 -4.5t6 3.5t3 11.5l111 620h81l-110 -621q-11 -60 -36.5 -83.5t-69.5 -23.5q-27 0 -47 14t-33 58l-141 484l-96 -549h-81zM288 916l51 21l65 -92l104 91l37 -27l-119 -136h-64z" />
    <glyph glyph-name="ncaron" unicode="&#x148;" horiz-adv-x="552" 
d="M93 404l-24 79l72 35l33 -76q11 13 27 26.5t37 24.5t47.5 18.5t58.5 7.5q34 0 58.5 -9.5t40.5 -26.5t23.5 -40t7.5 -50q0 -9 -1 -21.5t-2.5 -26t-3 -26.5t-3.5 -23l-53 -296h-86l51 285q1 9 3.5 22t4 27t3 26t1.5 20q0 66 -70 66q-29 0 -55 -10.5t-47 -29t-35 -45
t-20 -59.5l-53 -302h-86zM215 753l50 21l68 -119l113 118l38 -27l-126 -171h-68z" />
    <glyph glyph-name="napostrophe" unicode="&#x149;" horiz-adv-x="568" 
d="M109 404l-24 79l72 35l33 -76q11 13 27 26.5t37 24.5t47.5 18.5t58.5 7.5q34 0 58.5 -9.5t40.5 -26.5t23.5 -40t7.5 -50q0 -9 -1 -21.5t-2.5 -26t-3 -26.5t-3.5 -23l-53 -296h-86l51 285q1 9 3.5 22t4 27t3 26t1.5 20q0 66 -70 66q-29 0 -55 -10.5t-47 -29t-35 -45
t-20 -59.5l-53 -302h-86zM109 783l92 -21l-104 -230l-63 16z" />
    <glyph glyph-name="Eng" unicode="&#x14a;" horiz-adv-x="651" 
d="M146 721h93l181 -612q4 -14 5.5 -18.5t6.5 -4.5t6 3.5t3 11.5l111 620h81l-129 -722q-20 -112 -72.5 -169t-146.5 -57q-56 0 -93.5 13t-56.5 27l35 68q24 -14 51 -22.5t62 -8.5q36 0 59 11.5t37 30.5t21.5 43.5t12.5 50.5l1 7q-27 2 -46.5 16t-31.5 56l-142 477l-94 -542
h-81z" />
    <glyph glyph-name="eng" unicode="&#x14b;" horiz-adv-x="552" 
d="M93 404l-24 79l72 35l33 -76q25 31 66 54t110 23q63 0 93.5 -36t30.5 -90q0 -9 -1 -21.5t-2.5 -26t-3 -26.5t-3.5 -23l-60 -335q-6 -35 -19.5 -68.5t-36 -59.5t-55.5 -42t-78 -16q-26 0 -53.5 5t-50.5 22l33 62q14 -8 32 -14t44 -6t43.5 12.5t29 32t18 43.5t10.5 46
l55 307q1 9 3.5 22t4 27t3 26t1.5 20q0 66 -70 66q-29 0 -55 -10.5t-47 -29t-35 -45t-20 -59.5l-53 -302h-86z" />
    <glyph glyph-name="Omacron" unicode="&#x14c;" horiz-adv-x="668" 
d="M270 -18q-62 0 -106 20.5t-72 57t-41 86.5t-13 110q0 99 25.5 186t72 152.5t111 103.5t142.5 38q60 0 105 -20.5t74 -57t43.5 -86.5t14.5 -110q0 -102 -25 -189.5t-71.5 -152t-112 -101.5t-147.5 -37zM279 57q60 0 106 34t77.5 91t47.5 131.5t16 155.5q0 89 -35 140.5
t-108 51.5q-60 0 -106 -34t-77 -91t-46.5 -131.5t-15.5 -155.5q0 -89 35 -140.5t106 -51.5zM278 864h289l-13 -75h-289z" />
    <glyph glyph-name="omacron" unicode="&#x14d;" horiz-adv-x="534" 
d="M215 47q42 0 73.5 24.5t52 64.5t30.5 91t10 103q0 59 -25 91.5t-73 32.5q-42 0 -73.5 -24.5t-52 -64.5t-30.5 -91t-10 -103q0 -57 23.5 -90.5t74.5 -33.5zM206 -18q-48 0 -82 16.5t-55.5 44.5t-31.5 64t-10 75q0 85 22.5 148.5t59 105.5t84.5 62.5t99 20.5q48 0 82 -16.5
t55.5 -44.5t31.5 -64t10 -75q0 -85 -22 -148.5t-58.5 -105.5t-84.5 -62.5t-100 -20.5zM176 688h289l-13 -73h-289z" />
    <glyph glyph-name="Obreve" unicode="&#x14e;" horiz-adv-x="668" 
d="M270 -18q-62 0 -106 20.5t-72 57t-41 86.5t-13 110q0 99 25.5 186t72 152.5t111 103.5t142.5 38q60 0 105 -20.5t74 -57t43.5 -86.5t14.5 -110q0 -102 -25 -189.5t-71.5 -152t-112 -101.5t-147.5 -37zM279 57q60 0 106 34t77.5 91t47.5 131.5t16 155.5q0 89 -35 140.5
t-108 51.5q-60 0 -106 -34t-77 -91t-46.5 -131.5t-15.5 -155.5q0 -89 35 -140.5t106 -51.5zM345 909q11 -33 28.5 -47.5t47.5 -14.5q65 0 94 62l53 -18q-23 -57 -63.5 -84.5t-88.5 -27.5q-20 0 -40.5 5t-38.5 17t-31.5 33.5t-18.5 54.5z" />
    <glyph glyph-name="obreve" unicode="&#x14f;" horiz-adv-x="534" 
d="M215 47q42 0 73.5 24.5t52 64.5t30.5 91t10 103q0 59 -25 91.5t-73 32.5q-42 0 -73.5 -24.5t-52 -64.5t-30.5 -91t-10 -103q0 -57 23.5 -90.5t74.5 -33.5zM206 -18q-48 0 -82 16.5t-55.5 44.5t-31.5 64t-10 75q0 85 22.5 148.5t59 105.5t84.5 62.5t99 20.5q48 0 82 -16.5
t55.5 -44.5t31.5 -64t10 -75q0 -85 -22 -148.5t-58.5 -105.5t-84.5 -62.5t-100 -20.5zM239 721q11 -33 28.5 -47.5t47.5 -14.5q65 0 94 62l53 -18q-23 -57 -63.5 -84.5t-88.5 -27.5q-20 0 -40.5 5t-38.5 17t-31.5 33.5t-18.5 54.5z" />
    <glyph glyph-name="Ohungarumlaut" unicode="&#x150;" horiz-adv-x="668" 
d="M270 -18q-62 0 -106 20.5t-72 57t-41 86.5t-13 110q0 99 25.5 186t72 152.5t111 103.5t142.5 38q60 0 105 -20.5t74 -57t43.5 -86.5t14.5 -110q0 -102 -25 -189.5t-71.5 -152t-112 -101.5t-147.5 -37zM279 57q60 0 106 34t77.5 91t47.5 131.5t16 155.5q0 89 -35 140.5
t-108 51.5q-60 0 -106 -34t-77 -91t-46.5 -131.5t-15.5 -155.5q0 -89 35 -140.5t106 -51.5zM406 957l56 -58l-158 -136l-36 33zM585 957l56 -58l-158 -136l-36 33z" />
    <glyph glyph-name="ohungarumlaut" unicode="&#x151;" horiz-adv-x="534" 
d="M215 47q42 0 73.5 24.5t52 64.5t30.5 91t10 103q0 59 -25 91.5t-73 32.5q-42 0 -73.5 -24.5t-52 -64.5t-30.5 -91t-10 -103q0 -57 23.5 -90.5t74.5 -33.5zM206 -18q-48 0 -82 16.5t-55.5 44.5t-31.5 64t-10 75q0 85 22.5 148.5t59 105.5t84.5 62.5t99 20.5q48 0 82 -16.5
t55.5 -44.5t31.5 -64t10 -75q0 -85 -22 -148.5t-58.5 -105.5t-84.5 -62.5t-100 -20.5zM319 797l63 -54l-163 -160l-41 33zM494 797l63 -54l-163 -160l-41 33z" />
    <glyph glyph-name="OE" unicode="&#x152;" horiz-adv-x="961" 
d="M467 64q-12 -15 -32 -29.5t-45.5 -26.5t-56.5 -19t-65 -7q-60 0 -103.5 20.5t-71.5 58t-41.5 89.5t-13.5 115q0 95 25.5 180.5t72 150t111 102.5t142.5 38q66 0 112 -24t70 -62l13 71h402l-14 -74h-310l-41 -233h231l-14 -76h-231l-47 -262h320l-13 -76h-411zM554 554
q-3 19 -17 38t-36 34.5t-50 25t-60 9.5q-62 0 -109.5 -34t-79.5 -91t-48 -131.5t-16 -155.5q0 -89 35.5 -140.5t110.5 -51.5q36 0 69 10.5t60 28.5t47.5 42t30.5 51z" />
    <glyph glyph-name="oe" unicode="&#x153;" horiz-adv-x="810" 
d="M214 47q44 0 76 24.5t53 64.5t31 91t10 103q0 59 -24.5 91.5t-69.5 32.5q-44 0 -76 -24.5t-53 -64.5t-31 -91t-10 -103q0 -59 24.5 -91.5t69.5 -32.5zM474 277q11 -1 29.5 -1.5t38.5 -0.5q30 0 58 8t49.5 23.5t34.5 38t13 51.5q0 58 -66 58q-30 0 -55 -15t-45.5 -40
t-35 -57t-21.5 -65zM707 19q-27 -14 -62 -25.5t-82 -11.5q-35 0 -62 8t-47.5 21t-34.5 30t-22 35q-34 -44 -80.5 -69t-102.5 -25q-50 0 -85 16.5t-57 44.5t-32 64t-10 75q0 85 23 148.5t60 105.5t83.5 62.5t93.5 20.5q33 0 58 -8t44.5 -21.5t33.5 -32.5t25 -41
q37 46 84 74.5t110 28.5q39 0 65.5 -9.5t42.5 -24.5t22.5 -35t6.5 -41q0 -46 -18.5 -82t-51 -60.5t-77 -37.5t-96.5 -13q-14 0 -32 0.5t-42 2.5q-1 -9 -1 -18v-14q0 -66 27 -101t83 -35q37 0 63.5 10t49.5 21z" />
    <glyph glyph-name="Racute" unicode="&#x154;" horiz-adv-x="569" 
d="M147 721h197q41 0 76.5 -8.5t62 -27t41.5 -48.5t15 -73q0 -51 -14 -90t-38.5 -68t-57 -48t-69.5 -31q19 -13 28.5 -28t18.5 -39l94 -254l-91 -21l-95 254q-8 20 -15.5 33.5t-18.5 21.5t-27 11.5t-39 3.5h-50l-55 -309h-91zM273 383q36 0 67.5 10t54.5 30t36 50.5t13 72.5
q0 30 -9 50t-26 32t-40.5 16.5t-52.5 4.5h-91l-48 -266h96zM443 961l56 -66l-188 -128l-36 40z" />
    <glyph glyph-name="racute" unicode="&#x155;" horiz-adv-x="357" 
d="M106 435h-58l12 66h121l4 -65q23 30 59 50.5t80 20.5q21 0 34 -2.5t24 -7.5l-36 -83q-9 5 -21.5 7.5t-29.5 2.5q-18 0 -38 -6.5t-37 -19.5t-30 -32.5t-17 -45.5l-57 -320h-86zM337 797l66 -56l-165 -159l-42 34z" />
    <glyph glyph-name="Rcommaaccent" unicode="&#x156;" horiz-adv-x="569" 
d="M147 721h197q41 0 76.5 -8.5t62 -27t41.5 -48.5t15 -73q0 -51 -14 -90t-38.5 -68t-57 -48t-69.5 -31q19 -13 28.5 -28t18.5 -39l94 -254l-91 -21l-95 254q-8 20 -15.5 33.5t-18.5 21.5t-27 11.5t-39 3.5h-50l-55 -309h-91zM273 383q36 0 67.5 10t54.5 30t36 50.5t13 72.5
q0 30 -9 50t-26 32t-40.5 16.5t-52.5 4.5h-91l-48 -266h96zM203 -72l86 -22l-90 -176l-55 17z" />
    <glyph glyph-name="rcommaaccent" unicode="&#x157;" horiz-adv-x="357" 
d="M106 435h-58l12 66h121l4 -65q23 30 59 50.5t80 20.5q21 0 34 -2.5t24 -7.5l-36 -83q-9 5 -21.5 7.5t-29.5 2.5q-18 0 -38 -6.5t-37 -19.5t-30 -32.5t-17 -45.5l-57 -320h-86zM20 -72l86 -22l-90 -176l-55 17z" />
    <glyph glyph-name="Rcaron" unicode="&#x158;" horiz-adv-x="569" 
d="M147 721h197q41 0 76.5 -8.5t62 -27t41.5 -48.5t15 -73q0 -51 -14 -90t-38.5 -68t-57 -48t-69.5 -31q19 -13 28.5 -28t18.5 -39l94 -254l-91 -21l-95 254q-8 20 -15.5 33.5t-18.5 21.5t-27 11.5t-39 3.5h-50l-55 -309h-91zM273 383q36 0 67.5 10t54.5 30t36 50.5t13 72.5
q0 30 -9 50t-26 32t-40.5 16.5t-52.5 4.5h-91l-48 -266h96zM228 916l51 21l65 -92l104 91l37 -27l-119 -136h-64z" />
    <glyph glyph-name="rcaron" unicode="&#x159;" horiz-adv-x="357" 
d="M106 435h-58l12 66h121l4 -65q23 30 59 50.5t80 20.5q21 0 34 -2.5t24 -7.5l-36 -83q-9 5 -21.5 7.5t-29.5 2.5q-18 0 -38 -6.5t-37 -19.5t-30 -32.5t-17 -45.5l-57 -320h-86zM128 753l50 21l68 -119l113 118l38 -27l-126 -171h-68z" />
    <glyph glyph-name="Sacute" unicode="&#x15a;" horiz-adv-x="549" 
d="M34 109q35 -22 78 -37t101 -15q35 0 65.5 10.5t53.5 29t36 44.5t13 57q0 24 -6 42.5t-21.5 34.5t-42.5 31t-69 32q-35 14 -65 29.5t-52.5 37t-35.5 51t-13 71.5q0 46 18 84.5t51.5 66.5t80.5 43t105 15q73 0 122.5 -18t73.5 -37l-38 -61q-23 16 -63.5 30t-102.5 14
q-71 0 -111 -34t-40 -88q0 -26 6.5 -43.5t22.5 -32t44 -28.5t70 -32q78 -33 119.5 -74.5t41.5 -108.5q0 -51 -16.5 -95.5t-50 -76.5t-84 -50.5t-117.5 -18.5q-73 0 -126.5 18t-88.5 41zM453 961l56 -66l-188 -128l-36 40z" />
    <glyph glyph-name="sacute" unicode="&#x15b;" horiz-adv-x="419" 
d="M16 84q29 -16 63 -26t73 -10q52 0 82 24t30 66q0 16 -4 28.5t-14.5 23t-28.5 19.5t-45 19q-28 10 -50.5 21.5t-38.5 26.5t-25 36t-9 50q0 75 52.5 116t139.5 41q43 0 83.5 -11.5t63.5 -26.5l-32 -59q-20 11 -50 20.5t-61 9.5q-54 0 -83 -20.5t-29 -53.5q0 -15 4 -26.5
t14.5 -21.5t28.5 -19.5t46 -21.5q25 -11 47.5 -22t38.5 -26.5t25.5 -36.5t9.5 -50q0 -42 -14.5 -74t-40.5 -53.5t-61 -33t-77 -11.5q-57 0 -100 14t-65 28zM341 797l66 -56l-165 -159l-42 34z" />
    <glyph glyph-name="Scircumflex" unicode="&#x15c;" horiz-adv-x="549" 
d="M34 109q35 -22 78 -37t101 -15q35 0 65.5 10.5t53.5 29t36 44.5t13 57q0 24 -6 42.5t-21.5 34.5t-42.5 31t-69 32q-35 14 -65 29.5t-52.5 37t-35.5 51t-13 71.5q0 46 18 84.5t51.5 66.5t80.5 43t105 15q73 0 122.5 -18t73.5 -37l-38 -61q-23 16 -63.5 30t-102.5 14
q-71 0 -111 -34t-40 -88q0 -26 6.5 -43.5t22.5 -32t44 -28.5t70 -32q78 -33 119.5 -74.5t41.5 -108.5q0 -51 -16.5 -95.5t-50 -76.5t-84 -50.5t-117.5 -18.5q-73 0 -126.5 18t-88.5 41zM334 934h64l74 -143l-50 -21l-65 92l-104 -91l-38 27z" />
    <glyph glyph-name="scircumflex" unicode="&#x15d;" horiz-adv-x="419" 
d="M16 84q29 -16 63 -26t73 -10q52 0 82 24t30 66q0 16 -4 28.5t-14.5 23t-28.5 19.5t-45 19q-28 10 -50.5 21.5t-38.5 26.5t-25 36t-9 50q0 75 52.5 116t139.5 41q43 0 83.5 -11.5t63.5 -26.5l-32 -59q-20 11 -50 20.5t-61 9.5q-54 0 -83 -20.5t-29 -53.5q0 -15 4 -26.5
t14.5 -21.5t28.5 -19.5t46 -21.5q25 -11 47.5 -22t38.5 -26.5t25.5 -36.5t9.5 -50q0 -42 -14.5 -74t-40.5 -53.5t-61 -33t-77 -11.5q-57 0 -100 14t-65 28zM242 774h68l75 -178l-50 -21l-68 119l-113 -118l-38 27z" />
    <glyph glyph-name="Scedilla" unicode="&#x15e;" horiz-adv-x="549" 
d="M34 109q35 -22 78 -37t101 -15q35 0 65.5 10.5t53.5 29t36 44.5t13 57q0 24 -6 42t-21.5 33.5t-42.5 30.5t-69 32q-35 14 -65 29.5t-52.5 36.5t-35.5 50.5t-13 71.5q0 46 18 85t51.5 67.5t80.5 44t105 15.5q73 0 122.5 -18t73.5 -37l-38 -61q-23 16 -63.5 30t-102.5 14
q-71 0 -111 -33.5t-40 -86.5q0 -26 7.5 -44t24.5 -32.5t46 -28.5t71 -32q78 -33 116.5 -73.5t38.5 -107.5q0 -50 -15.5 -93t-46.5 -75.5t-77.5 -52t-108.5 -22.5l-12 -33q35 -4 57 -22.5t22 -53.5q0 -51 -34 -82.5t-96 -31.5q-58 0 -106 32l28 53q14 -10 33 -18t44 -8
q26 0 39.5 14t13.5 38q0 23 -20.5 31.5t-52.5 8.5l26 73q-59 5 -103 21t-74 36z" />
    <glyph glyph-name="scedilla" unicode="&#x15f;" horiz-adv-x="419" 
d="M17 80q59 -32 129 -32q57 0 87.5 24t30.5 66q0 16 -4 28.5t-14.5 22.5t-28.5 19t-45 19q-28 10 -50.5 21.5t-38.5 27t-25 36.5t-9 50q0 75 53 116t142 41q44 0 82.5 -11.5t61.5 -26.5l-32 -59q-20 11 -50 20.5t-61 9.5q-54 0 -83 -22t-29 -55q0 -14 4.5 -25t15 -21
t29 -19t47.5 -20q25 -10 47 -21t37.5 -26t24.5 -35.5t9 -49.5q0 -39 -13 -70.5t-36 -54t-55 -35t-70 -15.5l-12 -33q35 -4 57 -22.5t22 -53.5q0 -51 -34 -82.5t-96 -31.5q-58 0 -106 32l28 53q14 -10 33 -18t44 -8q26 0 39.5 14t13.5 38q0 23 -20.5 31.5t-52.5 8.5l26 73
q-43 5 -75.5 15.5t-50.5 22.5z" />
    <glyph glyph-name="Scaron" unicode="&#x160;" horiz-adv-x="549" 
d="M34 109q35 -22 78 -37t101 -15q35 0 65.5 10.5t53.5 29t36 44.5t13 57q0 24 -6 42.5t-21.5 34.5t-42.5 31t-69 32q-35 14 -65 29.5t-52.5 37t-35.5 51t-13 71.5q0 46 18 84.5t51.5 66.5t80.5 43t105 15q73 0 122.5 -18t73.5 -37l-38 -61q-23 16 -63.5 30t-102.5 14
q-71 0 -111 -34t-40 -88q0 -26 6.5 -43.5t22.5 -32t44 -28.5t70 -32q78 -33 119.5 -74.5t41.5 -108.5q0 -51 -16.5 -95.5t-50 -76.5t-84 -50.5t-117.5 -18.5q-73 0 -126.5 18t-88.5 41zM245 916l51 21l65 -92l104 91l37 -27l-119 -136h-64z" />
    <glyph glyph-name="scaron" unicode="&#x161;" horiz-adv-x="419" 
d="M16 84q29 -16 63 -26t73 -10q52 0 82 24t30 66q0 16 -4 28.5t-14.5 23t-28.5 19.5t-45 19q-28 10 -50.5 21.5t-38.5 26.5t-25 36t-9 50q0 75 52.5 116t139.5 41q43 0 83.5 -11.5t63.5 -26.5l-32 -59q-20 11 -50 20.5t-61 9.5q-54 0 -83 -20.5t-29 -53.5q0 -15 4 -26.5
t14.5 -21.5t28.5 -19.5t46 -21.5q25 -11 47.5 -22t38.5 -26.5t25.5 -36.5t9.5 -50q0 -42 -14.5 -74t-40.5 -53.5t-61 -33t-77 -11.5q-57 0 -100 14t-65 28zM144 753l50 21l68 -119l113 118l38 -27l-126 -171h-68z" />
    <glyph glyph-name="Tcommaaccent" unicode="&#x162;" horiz-adv-x="489" 
d="M247 647h-197l14 74h485l-14 -74h-197l-115 -647h-91zM124 -72l86 -22l-90 -176l-55 17z" />
    <glyph glyph-name="tcommaaccent" unicode="&#x163;" horiz-adv-x="350" 
d="M157 650h82l-27 -149h128l-12 -68h-126l-52 -283q-2 -8 -3 -21.5t-1 -21.5q0 -32 13.5 -44.5t35.5 -12.5q23 0 40 4.5t33 11.5l17 -61q-17 -9 -45.5 -16t-66.5 -7q-54 0 -84.5 24.5t-31.5 76.5q0 11 1.5 25t3.5 28l53 297h-85l12 68h88zM114 -72l86 -22l-90 -176l-55 17z
" />
    <glyph glyph-name="Tcaron" unicode="&#x164;" horiz-adv-x="489" 
d="M247 647h-197l14 74h485l-14 -74h-197l-115 -647h-91zM206 916l51 21l65 -92l104 91l37 -27l-119 -136h-64z" />
    <glyph glyph-name="tcaron" unicode="&#x165;" horiz-adv-x="350" 
d="M157 650h82l-27 -149h128l-12 -68h-126l-52 -283q-2 -8 -3 -21.5t-1 -21.5q0 -32 13.5 -44.5t35.5 -12.5q23 0 40 4.5t33 11.5l17 -61q-17 -9 -45.5 -16t-66.5 -7q-54 0 -84.5 24.5t-31.5 76.5q0 11 1.5 25t3.5 28l53 297h-85l12 68h88zM352 803h85l-79 -229h-51z" />
    <glyph glyph-name="Tbar" unicode="&#x166;" horiz-adv-x="489" 
d="M248 647h-197l14 74h485l-14 -74h-197l-44 -247h129l-12 -71h-130l-58 -329h-91l58 329h-124l12 71h125z" />
    <glyph glyph-name="tbar" unicode="&#x167;" horiz-adv-x="350" 
d="M157 650h82l-27 -149h128l-12 -68h-126l-23 -125h131l-11 -68h-133l-16 -90q-2 -8 -3 -21.5t-1 -21.5q0 -32 13.5 -44.5t35.5 -12.5q23 0 40 4.5t33 11.5l17 -61q-17 -9 -45.5 -16t-66.5 -7q-54 0 -84.5 24.5t-31.5 76.5q0 11 1.5 25t3.5 28l18 104h-81l11 68h82l23 125
h-85l12 68h88z" />
    <glyph glyph-name="Utilde" unicode="&#x168;" horiz-adv-x="641" 
d="M141 721h91l-74 -415q-7 -39 -11.5 -72t-4.5 -60q0 -58 25.5 -87.5t92.5 -29.5q46 0 78.5 14.5t54 43.5t35.5 72t24 100l78 434h91l-77 -435q-13 -72 -33.5 -128.5t-54.5 -95.5t-84 -59.5t-121 -20.5q-56 0 -94 12t-61.5 35.5t-34 58t-10.5 79.5q0 51 12 116zM215 785
q10 60 34 91t67 31q17 0 34.5 -6.5t33.5 -13.5l39 -17q16 -7 29 -12t24 -5q18 0 29.5 11.5t16.5 44.5l51 -7q-10 -60 -34 -91t-67 -31q-17 0 -34.5 6t-33.5 13l-39 17q-16 7 -29 12.5t-24 5.5q-18 0 -29.5 -11.5t-16.5 -44.5z" />
    <glyph glyph-name="utilde" unicode="&#x169;" horiz-adv-x="544" 
d="M111 501h86l-51 -285q-2 -9 -4 -22t-3.5 -27t-3 -26.5t-1.5 -19.5q0 -68 70 -68q57 0 94.5 34.5t51.5 111.5l53 302h86l-71 -404l33 -76l-71 -37l-42 72q-13 -14 -28 -27t-33.5 -23.5t-41.5 -17t-52 -6.5q-36 0 -62 9.5t-42 26.5t-23.5 40t-7.5 50q0 9 1 21.5t2.5 26
t3 26.5t3.5 23zM151 607q10 60 34 91t67 31q17 0 34.5 -6.5t33.5 -13.5l39 -17q16 -7 29 -12t24 -5q18 0 29.5 11.5t16.5 44.5l51 -7q-10 -60 -34 -91t-67 -31q-17 0 -34.5 6t-33.5 13l-39 17q-16 7 -29 12.5t-24 5.5q-18 0 -29.5 -11.5t-16.5 -44.5z" />
    <glyph glyph-name="Umacron" unicode="&#x16a;" horiz-adv-x="641" 
d="M141 721h91l-74 -415q-7 -39 -11.5 -72t-4.5 -60q0 -58 25.5 -87.5t92.5 -29.5q46 0 78.5 14.5t54 43.5t35.5 72t24 100l78 434h91l-77 -435q-13 -72 -33.5 -128.5t-54.5 -95.5t-84 -59.5t-121 -20.5q-56 0 -94 12t-61.5 35.5t-34 58t-10.5 79.5q0 51 12 116zM256 864
h289l-13 -75h-289z" />
    <glyph glyph-name="umacron" unicode="&#x16b;" horiz-adv-x="544" 
d="M111 501h86l-51 -285q-2 -9 -4 -22t-3.5 -27t-3 -26.5t-1.5 -19.5q0 -68 70 -68q57 0 94.5 34.5t51.5 111.5l53 302h86l-71 -404l33 -76l-71 -37l-42 72q-13 -14 -28 -27t-33.5 -23.5t-41.5 -17t-52 -6.5q-36 0 -62 9.5t-42 26.5t-23.5 40t-7.5 50q0 9 1 21.5t2.5 26
t3 26.5t3.5 23zM182 688h289l-13 -73h-289z" />
    <glyph glyph-name="Ubreve" unicode="&#x16c;" horiz-adv-x="641" 
d="M141 721h91l-74 -415q-7 -39 -11.5 -72t-4.5 -60q0 -58 25.5 -87.5t92.5 -29.5q46 0 78.5 14.5t54 43.5t35.5 72t24 100l78 434h91l-77 -435q-13 -72 -33.5 -128.5t-54.5 -95.5t-84 -59.5t-121 -20.5q-56 0 -94 12t-61.5 35.5t-34 58t-10.5 79.5q0 51 12 116zM324 909
q11 -33 28.5 -47.5t47.5 -14.5q65 0 94 62l53 -18q-23 -57 -63.5 -84.5t-88.5 -27.5q-20 0 -40.5 5t-38.5 17t-31.5 33.5t-18.5 54.5z" />
    <glyph glyph-name="ubreve" unicode="&#x16d;" horiz-adv-x="544" 
d="M111 501h86l-51 -285q-2 -9 -4 -22t-3.5 -27t-3 -26.5t-1.5 -19.5q0 -68 70 -68q57 0 94.5 34.5t51.5 111.5l53 302h86l-71 -404l33 -76l-71 -37l-42 72q-13 -14 -28 -27t-33.5 -23.5t-41.5 -17t-52 -6.5q-36 0 -62 9.5t-42 26.5t-23.5 40t-7.5 50q0 9 1 21.5t2.5 26
t3 26.5t3.5 23zM245 721q11 -33 28.5 -47.5t47.5 -14.5q65 0 94 62l53 -18q-23 -57 -63.5 -84.5t-88.5 -27.5q-20 0 -40.5 5t-38.5 17t-31.5 33.5t-18.5 54.5z" />
    <glyph glyph-name="Uring" unicode="&#x16e;" horiz-adv-x="641" 
d="M141 721h91l-74 -415q-7 -39 -11.5 -72t-4.5 -60q0 -58 25.5 -87.5t92.5 -29.5q46 0 78.5 14.5t54 43.5t35.5 72t24 100l78 434h91l-77 -435q-13 -72 -33.5 -128.5t-54.5 -95.5t-84 -59.5t-121 -20.5q-56 0 -94 12t-61.5 35.5t-34 58t-10.5 79.5q0 51 12 116zM387 822
q29 0 48 19.5t19 48.5t-19 48.5t-48 19.5t-48 -19.5t-19 -48.5t19 -48.5t48 -19.5zM258 890q0 27 10 50.5t27.5 41t41 27.5t50.5 10t50.5 -10t41 -27.5t27.5 -41t10 -50.5t-10 -50.5t-27.5 -41t-41 -27.5t-50.5 -10t-50.5 10t-41 27.5t-27.5 41t-10 50.5z" />
    <glyph glyph-name="uring" unicode="&#x16f;" horiz-adv-x="544" 
d="M111 501h86l-51 -285q-2 -9 -4 -22t-3.5 -27t-3 -26.5t-1.5 -19.5q0 -68 70 -68q57 0 94.5 34.5t51.5 111.5l53 302h86l-71 -404l33 -76l-71 -37l-42 72q-13 -14 -28 -27t-33.5 -23.5t-41.5 -17t-52 -6.5q-36 0 -62 9.5t-42 26.5t-23.5 40t-7.5 50q0 9 1 21.5t2.5 26
t3 26.5t3.5 23zM318 642q29 0 48 19.5t19 48.5t-19 48.5t-48 19.5t-48 -19.5t-19 -48.5t19 -48.5t48 -19.5zM189 710q0 27 10 50.5t27.5 41t41 27.5t50.5 10t50.5 -10t41 -27.5t27.5 -41t10 -50.5t-10 -50.5t-27.5 -41t-41 -27.5t-50.5 -10t-50.5 10t-41 27.5t-27.5 41
t-10 50.5z" />
    <glyph glyph-name="Uhungarumlaut" unicode="&#x170;" horiz-adv-x="641" 
d="M141 721h91l-74 -415q-7 -39 -11.5 -72t-4.5 -60q0 -58 25.5 -87.5t92.5 -29.5q46 0 78.5 14.5t54 43.5t35.5 72t24 100l78 434h91l-77 -435q-13 -72 -33.5 -128.5t-54.5 -95.5t-84 -59.5t-121 -20.5q-56 0 -94 12t-61.5 35.5t-34 58t-10.5 79.5q0 51 12 116zM391 957
l56 -58l-158 -136l-36 33zM570 957l56 -58l-158 -136l-36 33z" />
    <glyph glyph-name="uhungarumlaut" unicode="&#x171;" horiz-adv-x="544" 
d="M111 501h86l-51 -285q-2 -9 -4 -22t-3.5 -27t-3 -26.5t-1.5 -19.5q0 -68 70 -68q57 0 94.5 34.5t51.5 111.5l53 302h86l-71 -404l33 -76l-71 -37l-42 72q-13 -14 -28 -27t-33.5 -23.5t-41.5 -17t-52 -6.5q-36 0 -62 9.5t-42 26.5t-23.5 40t-7.5 50q0 9 1 21.5t2.5 26
t3 26.5t3.5 23zM319 797l63 -54l-163 -160l-41 33zM494 797l63 -54l-163 -160l-41 33z" />
    <glyph glyph-name="Uogonek" unicode="&#x172;" horiz-adv-x="641" 
d="M141 721h91l-74 -415q-7 -39 -11.5 -72t-4.5 -60q0 -58 25.5 -87.5t92.5 -29.5q46 0 78.5 14.5t54 43.5t35.5 72t24 100l78 434h91l-77 -435q-17 -96 -53.5 -158t-85.5 -110q-45 -44 -69 -79t-24 -61q0 -20 15.5 -33t62.5 -25l-24 -50q-39 7 -65 15t-42 19.5t-23 26.5
t-7 37q0 26 20.5 58.5t49.5 58.5q-23 -3 -48 -3q-56 0 -94 12t-61.5 35.5t-34 58t-10.5 79.5q0 51 12 116z" />
    <glyph glyph-name="uogonek" unicode="&#x173;" horiz-adv-x="544" 
d="M111 501h86l-51 -285q-2 -9 -4 -22t-3.5 -27t-3 -26.5t-1.5 -19.5q0 -68 70 -68q57 0 94.5 34.5t51.5 111.5l53 302h86l-71 -404l38 -90q-39 -41 -61.5 -72t-22.5 -57q0 -20 15.5 -33t62.5 -25l-24 -50q-39 7 -65 15t-42 19t-23 25.5t-7 34.5q0 16 7 33.5t18.5 35.5
t26.5 35t30 33l-33 55q-13 -14 -28 -27t-33.5 -23.5t-41.5 -17t-52 -6.5q-36 0 -62 9.5t-42 26.5t-23.5 40t-7.5 50q0 9 1 21.5t2.5 26t3 26.5t3.5 23z" />
    <glyph glyph-name="Wcircumflex" unicode="&#x174;" horiz-adv-x="871" 
d="M74 712l95 16l28 -632q0 -20 3.5 -27.5t11.5 -7.5t12.5 7t12.5 28l215 625h78l26 -625q1 -21 2.5 -28t10.5 -7q8 0 12.5 7.5t11.5 25.5l231 634l81 -16l-232 -637q-10 -27 -20.5 -45t-24 -28.5t-31 -15t-40.5 -4.5q-27 0 -44.5 6t-28 18.5t-15 32.5t-5.5 49l-16 386
l-135 -397q-11 -29 -23 -47.5t-27 -29t-32.5 -14.5t-38.5 -4q-50 0 -69 24.5t-21 81.5zM487 934h64l74 -143l-50 -21l-65 92l-104 -91l-38 27z" />
    <glyph glyph-name="wcircumflex" unicode="&#x175;" horiz-adv-x="706" 
d="M50 499l87 11l4 -436q0 -14 2 -20.5t10 -6.5q12 0 22 26l168 428h72l16 -428q0 -26 12 -26q8 0 12 5.5t10 20.5l165 437l76 -11l-164 -422q-19 -50 -43.5 -72.5t-69.5 -22.5q-27 0 -42.5 5.5t-24 18t-11 31.5t-2.5 46l-4 250l-99 -261q-17 -45 -43 -67.5t-64 -22.5
q-27 0 -43 5.5t-24.5 17.5t-11.5 31.5t-3 46.5zM379 774h68l75 -178l-50 -21l-68 119l-113 -118l-38 27z" />
    <glyph glyph-name="Ycircumflex" unicode="&#x176;" horiz-adv-x="524" 
d="M191 279q-17 4 -26 25.5t-17 55.5l-85 352l90 18l84 -359q4 -15 7 -20t8 -5t10.5 5.5t14.5 20.5l215 356l80 -19l-226 -366q-13 -20 -22 -32.5t-16.5 -19.5t-14 -10t-12.5 -4l-48 -277h-92zM323 934h64l74 -143l-50 -21l-65 92l-104 -91l-38 27z" />
    <glyph glyph-name="ycircumflex" unicode="&#x177;" horiz-adv-x="489" 
d="M-17 -142q16 -7 33 -11.5t40 -4.5q25 0 42.5 6.5t31 18.5t24 30t21.5 42l30 69h-6q-59 0 -85 37t-32 108l-40 344l90 15l37 -357q2 -26 6.5 -43t11.5 -26.5t16.5 -13t21.5 -3.5h7l177 444l80 -16l-238 -575q-30 -74 -75 -110t-116 -36q-35 0 -57.5 4.5t-42.5 13.5z
M268 774h68l75 -178l-50 -21l-68 119l-113 -118l-38 27z" />
    <glyph glyph-name="Ydieresis" unicode="&#x178;" horiz-adv-x="524" 
d="M191 279q-17 4 -26 25.5t-17 55.5l-85 352l90 18l84 -359q4 -15 7 -20t8 -5t10.5 5.5t14.5 20.5l215 356l80 -19l-226 -366q-13 -20 -22 -32.5t-16.5 -19.5t-14 -10t-12.5 -4l-48 -277h-92zM226 776q-23 0 -35.5 14.5t-12.5 36.5q0 35 18.5 57.5t49.5 22.5
q23 0 35.5 -15.5t12.5 -38.5q0 -35 -19.5 -56t-48.5 -21zM422 776q-23 0 -35.5 14.5t-12.5 36.5q0 35 18.5 57.5t49.5 22.5q23 0 35.5 -15.5t12.5 -38.5q0 -35 -19.5 -56t-48.5 -21z" />
    <glyph glyph-name="Zacute" unicode="&#x179;" horiz-adv-x="535" 
d="M455 74l-13 -74h-388q-38 0 -53.5 15.5t-15.5 41.5q0 29 14.5 51.5t34.5 48.5l393 490h-327l14 74h446l-10 -55l-458 -565q-7 -8 -9 -11.5t-2 -8.5q0 -7 13 -7h361zM444 961l56 -66l-188 -128l-36 40z" />
    <glyph glyph-name="zacute" unicode="&#x17a;" horiz-adv-x="416" 
d="M354 68l-11 -68h-293q-38 0 -50 17t-12 35q0 23 11.5 44.5t30.5 42.5l267 295h-238l11 67h341l-11 -65l-311 -343q-9 -9 -9 -17t15 -8h259zM346 797l66 -56l-165 -159l-42 34z" />
    <glyph glyph-name="Zdotaccent" unicode="&#x17b;" horiz-adv-x="535" 
d="M455 74l-13 -74h-388q-38 0 -53.5 15.5t-15.5 41.5q0 29 14.5 51.5t34.5 48.5l393 490h-327l14 74h446l-10 -55l-458 -565q-7 -8 -9 -11.5t-2 -8.5q0 -7 13 -7h361zM338 775q-26 0 -40 17t-14 40q0 36 18 57.5t47 21.5q26 0 40.5 -18t14.5 -41q0 -35 -19.5 -56t-46.5 -21
z" />
    <glyph glyph-name="zdotaccent" unicode="&#x17c;" horiz-adv-x="416" 
d="M354 68l-11 -68h-293q-38 0 -50 17t-12 35q0 23 11.5 44.5t30.5 42.5l267 295h-238l11 67h341l-11 -65l-311 -343q-9 -9 -9 -17t15 -8h259zM253 601q-26 0 -40 17t-14 40q0 36 18 57.5t47 21.5q26 0 40.5 -18t14.5 -41q0 -35 -19.5 -56t-46.5 -21z" />
    <glyph glyph-name="Zcaron" unicode="&#x17d;" horiz-adv-x="535" 
d="M455 74l-13 -74h-388q-38 0 -53.5 15.5t-15.5 41.5q0 29 14.5 51.5t34.5 48.5l393 490h-327l14 74h446l-10 -55l-458 -565q-7 -8 -9 -11.5t-2 -8.5q0 -7 13 -7h361zM234 916l51 21l65 -92l104 91l37 -27l-119 -136h-64z" />
    <glyph glyph-name="zcaron" unicode="&#x17e;" horiz-adv-x="416" 
d="M354 68l-11 -68h-293q-38 0 -50 17t-12 35q0 23 11.5 44.5t30.5 42.5l267 295h-238l11 67h341l-11 -65l-311 -343q-9 -9 -9 -17t15 -8h259zM139 753l50 21l68 -119l113 118l38 -27l-126 -171h-68z" />
    <glyph glyph-name="longs" unicode="&#x17f;" horiz-adv-x="320" 
d="M-33 -127q31 10 49.5 44.5t30.5 105.5l93 530q7 42 19.5 76t33 57.5t51.5 36.5t76 13q38 0 64 -9.5t41 -20.5l-34 -56q-11 8 -28.5 14.5t-42.5 6.5q-26 0 -42 -8.5t-26.5 -25.5t-17 -42.5t-12.5 -58.5l-94 -536q-6 -37 -16.5 -65t-26.5 -50t-39 -38t-56 -28z" />
    <glyph glyph-name="florin" unicode="&#x192;" horiz-adv-x="594" 
d="M-42 -131q12 -9 32.5 -17t43.5 -8q25 0 42 8.5t28.5 22.5t18.5 33.5t12 41.5l82 389h-103l13 68h104l31 147q17 81 65 124t138 43q37 0 67 -9.5t56 -26.5l-38 -60q-13 9 -32.5 18.5t-52.5 9.5q-29 0 -47.5 -7.5t-31 -21.5t-20 -33.5t-12.5 -43.5l-30 -140h141l-14 -68
h-141l-83 -396q-17 -81 -65 -124t-128 -43q-37 0 -65 9.5t-46 22.5z" />
    <glyph glyph-name="Scommaaccent" unicode="&#x218;" horiz-adv-x="549" 
d="M34 109q35 -22 78 -37t101 -15q35 0 65.5 10.5t53.5 29t36 44.5t13 57q0 24 -6 42.5t-21.5 34.5t-42.5 31t-69 32q-35 14 -65 29.5t-52.5 37t-35.5 51t-13 71.5q0 46 18 84.5t51.5 66.5t80.5 43t105 15q73 0 122.5 -18t73.5 -37l-38 -61q-23 16 -63.5 30t-102.5 14
q-71 0 -111 -34t-40 -88q0 -26 6.5 -43.5t22.5 -32t44 -28.5t70 -32q78 -33 119.5 -74.5t41.5 -108.5q0 -51 -16.5 -95.5t-50 -76.5t-84 -50.5t-117.5 -18.5q-73 0 -126.5 18t-88.5 41zM189 -72l86 -22l-90 -176l-55 17z" />
    <glyph glyph-name="scommaaccent" unicode="&#x219;" horiz-adv-x="419" 
d="M16 84q29 -16 63 -26t73 -10q52 0 82 24t30 66q0 16 -4 28.5t-14.5 23t-28.5 19.5t-45 19q-28 10 -50.5 21.5t-38.5 26.5t-25 36t-9 50q0 75 52.5 116t139.5 41q43 0 83.5 -11.5t63.5 -26.5l-32 -59q-20 11 -50 20.5t-61 9.5q-54 0 -83 -20.5t-29 -53.5q0 -15 4 -26.5
t14.5 -21.5t28.5 -19.5t46 -21.5q25 -11 47.5 -22t38.5 -26.5t25.5 -36.5t9.5 -50q0 -42 -14.5 -74t-40.5 -53.5t-61 -33t-77 -11.5q-57 0 -100 14t-65 28zM126 -72l86 -22l-90 -176l-55 17z" />
    <glyph glyph-name="uni021A" unicode="&#x21a;" horiz-adv-x="489" 
d="M247 647h-197l14 74h485l-14 -74h-197l-115 -647h-91zM125 -72l86 -22l-90 -176l-55 17z" />
    <glyph glyph-name="uni021B" unicode="&#x21b;" horiz-adv-x="350" 
d="M157 650h82l-27 -149h128l-12 -68h-126l-52 -283q-2 -8 -3 -21.5t-1 -21.5q0 -32 13.5 -44.5t35.5 -12.5q23 0 40 4.5t33 11.5l17 -61q-17 -9 -45.5 -16t-66.5 -7q-54 0 -84.5 24.5t-31.5 76.5q0 11 1.5 25t3.5 28l53 297h-85l12 68h88zM116 -72l86 -22l-90 -176l-55 17z
" />
    <glyph glyph-name="dotlessj" unicode="&#x237;" horiz-adv-x="244" 
d="M-159 -137q13 -8 32.5 -13.5t44.5 -5.5q26 0 43 10t28 28t18 42.5t12 53.5l91 523h87l-95 -540q-7 -41 -19.5 -75t-33.5 -59t-52.5 -38.5t-76.5 -13.5q-35 0 -64.5 7.5t-46.5 19.5z" />
    <glyph glyph-name="apostrophe" unicode="&#x2bc;" horiz-adv-x="500" 
d="M240 783l92 -21l-104 -230l-63 16z" />
    <glyph glyph-name="circumflex" unicode="&#x2c6;" horiz-adv-x="500" 
d="M242 774h68l75 -178l-50 -21l-68 119l-113 -118l-38 27z" />
    <glyph glyph-name="caron" unicode="&#x2c7;" horiz-adv-x="500" 
d="M116 753l50 21l68 -119l113 118l38 -27l-126 -171h-68z" />
    <glyph glyph-name="uni02C9" unicode="&#x2c9;" horiz-adv-x="500" 
d="M112 688h289l-13 -73h-289z" />
    <glyph glyph-name="breve" unicode="&#x2d8;" horiz-adv-x="500" 
d="M168 721q11 -33 28.5 -47.5t47.5 -14.5q65 0 94 62l53 -18q-23 -57 -63.5 -84.5t-88.5 -27.5q-20 0 -40.5 5t-38.5 17t-31.5 33.5t-18.5 54.5z" />
    <glyph glyph-name="dotaccent" unicode="&#x2d9;" horiz-adv-x="500" 
d="M244 601q-26 0 -40 17t-14 40q0 36 18 57.5t47 21.5q26 0 40.5 -18t14.5 -41q0 -35 -19.5 -56t-46.5 -21z" />
    <glyph glyph-name="ring" unicode="&#x2da;" horiz-adv-x="500" 
d="M250 642q29 0 48 19.5t19 48.5t-19 48.5t-48 19.5t-48 -19.5t-19 -48.5t19 -48.5t48 -19.5zM121 710q0 27 10 50.5t27.5 41t41 27.5t50.5 10t50.5 -10t41 -27.5t27.5 -41t10 -50.5t-10 -50.5t-27.5 -41t-41 -27.5t-50.5 -10t-50.5 10t-41 27.5t-27.5 41t-10 50.5z" />
    <glyph glyph-name="ogonek" unicode="&#x2db;" horiz-adv-x="500" 
d="M306 -230q-39 7 -65 15t-42 19.5t-23 26.5t-7 37q0 16 8 34t21 36.5t30 35.5t35 30h70q-41 -41 -61 -70.5t-20 -55.5q0 -20 15.5 -33t62.5 -25z" />
    <glyph glyph-name="tilde" unicode="&#x2dc;" horiz-adv-x="500" 
d="M71 607q10 60 34 91t67 31q17 0 34.5 -6.5t33.5 -13.5l39 -17q16 -7 29 -12t24 -5q18 0 29.5 11.5t16.5 44.5l51 -7q-10 -60 -34 -91t-67 -31q-17 0 -34.5 6t-33.5 13l-39 17q-16 7 -29 12.5t-24 5.5q-18 0 -29.5 -11.5t-16.5 -44.5z" />
    <glyph glyph-name="hungarumlaut" unicode="&#x2dd;" horiz-adv-x="500" 
d="M212 797l63 -54l-163 -160l-41 33zM387 797l63 -54l-163 -160l-41 33z" />
    <glyph glyph-name="tonos" unicode="&#x384;" horiz-adv-x="500" 
d="M276 801l81 -28l-126 -196l-48 18z" />
    <glyph glyph-name="dieresistonos" unicode="&#x385;" horiz-adv-x="500" 
d="M276 801l81 -28l-126 -196l-48 18zM106 604q-25 0 -38.5 16.5t-13.5 38.5q0 35 17.5 55.5t45.5 20.5q26 0 39.5 -17t13.5 -40q0 -34 -19 -54t-45 -20zM398 604q-25 0 -38.5 16.5t-13.5 38.5q0 35 17.5 55.5t45.5 20.5q26 0 39.5 -17t13.5 -40q0 -34 -19 -54t-45 -20z" />
    <glyph glyph-name="Alphatonos" unicode="&#x386;" horiz-adv-x="603" 
d="M258 651q21 45 46.5 64.5t68.5 19.5q24 0 40.5 -4.5t27.5 -16t17.5 -32t9.5 -53.5l65 -628l-95 -15l-26 249h-256l-114 -249l-82 17zM404 310l-32 311q-2 22 -4.5 28.5t-10.5 6.5t-13 -7.5t-13 -25.5l-143 -313h216zM132 734l81 -28l-127 -197l-48 18z" />
    <glyph glyph-name="Epsilontonos" unicode="&#x388;" horiz-adv-x="528" 
d="M161 721h392l-14 -74h-300l-41 -233h231l-14 -76h-231l-47 -262h320l-13 -76h-411zM36 734l81 -28l-127 -197l-48 18z" />
    <glyph glyph-name="Etatonos" unicode="&#x389;" horiz-adv-x="658" 
d="M161 721h91l-54 -307h297l54 307h91l-128 -721h-91l60 338h-297l-60 -338h-91zM35 734l81 -28l-127 -197l-48 18z" />
    <glyph glyph-name="Iotatonos" unicode="&#x38a;" horiz-adv-x="270" 
d="M161 721h91l-128 -721h-91zM41 734l81 -28l-127 -197l-48 18z" />
    <glyph glyph-name="Omicrontonos" unicode="&#x38c;" horiz-adv-x="668" 
d="M270 -18q-62 0 -106 20.5t-72 57t-41 86.5t-13 110q0 99 25.5 186t72 152.5t111 103.5t142.5 38q60 0 105 -20.5t74 -57t43.5 -86.5t14.5 -110q0 -102 -25 -189.5t-71.5 -152t-112 -101.5t-147.5 -37zM279 57q60 0 106 34t77.5 91t47.5 131.5t16 155.5q0 89 -35 140.5
t-108 51.5q-60 0 -106 -34t-77 -91t-46.5 -131.5t-15.5 -155.5q0 -89 35 -140.5t106 -51.5zM41 734l81 -28l-127 -197l-48 18z" />
    <glyph glyph-name="Upsilontonos" unicode="&#x38e;" horiz-adv-x="589" 
d="M17 734l81 -28l-127 -197l-48 18zM256 279q-17 4 -26 25.5t-17 55.5l-85 352l90 18l84 -359q4 -15 7 -20t8 -5t10.5 5.5t14.5 20.5l215 356l80 -19l-226 -366q-13 -20 -22 -32.5t-16.5 -19.5t-14 -10t-12.5 -4l-48 -277h-92z" />
    <glyph glyph-name="Omegatonos" unicode="&#x38f;" horiz-adv-x="770" 
d="M71 75h146q17 0 17 9q0 5 -3.5 11t-12.5 19q-19 25 -36 53t-30 59t-21 67t-8 78q0 69 22.5 134.5t65 117t105 82.5t143.5 31q64 0 113 -21t82 -57.5t49.5 -86t16.5 -107.5q0 -52 -14.5 -100t-40 -91.5t-60 -83t-75.5 -75.5q-11 -9 -17 -17.5t-6 -13.5q0 -8 13 -8h149
l-13 -75h-174q-35 0 -50.5 16.5t-15.5 39.5q0 20 8.5 40t33.5 44q36 34 65.5 67t51.5 69t34 78t12 95q0 47 -9.5 86t-30 67t-53.5 43.5t-79 15.5q-49 0 -91 -20.5t-72.5 -59t-48 -93t-17.5 -121.5q0 -38 5 -68t14.5 -56t22.5 -51t30 -52q9 -16 14.5 -31t5.5 -35
q0 -36 -26.5 -55t-75.5 -19h-152zM99 735l81 -28l-127 -197l-48 18z" />
    <glyph glyph-name="iotadieresistonos" unicode="&#x390;" horiz-adv-x="292" 
d="M115 501h89l-60 -359q-2 -14 -3.5 -26t-1.5 -22q0 -19 8 -28.5t30 -9.5q13 0 24.5 2t31.5 7l3 -63q-17 -5 -40 -10t-52 -5q-47 0 -71.5 21t-24.5 72q0 23 6 55zM216 801l81 -28l-126 -196l-48 18zM46 604q-25 0 -38.5 16.5t-13.5 38.5q0 35 17.5 55.5t45.5 20.5
q26 0 39.5 -17t13.5 -40q0 -34 -19 -54t-45 -20zM338 604q-25 0 -38.5 16.5t-13.5 38.5q0 35 17.5 55.5t45.5 20.5q26 0 39.5 -17t13.5 -40q0 -34 -19 -54t-45 -20z" />
    <glyph glyph-name="Alpha" unicode="&#x391;" horiz-adv-x="603" 
d="M258 651q21 45 46.5 64.5t68.5 19.5q24 0 40.5 -4.5t27.5 -16t17.5 -32t9.5 -53.5l65 -628l-95 -15l-26 249h-256l-114 -249l-82 17zM404 310l-32 311q-2 22 -4.5 28.5t-10.5 6.5t-13 -7.5t-13 -25.5l-143 -313h216z" />
    <glyph glyph-name="Beta" unicode="&#x392;" horiz-adv-x="573" 
d="M147 721h206q84 0 137 -39t53 -116q0 -64 -33.5 -111.5t-90.5 -78.5q47 -20 73.5 -57t26.5 -85q0 -61 -21 -105.5t-58 -73t-86 -42t-106 -13.5h-229zM263 71q34 0 64 9t52 27.5t34.5 47.5t12.5 69q0 30 -13 51t-33 34t-44 19t-46 6h-123l-46 -263h142zM305 407
q31 0 57 11t45.5 30.5t30.5 46t11 57.5q0 48 -30.5 73t-93.5 25h-102l-43 -243h125z" />
    <glyph glyph-name="Gamma" unicode="&#x393;" horiz-adv-x="479" 
d="M146 721h393l-13 -74h-302l-114 -647h-91z" />
    <glyph glyph-name="uni0394" unicode="&#x394;" horiz-adv-x="641" 
d="M238 608q14 28 29 51.5t33 40t40.5 25.5t52.5 9t49 -9t31 -25.5t18 -39.5t9 -51l56 -463q2 -18 3.5 -35.5t1.5 -29.5q0 -32 -23 -56.5t-71 -24.5h-410q-23 0 -37 6t-21 15t-9 18.5t-2 17.5q0 20 7.5 43.5t18.5 46.5zM443 75q15 0 22 6.5t7 15.5q0 5 -0.5 10t-0.5 10
l-55 484q-4 35 -11 49t-27 14q-21 0 -33.5 -14t-29.5 -49l-231 -484q-4 -8 -7 -15.5t-3 -12.5q0 -14 17 -14h352z" />
    <glyph glyph-name="Epsilon" unicode="&#x395;" horiz-adv-x="514" 
d="M147 721h392l-14 -74h-300l-41 -233h231l-14 -76h-231l-47 -262h320l-13 -76h-411z" />
    <glyph glyph-name="Zeta" unicode="&#x396;" horiz-adv-x="535" 
d="M455 74l-13 -74h-388q-38 0 -53.5 15.5t-15.5 41.5q0 29 14.5 51.5t34.5 48.5l393 490h-327l14 74h446l-10 -55l-458 -565q-7 -8 -9 -11.5t-2 -8.5q0 -7 13 -7h361z" />
    <glyph glyph-name="Eta" unicode="&#x397;" horiz-adv-x="644" 
d="M147 721h91l-54 -307h297l54 307h91l-128 -721h-91l60 338h-297l-60 -338h-91z" />
    <glyph glyph-name="Theta" unicode="&#x398;" horiz-adv-x="668" 
d="M270 -18q-62 0 -106 20.5t-72 57t-41 86.5t-13 110q0 99 25.5 186t72 152.5t111 103.5t142.5 38q60 0 105 -20.5t74 -57t43.5 -86.5t14.5 -110q0 -102 -25 -189.5t-71.5 -152t-112 -101.5t-147.5 -37zM279 57q60 0 106 34t77.5 91t47.5 131.5t16 155.5q0 89 -35 140.5
t-108 51.5q-60 0 -106 -34t-77 -91t-46.5 -131.5t-15.5 -155.5q0 -89 35 -140.5t106 -51.5zM198 402h282l-15 -85h-282z" />
    <glyph glyph-name="Iota" unicode="&#x399;" horiz-adv-x="257" 
d="M147 721h91l-128 -721h-91z" />
    <glyph glyph-name="Kappa" unicode="&#x39a;" horiz-adv-x="556" 
d="M147 721h91l-56 -315h43q23 0 34 4.5t22 18.5l244 300l81 -18l-273 -338l164 -362l-94 -20l-139 312q-8 19 -18 23t-24 4h-53l-59 -330h-91z" />
    <glyph glyph-name="Lambda" unicode="&#x39b;" horiz-adv-x="603" 
d="M258 651q21 45 46.5 64.5t68.5 19.5q24 0 40.5 -4.5t27.5 -16t17.5 -32t9.5 -53.5l65 -628l-95 -15l-66 635q-2 22 -4.5 28.5t-10.5 6.5t-13 -7.5t-13 -25.5l-289 -637l-82 17z" />
    <glyph glyph-name="Mu" unicode="&#x39c;" horiz-adv-x="758" 
d="M166 721h93l99 -370q5 -17 8.5 -22.5t10.5 -5.5t13 6t16 22l227 370h87l-95 -721h-90l75 545l-148 -237q-23 -36 -44.5 -58t-59.5 -22q-41 0 -56 21t-26 60l-68 242l-119 -551h-87z" />
    <glyph glyph-name="Nu" unicode="&#x39d;" horiz-adv-x="651" 
d="M146 721h93l181 -612q4 -14 5.5 -18.5t6.5 -4.5t6 3.5t3 11.5l111 620h81l-110 -621q-11 -60 -36.5 -83.5t-69.5 -23.5q-27 0 -47 14t-33 58l-141 484l-96 -549h-81z" />
    <glyph glyph-name="Xi" unicode="&#x39e;" horiz-adv-x="514" 
d="M-10 76h445l-13 -76h-445zM104 721h437l-14 -74h-437zM108 403h311l-14 -76h-311z" />
    <glyph glyph-name="Omicron" unicode="&#x39f;" horiz-adv-x="668" 
d="M270 -18q-62 0 -106 20.5t-72 57t-41 86.5t-13 110q0 99 25.5 186t72 152.5t111 103.5t142.5 38q60 0 105 -20.5t74 -57t43.5 -86.5t14.5 -110q0 -102 -25 -189.5t-71.5 -152t-112 -101.5t-147.5 -37zM279 57q60 0 106 34t77.5 91t47.5 131.5t16 155.5q0 89 -35 140.5
t-108 51.5q-60 0 -106 -34t-77 -91t-46.5 -131.5t-15.5 -155.5q0 -89 35 -140.5t106 -51.5z" />
    <glyph glyph-name="Pi" unicode="&#x3a0;" horiz-adv-x="633" 
d="M146 721h469l-127 -721h-90l113 645h-289l-113 -645h-90z" />
    <glyph glyph-name="Rho" unicode="&#x3a1;" horiz-adv-x="565" 
d="M147 721h202q91 0 145.5 -41t54.5 -129q0 -57 -17.5 -105t-52.5 -83t-87.5 -54.5t-121.5 -19.5h-109l-51 -289h-91zM286 364q37 0 67.5 10t53 30.5t35 53t12.5 77.5q0 64 -33 89t-99 25h-97l-51 -285h112z" />
    <glyph glyph-name="Sigma" unicode="&#x3a3;" horiz-adv-x="503" 
d="M-32 57l252 265q17 18 26 29.5t9 22.5t-7.5 23t-23.5 36l-154 231l10 57h453l-14 -75h-329l119 -180q18 -28 26 -46t8 -38q0 -23 -13.5 -46t-49.5 -60l-196 -200h358l-13 -76h-470z" />
    <glyph glyph-name="Tau" unicode="&#x3a4;" horiz-adv-x="489" 
d="M247 647h-197l14 74h485l-14 -74h-197l-115 -647h-91z" />
    <glyph glyph-name="Upsilon" unicode="&#x3a5;" horiz-adv-x="524" 
d="M191 279q-17 4 -26 25.5t-17 55.5l-85 352l90 18l84 -359q4 -15 7 -20t8 -5t10.5 5.5t14.5 20.5l215 356l80 -19l-226 -366q-13 -20 -22 -32.5t-16.5 -19.5t-14 -10t-12.5 -4l-48 -277h-92z" />
    <glyph glyph-name="Phi" unicode="&#x3a6;" horiz-adv-x="738" 
d="M280 89q-49 5 -91 21t-73 43.5t-48.5 68.5t-17.5 95q0 75 24.5 132.5t67 97t101.5 61.5t128 28l16 95h87l-17 -99q50 -4 92 -20t72.5 -44.5t47.5 -69t17 -92.5q0 -71 -23.5 -128t-65.5 -98.5t-101 -65.5t-130 -28l-16 -97h-86zM359 567q-51 -4 -90.5 -23t-67 -50.5
t-41.5 -74t-14 -92.5q0 -75 37.5 -121.5t106.5 -49.5zM378 154q54 3 94 25t66 55.5t39 75.5t13 86q0 34 -9.5 64.5t-27.5 53t-45 36t-62 14.5z" />
    <glyph glyph-name="Chi" unicode="&#x3a7;" horiz-adv-x="566" 
d="M210 370l-129 333l87 28l108 -286q4 -10 7 -14t9 -4q10 0 21 16l207 291l76 -26l-242 -336l139 -356l-90 -26l-116 306q-7 17 -14 17t-19 -16l-225 -307l-76 28z" />
    <glyph glyph-name="Psi" unicode="&#x3a8;" horiz-adv-x="754" 
d="M301 208q-62 7 -104.5 22t-69 39.5t-38.5 59t-12 80.5q0 23 2.5 47.5t7.5 52.5l36 212h94l-35 -206q-9 -53 -9 -92q0 -67 31.5 -101.5t108.5 -40.5l74 440h93l-74 -440q54 3 89 15t57.5 36t35 62.5t21.5 95.5l39 231h93l-40 -233q-12 -73 -31 -124.5t-53 -85.5t-88 -51.5
t-136 -21.5l-34 -205h-93z" />
    <glyph glyph-name="Iotadieresis" unicode="&#x3aa;" horiz-adv-x="256" 
d="M147 721h91l-128 -721h-91zM100 776q-23 0 -35.5 14.5t-12.5 36.5q0 35 18.5 57.5t49.5 22.5q23 0 35.5 -15.5t12.5 -38.5q0 -35 -19.5 -56t-48.5 -21zM296 776q-23 0 -35.5 14.5t-12.5 36.5q0 35 18.5 57.5t49.5 22.5q23 0 35.5 -15.5t12.5 -38.5q0 -35 -19.5 -56
t-48.5 -21z" />
    <glyph glyph-name="Upsilondieresis" unicode="&#x3ab;" horiz-adv-x="524" 
d="M191 279q-17 4 -26 25.5t-17 55.5l-85 352l90 18l84 -359q4 -15 7 -20t8 -5t10.5 5.5t14.5 20.5l215 356l80 -19l-226 -366q-13 -20 -22 -32.5t-16.5 -19.5t-14 -10t-12.5 -4l-48 -277h-92zM229 776q-23 0 -35.5 14.5t-12.5 36.5q0 35 18.5 57.5t49.5 22.5
q23 0 35.5 -15.5t12.5 -38.5q0 -35 -19.5 -56t-48.5 -21zM425 776q-23 0 -35.5 14.5t-12.5 36.5q0 35 18.5 57.5t49.5 22.5q23 0 35.5 -15.5t12.5 -38.5q0 -35 -19.5 -56t-48.5 -21z" />
    <glyph glyph-name="alphatonos" unicode="&#x3ac;" horiz-adv-x="546" 
d="M471 -4q-11 -5 -31 -9.5t-35 -4.5q-30 0 -46.5 15.5t-19.5 39.5q-27 -19 -64.5 -37t-84.5 -18q-43 0 -73.5 14t-49.5 39.5t-28 59.5t-9 75q0 56 13 117.5t42.5 113t77 85t116.5 33.5q38 0 70 -14.5t55 -41.5l48 58l64 -38l-49 -83l-47 -286q-2 -11 -3 -18.5t-1 -14.5
q0 -23 9 -28.5t20 -5.5q6 0 24 5zM379 398q-14 22 -38.5 37t-56.5 15q-46 0 -77 -28t-50 -69.5t-27 -89t-8 -85.5q0 -63 25.5 -92t73.5 -29q28 0 56 9.5t51 28.5zM370 801l81 -28l-126 -196l-48 18z" />
    <glyph glyph-name="epsilontonos" unicode="&#x3ad;" horiz-adv-x="443" 
d="M375 23q-14 -8 -34 -15t-44 -13t-51 -9.5t-54 -3.5q-82 0 -129 33t-47 99q0 56 32 92t89 53q-23 11 -40.5 36.5t-17.5 60.5q0 40 18 71t47.5 51t67.5 30.5t78 10.5q55 0 93 -14t60 -28l-35 -54q-26 15 -55 23t-69 8q-23 0 -44 -5.5t-38 -17.5t-27 -30.5t-10 -43.5
q0 -20 9 -33.5t23 -21.5t30.5 -11t31.5 -3h90l-11 -65h-93q-27 0 -52 -4.5t-45 -16t-32 -30.5t-12 -48q0 -21 9 -35.5t24 -23t34.5 -12t41.5 -3.5q33 0 67 6t76 24zM357 801l81 -28l-126 -196l-48 18z" />
    <glyph glyph-name="etatonos" unicode="&#x3ae;" horiz-adv-x="552" 
d="M93 404l-24 79l72 35l33 -76q11 13 27 26.5t37 24.5t47.5 18.5t58.5 7.5q34 0 58.5 -9.5t40.5 -26.5t23.5 -40t7.5 -50q0 -9 -1 -21.5t-2.5 -26t-3 -26.5t-3.5 -23l-91 -514h-86l89 503q1 9 3.5 22t4 27t3 26t1.5 20q0 66 -70 66q-29 0 -55 -10.5t-47 -29t-35 -45
t-20 -59.5l-53 -302h-86zM383 801l81 -28l-126 -196l-48 18z" />
    <glyph glyph-name="iotatonos" unicode="&#x3af;" horiz-adv-x="292" 
d="M115 501h89l-60 -359q-2 -14 -3.5 -26t-1.5 -22q0 -19 8 -28.5t30 -9.5q13 0 24.5 2t31.5 7l3 -63q-17 -5 -40 -10t-52 -5q-47 0 -71.5 21t-24.5 72q0 23 6 55zM221 801l81 -28l-126 -196l-48 18z" />
    <glyph glyph-name="upsilondieresistonos" unicode="&#x3b0;" horiz-adv-x="540" 
d="M40 501q11 5 28.5 8t35.5 3q39 0 54.5 -20.5t15.5 -58.5q0 -15 -1.5 -33t-5.5 -38q-7 -38 -13 -69t-11 -62q-3 -19 -6 -42t-3 -43q0 -48 20 -71t71 -23q47 0 79 27t51.5 70.5t28 98t8.5 110.5q0 34 -2.5 71t-7.5 66l84 14q5 -26 9 -61t4 -68q0 -50 -5.5 -101t-19 -98
t-36.5 -87.5t-59 -67.5q-58 -44 -147 -44q-83 0 -123.5 39t-40.5 121q0 19 3.5 44.5t8 53.5t10 56.5t9.5 55.5q3 18 5 33t2 26q0 17 -5 25.5t-19 8.5q-4 0 -9 -0.5t-12 -2.5zM287 801l81 -28l-126 -196l-48 18zM117 604q-25 0 -38.5 16.5t-13.5 38.5q0 35 17.5 55.5
t45.5 20.5q26 0 39.5 -17t13.5 -40q0 -34 -19 -54t-45 -20zM409 604q-25 0 -38.5 16.5t-13.5 38.5q0 35 17.5 55.5t45.5 20.5q26 0 39.5 -17t13.5 -40q0 -34 -19 -54t-45 -20z" />
    <glyph glyph-name="alpha" unicode="&#x3b1;" horiz-adv-x="546" 
d="M471 -4q-11 -5 -31 -9.5t-35 -4.5q-30 0 -46.5 15.5t-19.5 39.5q-27 -19 -64.5 -37t-84.5 -18q-43 0 -73.5 14t-49.5 39.5t-28 59.5t-9 75q0 56 13 117.5t42.5 113t77 85t116.5 33.5q38 0 70 -14.5t55 -41.5l48 58l64 -38l-49 -83l-47 -286q-2 -11 -3 -18.5t-1 -14.5
q0 -23 9 -28.5t20 -5.5q6 0 24 5zM379 398q-14 22 -38.5 37t-56.5 15q-46 0 -77 -28t-50 -69.5t-27 -89t-8 -85.5q0 -63 25.5 -92t73.5 -29q28 0 56 9.5t51 28.5z" />
    <glyph glyph-name="beta" unicode="&#x3b2;" horiz-adv-x="503" 
d="M313 396q38 -2 63.5 -14.5t41 -32t22 -44.5t6.5 -52q0 -52 -19 -100.5t-53.5 -86.5t-83 -61t-107.5 -23q-88 0 -123.5 52t-35.5 147q0 59 10 123.5t29 126t48 117t66.5 97.5t84.5 66.5t103 24.5q30 0 53 -9.5t38 -25.5t22.5 -37t7.5 -45q0 -41 -13.5 -75.5t-36.5 -62.5
t-55 -49t-68 -36zM128 329q-8 -34 -12 -71.5t-4 -85.5q0 -27 4 -50t13.5 -39.5t25.5 -26t41 -9.5q37 0 66.5 18.5t50 48t31.5 66t11 71.5q0 57 -25.5 80.5t-66.5 23.5q-32 0 -65.5 -7.5t-69.5 -18.5zM147 399q39 5 83.5 18t82 37t62.5 59.5t25 86.5q0 41 -16.5 56.5
t-39.5 15.5q-36 0 -68.5 -29t-58.5 -71t-44 -89.5t-26 -83.5z" />
    <glyph glyph-name="gamma" unicode="&#x3b3;" horiz-adv-x="487" 
d="M72 -200q17 98 23.5 178.5t6.5 152.5q0 80 -5.5 148t-15.5 116q-5 28 -13.5 38t-24.5 10q-10 0 -18.5 -2t-14.5 -4l-3 62q14 6 35.5 10.5t41.5 4.5q41 0 57.5 -26t24.5 -77q8 -48 13.5 -107.5t5.5 -131.5v-42t-1 -42q11 0 20 3.5t17.5 13t17.5 26.5t20 43l145 338l74 -16
l-156 -364q-15 -34 -30 -57t-32 -37.5t-36.5 -21.5t-42.5 -8q-4 -47 -10 -96.5t-15 -104.5l-4 -25h-83z" />
    <glyph glyph-name="delta" unicode="&#x3b4;" horiz-adv-x="541" 
d="M188 549q-26 23 -34.5 41.5t-8.5 40.5q0 38 27.5 64t75.5 26h268l-13 -76h-261q-13 0 -13 -10q0 -6 9 -15l81 -77q29 -27 57.5 -55t51.5 -60t37 -70t14 -86q0 -59 -18 -111.5t-52.5 -92.5t-84 -63t-111.5 -23q-48 0 -82.5 16t-57 43t-33 62t-10.5 74q0 58 18 106.5
t49.5 86.5t74.5 66t93 45zM314 437q-92 -32 -143 -94.5t-51 -161.5q0 -63 26 -98.5t77 -35.5q45 0 77 22.5t52 56.5t29 74.5t9 75.5q0 94 -76 161z" />
    <glyph glyph-name="epsilon" unicode="&#x3b5;" horiz-adv-x="443" 
d="M375 23q-14 -8 -34 -15t-44 -13t-51 -9.5t-54 -3.5q-82 0 -129 33t-47 99q0 56 32 92t89 53q-23 11 -40.5 36.5t-17.5 60.5q0 40 18 71t47.5 51t67.5 30.5t78 10.5q55 0 93 -14t60 -28l-35 -54q-26 15 -55 23t-69 8q-23 0 -44 -5.5t-38 -17.5t-27 -30.5t-10 -43.5
q0 -20 9 -33.5t23 -21.5t30.5 -11t31.5 -3h90l-11 -65h-93q-27 0 -52 -4.5t-45 -16t-32 -30.5t-12 -48q0 -21 9 -35.5t24 -23t34.5 -12t41.5 -3.5q33 0 67 6t76 24z" />
    <glyph glyph-name="zeta" unicode="&#x3b6;" horiz-adv-x="432" 
d="M211 -169q11 12 23.5 27t23.5 32t18.5 35t7.5 36t-12.5 26t-47.5 14q-28 5 -45.5 9t-40.5 12q-47 15 -72.5 47t-25.5 90q0 72 28 137t73 124.5t101 112t112 99.5q5 4 6.5 6t2.5 4q0 5 -8 5h-218l12 74h237q23 0 42 -11t19 -37q0 -33 -19.5 -55t-50.5 -51q-39 -37 -82 -80
t-79.5 -92t-60.5 -103.5t-24 -114.5q0 -21 6.5 -36t17.5 -25.5t26.5 -17.5t32.5 -11q14 -3 24 -5.5t18.5 -4.5l17 -4t19.5 -4q79 -18 79 -82q0 -29 -10 -55t-26 -50t-36 -45t-40 -40z" />
    <glyph glyph-name="eta" unicode="&#x3b7;" horiz-adv-x="552" 
d="M93 404l-24 79l72 35l33 -76q11 13 27 26.5t37 24.5t47.5 18.5t58.5 7.5q34 0 58.5 -9.5t40.5 -26.5t23.5 -40t7.5 -50q0 -9 -1 -21.5t-2.5 -26t-3 -26.5t-3.5 -23l-91 -514h-86l89 503q1 9 3.5 22t4 27t3 26t1.5 20q0 66 -70 66q-29 0 -55 -10.5t-47 -29t-35 -45
t-20 -59.5l-53 -302h-86z" />
    <glyph glyph-name="theta" unicode="&#x3b8;" horiz-adv-x="537" 
d="M36 350q11 5 29.5 8t36.5 3q70 0 70 -70q0 -3 -0.5 -6t-0.5 -7q-2 -17 -6 -36t-9 -38.5t-8.5 -39t-3.5 -35.5q0 -34 16.5 -55.5t65.5 -21.5q37 0 63.5 16.5t45.5 42.5t30.5 58.5t18 65t9 61.5t2.5 49q-95 4 -152.5 29t-88 59t-40.5 71.5t-10 66.5q0 38 12 68.5t33.5 52
t51 33t64.5 11.5q61 0 102.5 -32t67 -83t36.5 -114.5t11 -126.5q0 -66 -12 -136.5t-42 -128.5t-81.5 -95.5t-130.5 -37.5q-44 0 -73.5 11.5t-48 31.5t-26.5 46t-8 56q0 19 4 39.5t8.5 40t8.5 36t4 26.5q0 25 -25 25q-4 0 -10 -0.5t-11 -2.5zM395 404q0 22 -2.5 50.5t-8 58.5
t-15 58.5t-23.5 51t-34 36t-47 13.5q-38 0 -58 -26.5t-20 -67.5q0 -44 15 -75.5t42.5 -52t66 -31.5t84.5 -15z" />
    <glyph glyph-name="iota" unicode="&#x3b9;" horiz-adv-x="292" 
d="M115 501h89l-60 -359q-2 -14 -3.5 -26t-1.5 -22q0 -19 8 -28.5t30 -9.5q13 0 24.5 2t31.5 7l3 -63q-17 -5 -40 -10t-52 -5q-47 0 -71.5 21t-24.5 72q0 23 6 55z" />
    <glyph glyph-name="kappa" unicode="&#x3ba;" horiz-adv-x="503" 
d="M115 501h88l-36 -215h29q20 0 31 3.5t24 18.5l162 198l80 -19l-193 -233l146 -236l-82 -27l-118 196q-10 17 -20.5 23.5t-30.5 6.5h-40l-36 -217h-87z" />
    <glyph glyph-name="lambda" unicode="&#x3bb;" horiz-adv-x="519" 
d="M241 497l-13 95q-6 42 -15 57.5t-30 15.5q-15 0 -28.5 -3.5t-22.5 -6.5l-5 62q14 7 41 13t52 6q18 0 33 -3t27 -14t20.5 -32.5t13.5 -59.5l77 -526q5 -32 14.5 -41t25.5 -9q10 0 17 1.5t17 5.5l3 -61q-17 -7 -34.5 -11t-37.5 -4q-17 0 -32.5 3t-27.5 13t-21 28t-13 48
l-41 302l-216 -391l-81 15z" />
    <glyph glyph-name="uni03BC" unicode="&#x3bc;" horiz-adv-x="554" 
d="M116 501h86l-52 -297q-2 -15 -6 -39t-4 -44q0 -29 13.5 -48.5t53.5 -19.5q24 0 47.5 6.5t43 21.5t34 40t20.5 62l56 318h86l-71 -405l33 -75l-71 -37l-42 72q-29 -32 -63.5 -53t-81.5 -21q-10 0 -21.5 2t-23 6.5t-21 11.5t-15.5 18l-42 -238h-85z" />
    <glyph glyph-name="nu" unicode="&#x3bd;" horiz-adv-x="495" 
d="M77 393q-2 30 -8 43t-22 13q-11 0 -18 -2t-13 -4l-4 58q11 5 31 10t40 5q42 0 60 -22.5t22 -74.5l22 -321q2 -17 4 -26t11 -9t14.5 9.5t12.5 24.5l180 415l78 -16l-178 -405q-12 -28 -23.5 -48.5t-25.5 -34t-31.5 -20t-41.5 -6.5q-25 0 -41 7.5t-25.5 21.5t-14.5 35.5
t-7 50.5z" />
    <glyph glyph-name="xi" unicode="&#x3be;" horiz-adv-x="484" 
d="M262 -168q11 12 24 26.5t23.5 30.5t17.5 33.5t7 35.5t-12.5 25t-34.5 10q-43 7 -85.5 15.5t-77 27.5t-56 52.5t-21.5 89.5q0 84 44 137t119 75q-41 12 -64.5 51t-23.5 86q0 48 18 86.5t49.5 65.5t75 42t94.5 15q48 0 90.5 -11t69.5 -29l-34 -61q-29 16 -59.5 24t-68.5 8
q-61 0 -101.5 -36t-40.5 -99q0 -21 7.5 -40.5t22.5 -35t37 -24.5t51 -9h92l-11 -70h-100q-38 0 -70 -10.5t-55 -30.5t-36 -49t-13 -65q0 -29 8 -48.5t22 -32.5t34 -21t43 -13q21 -5 45 -8.5t47 -7.5q48 -8 66 -29t18 -56q0 -27 -10.5 -52.5t-26.5 -49t-36.5 -44.5t-39.5 -39
z" />
    <glyph glyph-name="omicron" unicode="&#x3bf;" horiz-adv-x="534" 
d="M215 47q42 0 73.5 24.5t52 64.5t30.5 91t10 103q0 59 -25 91.5t-73 32.5q-42 0 -73.5 -24.5t-52 -64.5t-30.5 -91t-10 -103q0 -57 23.5 -90.5t74.5 -33.5zM206 -18q-48 0 -82 16.5t-55.5 44.5t-31.5 64t-10 75q0 85 22.5 148.5t59 105.5t84.5 62.5t99 20.5q48 0 82 -16.5
t55.5 -44.5t31.5 -64t10 -75q0 -85 -22 -148.5t-58.5 -105.5t-84.5 -62.5t-100 -20.5z" />
    <glyph glyph-name="pi" unicode="&#x3c0;" horiz-adv-x="638" 
d="M129 430h-104l14 71h589l-14 -71h-117l-53 -294q-5 -28 -5 -42q0 -23 10.5 -31.5t31.5 -8.5t54 12l8 -55q-20 -11 -43 -18t-51 -7q-21 0 -39 4t-31 14t-20.5 28t-7.5 45q0 20 5 48l55 305h-197l-77 -430h-85z" />
    <glyph glyph-name="rho" unicode="&#x3c1;" horiz-adv-x="574" 
d="M78 281q9 53 27 97t48 75.5t72.5 48.5t100.5 17q91 0 139.5 -54t48.5 -151q0 -59 -14.5 -118t-45.5 -106.5t-80 -77.5t-117 -30q-44 0 -79 14t-55 31l-41 -245h-87zM136 96q13 -16 46 -32t81 -16q37 0 66.5 21.5t50 58t31.5 84.5t11 102q0 73 -25.5 104.5t-78.5 31.5
q-58 0 -97.5 -42t-55.5 -137z" />
    <glyph glyph-name="sigma1" unicode="&#x3c2;" horiz-adv-x="450" 
d="M216 -189q28 34 49.5 62.5t21.5 61.5q0 17 -13.5 27.5t-43.5 19.5q-19 5 -37.5 11t-34.5 13q-24 10 -47 24.5t-41 37t-29 55t-11 78.5q0 61 16.5 118.5t49.5 102t83.5 71t118.5 26.5q51 0 91 -13t66 -28l-35 -56q-30 17 -62 24.5t-64 7.5q-44 0 -77 -22t-54.5 -56
t-32 -75t-10.5 -79q0 -33 6.5 -57.5t19.5 -42t32 -30t44 -22.5q23 -9 38.5 -14t34.5 -11q38 -12 59.5 -30.5t21.5 -53.5q0 -28 -12 -55t-30 -51.5t-37.5 -44t-34.5 -32.5z" />
    <glyph glyph-name="sigma" unicode="&#x3c3;" horiz-adv-x="550" 
d="M565 501l-11 -68h-134q23 -25 36.5 -68.5t13.5 -89.5q0 -60 -18.5 -113t-52 -93t-81.5 -63.5t-107 -23.5q-49 0 -83.5 15.5t-56 42t-31.5 61.5t-10 75q0 51 12 98.5t35 87t57 70t79 48.5q25 10 60 15.5t75 5.5h217zM310 433q-52 0 -88.5 -23t-59 -59.5t-32.5 -82
t-10 -91.5q0 -60 24.5 -94.5t74.5 -34.5q37 0 67 19.5t51 52.5t32.5 77.5t11.5 94.5q0 46 -13 85t-37 56h-21z" />
    <glyph glyph-name="tau" unicode="&#x3c4;" horiz-adv-x="396" 
d="M141 433h-136l11 68h375l-11 -68h-152l-51 -303q-2 -10 -3 -19t-1 -17q0 -44 40 -44q16 0 31 3t34 9l4 -57q-17 -8 -42 -13t-50 -5q-55 0 -80 20.5t-25 71.5q0 12 1.5 25.5t3.5 28.5z" />
    <glyph glyph-name="upsilon" unicode="&#x3c5;" horiz-adv-x="540" 
d="M40 501q11 5 28.5 8t35.5 3q39 0 54.5 -20.5t15.5 -58.5q0 -15 -1.5 -33t-5.5 -38q-7 -38 -13 -69t-11 -62q-3 -19 -6 -42t-3 -43q0 -48 20 -71t71 -23q47 0 79 27t51.5 70.5t28 98t8.5 110.5q0 34 -2.5 71t-7.5 66l84 14q5 -26 9 -61t4 -68q0 -50 -5.5 -101t-19 -98
t-36.5 -87.5t-59 -67.5q-58 -44 -147 -44q-83 0 -123.5 39t-40.5 121q0 19 3.5 44.5t8 53.5t10 56.5t9.5 55.5q3 18 5 33t2 26q0 17 -5 25.5t-19 8.5q-4 0 -9 -0.5t-12 -2.5z" />
    <glyph glyph-name="phi" unicode="&#x3c6;" horiz-adv-x="711" 
d="M257 -16q-61 8 -104 28.5t-70.5 51.5t-40 70t-12.5 83q0 57 15 104t42 84t64 64.5t81 45.5l50 -46q-78 -32 -121 -93t-43 -149q0 -79 40.5 -124.5t109.5 -52.5l58 345q11 64 45 89.5t78 25.5q45 0 82 -15t63.5 -41.5t41.5 -64t15 -82.5q0 -71 -21 -129t-60.5 -100.5
t-97 -67.5t-129.5 -29l-33 -198h-87zM353 48q56 6 96 29t65.5 58.5t37 80t11.5 92.5q0 44 -10.5 71.5t-25 43t-31 21t-28.5 5.5q-25 0 -37.5 -15t-17.5 -44z" />
    <glyph glyph-name="chi" unicode="&#x3c7;" horiz-adv-x="487" 
d="M135 170l-48 226q-6 30 -12 42t-20 12q-9 0 -16.5 -1.5t-13.5 -3.5l-7 58q11 5 34.5 10.5t44.5 5.5q32 0 45.5 -22.5t23.5 -72.5l41 -192q5 -17 7.5 -24.5t10.5 -7.5q7 0 12 6t14 22l156 289l77 -22l-186 -337l52 -264q5 -23 12.5 -34t24.5 -11q10 0 17 1.5t13 3.5l6 -56
q-11 -5 -32 -11t-46 -6q-37 0 -53 20.5t-26 69.5l-43 219q-3 15 -5.5 22.5t-10.5 7.5q-6 0 -12 -8t-16 -24l-181 -310l-75 22z" />
    <glyph glyph-name="psi" unicode="&#x3c8;" horiz-adv-x="719" 
d="M258 -17q-44 6 -80 18t-62 37.5t-40.5 68.5t-14.5 109q0 30 3 66l19 214l89 13l-18 -219q-3 -38 -3 -69q0 -45 7 -76t22 -50.5t37 -29t52 -11.5l112 667h88l-113 -667q33 1 60.5 9.5t49.5 29.5t39.5 57.5t30.5 92.5l61 262l87 -12l-63 -259q-18 -75 -44.5 -122.5
t-61 -75.5t-77 -39.5t-93.5 -12.5l-34 -201h-88z" />
    <glyph glyph-name="omega" unicode="&#x3c9;" horiz-adv-x="764" 
d="M340 357h85l-21 -125q-6 -38 -6 -67q0 -53 18 -82t56 -29q36 0 60.5 21.5t40 56t22 77.5t6.5 87q0 60 -12 110.5t-26 80.5l84 35q7 -16 14.5 -41.5t13.5 -56.5t10 -66t4 -69q0 -60 -12.5 -115t-39.5 -98t-68.5 -68.5t-99.5 -25.5q-46 0 -82 23t-48 74q-31 -53 -73 -75
t-91 -22q-37 0 -64.5 13.5t-45.5 36.5t-26.5 55t-8.5 69q0 52 13.5 106.5t35 103.5t47 90t49.5 66l69 -34q-52 -66 -87.5 -149t-35.5 -180q0 -21 3.5 -40t11.5 -33.5t21 -23t32 -8.5q101 0 130 178z" />
    <glyph glyph-name="iotadieresis" unicode="&#x3ca;" horiz-adv-x="292" 
d="M115 501h89l-60 -359q-2 -14 -3.5 -26t-1.5 -22q0 -19 8 -28.5t30 -9.5q13 0 24.5 2t31.5 7l3 -63q-17 -5 -40 -10t-52 -5q-47 0 -71.5 21t-24.5 72q0 23 6 55zM78 604q-25 0 -38.5 16.5t-13.5 38.5q0 35 17.5 55.5t45.5 20.5q26 0 39.5 -17t13.5 -40q0 -34 -19 -54
t-45 -20zM274 604q-25 0 -38.5 16.5t-13.5 38.5q0 35 17.5 55.5t45.5 20.5q26 0 39.5 -17t13.5 -40q0 -34 -19 -54t-45 -20z" />
    <glyph glyph-name="upsilondieresis" unicode="&#x3cb;" horiz-adv-x="540" 
d="M40 501q11 5 28.5 8t35.5 3q39 0 54.5 -20.5t15.5 -58.5q0 -15 -1.5 -33t-5.5 -38q-7 -38 -13 -69t-11 -62q-3 -19 -6 -42t-3 -43q0 -48 20 -71t71 -23q47 0 79 27t51.5 70.5t28 98t8.5 110.5q0 34 -2.5 71t-7.5 66l84 14q5 -26 9 -61t4 -68q0 -50 -5.5 -101t-19 -98
t-36.5 -87.5t-59 -67.5q-58 -44 -147 -44q-83 0 -123.5 39t-40.5 121q0 19 3.5 44.5t8 53.5t10 56.5t9.5 55.5q3 18 5 33t2 26q0 17 -5 25.5t-19 8.5q-4 0 -9 -0.5t-12 -2.5zM172 604q-25 0 -38.5 16.5t-13.5 38.5q0 35 17.5 55.5t45.5 20.5q26 0 39.5 -17t13.5 -40
q0 -34 -19 -54t-45 -20zM368 604q-25 0 -38.5 16.5t-13.5 38.5q0 35 17.5 55.5t45.5 20.5q26 0 39.5 -17t13.5 -40q0 -34 -19 -54t-45 -20z" />
    <glyph glyph-name="omicrontonos" unicode="&#x3cc;" horiz-adv-x="534" 
d="M215 47q42 0 73.5 24.5t52 64.5t30.5 91t10 103q0 59 -25 91.5t-73 32.5q-42 0 -73.5 -24.5t-52 -64.5t-30.5 -91t-10 -103q0 -57 23.5 -90.5t74.5 -33.5zM206 -18q-48 0 -82 16.5t-55.5 44.5t-31.5 64t-10 75q0 85 22.5 148.5t59 105.5t84.5 62.5t99 20.5q48 0 82 -16.5
t55.5 -44.5t31.5 -64t10 -75q0 -85 -22 -148.5t-58.5 -105.5t-84.5 -62.5t-100 -20.5zM348 801l81 -28l-126 -196l-48 18z" />
    <glyph glyph-name="upsilontonos" unicode="&#x3cd;" horiz-adv-x="540" 
d="M40 501q11 5 28.5 8t35.5 3q39 0 54.5 -20.5t15.5 -58.5q0 -15 -1.5 -33t-5.5 -38q-7 -38 -13 -69t-11 -62q-3 -19 -6 -42t-3 -43q0 -48 20 -71t71 -23q47 0 79 27t51.5 70.5t28 98t8.5 110.5q0 34 -2.5 71t-7.5 66l84 14q5 -26 9 -61t4 -68q0 -50 -5.5 -101t-19 -98
t-36.5 -87.5t-59 -67.5q-58 -44 -147 -44q-83 0 -123.5 39t-40.5 121q0 19 3.5 44.5t8 53.5t10 56.5t9.5 55.5q3 18 5 33t2 26q0 17 -5 25.5t-19 8.5q-4 0 -9 -0.5t-12 -2.5zM337 801l81 -28l-126 -196l-48 18z" />
    <glyph glyph-name="omegatonos" unicode="&#x3ce;" horiz-adv-x="764" 
d="M340 357h85l-21 -125q-6 -38 -6 -67q0 -53 18 -82t56 -29q36 0 60.5 21.5t40 56t22 77.5t6.5 87q0 60 -12 110.5t-26 80.5l84 35q7 -16 14.5 -41.5t13.5 -56.5t10 -66t4 -69q0 -60 -12.5 -115t-39.5 -98t-68.5 -68.5t-99.5 -25.5q-46 0 -82 23t-48 74q-31 -53 -73 -75
t-91 -22q-37 0 -64.5 13.5t-45.5 36.5t-26.5 55t-8.5 69q0 52 13.5 106.5t35 103.5t47 90t49.5 66l69 -34q-52 -66 -87.5 -149t-35.5 -180q0 -21 3.5 -40t11.5 -33.5t21 -23t32 -8.5q101 0 130 178zM473 801l81 -28l-126 -196l-48 18z" />
    <glyph glyph-name="uni03A9" unicode="&#x3a9;" horiz-adv-x="697" 
d="M11 75h146q17 0 17 9q0 5 -3.5 11t-12.5 19q-19 25 -36 53t-30 59t-21 67t-8 78q0 69 22.5 134.5t65 117t105 82.5t143.5 31q64 0 113 -21t82 -57.5t49.5 -86t16.5 -107.5q0 -52 -14.5 -100t-40 -91.5t-60 -83t-75.5 -75.5q-11 -9 -17 -17.5t-6 -13.5q0 -8 13 -8h149
l-13 -75h-174q-35 0 -50.5 16.5t-15.5 39.5q0 20 8.5 40t33.5 44q36 34 65.5 67t51.5 69t34 78t12 95q0 47 -9.5 86t-30 67t-53.5 43.5t-79 15.5q-49 0 -91 -20.5t-72.5 -59t-48 -93t-17.5 -121.5q0 -38 5 -68t14.5 -56t22.5 -51t30 -52q9 -16 14.5 -31t5.5 -35
q0 -36 -26.5 -55t-75.5 -19h-152z" />
    <glyph glyph-name="afii10023" unicode="&#x401;" horiz-adv-x="514" 
d="M147 721h392l-14 -74h-300l-41 -233h231l-14 -76h-231l-47 -262h320l-13 -76h-411zM255 776q-23 0 -35.5 14.5t-12.5 36.5q0 35 18.5 57.5t49.5 22.5q23 0 35.5 -15.5t12.5 -38.5q0 -35 -19.5 -56t-48.5 -21zM451 776q-23 0 -35.5 14.5t-12.5 36.5q0 35 18.5 57.5
t49.5 22.5q23 0 35.5 -15.5t12.5 -38.5q0 -35 -19.5 -56t-48.5 -21z" />
    <glyph glyph-name="afii10051" unicode="&#x402;" horiz-adv-x="665" 
d="M213 647h-162l12 74h420l-13 -74h-165l-37 -220q30 23 67.5 38.5t84.5 15.5q83 0 129 -52.5t46 -149.5q0 -58 -14 -110t-44.5 -91.5t-79 -62.5t-116.5 -23q-23 0 -47 3t-34 7l21 66q8 -3 23.5 -5.5t32.5 -2.5q46 0 77 18t49.5 47.5t26 67.5t7.5 78q0 73 -26.5 105.5
t-77.5 32.5q-55 0 -96.5 -30.5t-52.5 -94.5l-46 -284h-93z" />
    <glyph glyph-name="afii10052" unicode="&#x403;" horiz-adv-x="484" 
d="M146 721h393l-13 -74h-302l-114 -647h-91zM457 961l56 -66l-188 -128l-36 40z" />
    <glyph glyph-name="afii10053" unicode="&#x404;" horiz-adv-x="530" 
d="M420 400l-11 -71h-264q-1 -15 -1.5 -30t-0.5 -30q0 -44 7.5 -82t25 -67t46.5 -45.5t73 -16.5q40 0 76.5 12t82.5 38l25 -68q-49 -29 -96.5 -43.5t-105.5 -14.5q-68 0 -113 22.5t-72 61.5t-38.5 91.5t-11.5 113.5q0 109 30 195.5t80 146.5t114.5 91.5t134.5 31.5
q48 0 88 -13t71 -36l-37 -62q-27 19 -59.5 28t-62.5 9q-47 0 -86.5 -19.5t-70.5 -54t-53.5 -82.5t-34.5 -106h264z" />
    <glyph glyph-name="afii10054" unicode="&#x405;" horiz-adv-x="549" 
d="M34 109q35 -22 78 -37t101 -15q35 0 65.5 10.5t53.5 29t36 44.5t13 57q0 24 -6 42.5t-21.5 34.5t-42.5 31t-69 32q-35 14 -65 29.5t-52.5 37t-35.5 51t-13 71.5q0 46 18 84.5t51.5 66.5t80.5 43t105 15q73 0 122.5 -18t73.5 -37l-38 -61q-23 16 -63.5 30t-102.5 14
q-71 0 -111 -34t-40 -88q0 -26 6.5 -43.5t22.5 -32t44 -28.5t70 -32q78 -33 119.5 -74.5t41.5 -108.5q0 -51 -16.5 -95.5t-50 -76.5t-84 -50.5t-117.5 -18.5q-73 0 -126.5 18t-88.5 41z" />
    <glyph glyph-name="uni0406" unicode="&#x406;" horiz-adv-x="257" 
d="M147 721h91l-128 -721h-91z" />
    <glyph glyph-name="afii10056" unicode="&#x407;" horiz-adv-x="256" 
d="M146 721h91l-128 -721h-91zM100 776q-23 0 -35.5 14.5t-12.5 36.5q0 35 18.5 57.5t49.5 22.5q23 0 35.5 -15.5t12.5 -38.5q0 -35 -19.5 -56t-48.5 -21zM296 776q-23 0 -35.5 14.5t-12.5 36.5q0 35 18.5 57.5t49.5 22.5q23 0 35.5 -15.5t12.5 -38.5q0 -35 -19.5 -56
t-48.5 -21z" />
    <glyph glyph-name="afii10057" unicode="&#x408;" horiz-adv-x="428" 
d="M-15 90q24 -14 51 -22.5t62 -8.5q34 0 56 9t35.5 26t21.5 42.5t14 58.5l94 526h91l-95 -539q-10 -55 -27 -93t-43 -62t-61.5 -34.5t-81.5 -10.5q-57 0 -95 13t-57 27z" />
    <glyph glyph-name="afii10058" unicode="&#x409;" horiz-adv-x="926" 
d="M-44 36q31 19 56.5 46t40.5 49q14 22 26 45.5t24 68.5l127 476h367l-52 -296h108q44 0 82 -10t66 -32t44 -56t16 -82q0 -117 -71.5 -181t-203.5 -64h-208l112 645h-193l-110 -407q-14 -54 -31 -90.5t-41 -66.5q-45 -57 -103 -94zM585 71q39 0 72.5 10t57.5 30t38 50
t14 69q0 38 -12 61.5t-31.5 36.5t-43.5 17.5t-49 4.5h-99l-49 -279h102z" />
    <glyph glyph-name="afii10059" unicode="&#x40a;" horiz-adv-x="955" 
d="M147 721h91l-54 -307h297l54 307h91l-55 -307h109q44 0 82.5 -8.5t67 -28t44.5 -52t16 -80.5q0 -117 -71.5 -181t-203.5 -64h-208l60 338h-297l-60 -338h-91zM614 71q39 0 72.5 10t57.5 30t38 50t14 69q0 38 -12.5 60t-32 33t-44 13.5t-49.5 2.5h-100l-48 -268h104z" />
    <glyph glyph-name="afii10060" unicode="&#x40b;" horiz-adv-x="661" 
d="M212 646h-162l13 75h421l-14 -75h-165l-36 -231q31 29 72 48t94 19q69 0 107.5 -33.5t38.5 -107.5q0 -13 -1.5 -27t-3.5 -29l-48 -285h-94l45 267q2 14 3.5 27.5t1.5 24.5q0 48 -21 69t-63 21q-29 0 -55 -10.5t-47 -29t-35 -44t-19 -55.5l-45 -270h-94z" />
    <glyph glyph-name="afii10061" unicode="&#x40c;" horiz-adv-x="568" 
d="M138 721h93l-52 -312h52q25 0 38 9t31 36l138 205q14 21 27 34t27.5 20.5t30 10.5t35.5 3l15 -64q-28 -3 -42 -14.5t-30 -36.5l-135 -203q-5 -8 -12 -15.5t-14 -12.5l167 -368l-91 -22l-154 342h-97l-60 -333h-93zM474 961l56 -66l-188 -128l-36 40z" />
    <glyph glyph-name="afii10062" unicode="&#x40e;" horiz-adv-x="551" 
d="M71 71q8 -3 24 -6t36 -3q17 0 30 2.5t25.5 11.5t25 26.5t27.5 48.5l14 28q-29 1 -49.5 7t-35 18.5t-23 32.5t-12.5 49l-58 422l92 20l51 -400q3 -23 7 -38.5t11 -25t19 -13.5t30 -4l218 482l86 -19l-258 -553q-22 -47 -43 -78.5t-44 -51t-51 -27.5t-63 -8q-26 0 -47.5 4
t-32.5 9zM250 914q8 -26 28.5 -44.5t64.5 -18.5q42 0 69.5 16.5t44.5 46.5l55 -18q-25 -62 -70.5 -88.5t-101.5 -26.5q-60 0 -100 30.5t-50 82.5z" />
    <glyph glyph-name="afii10145" unicode="&#x40f;" horiz-adv-x="654" 
d="M139 721h91l-108 -645h315l108 645h91l-120 -721h-198l-25 -142h-93l25 142h-206z" />
    <glyph glyph-name="afii10017" unicode="&#x410;" horiz-adv-x="603" 
d="M258 651q21 45 46.5 64.5t68.5 19.5q24 0 40.5 -4.5t27.5 -16t17.5 -32t9.5 -53.5l65 -628l-95 -15l-26 249h-256l-114 -249l-82 17zM404 310l-32 311q-2 22 -4.5 28.5t-10.5 6.5t-13 -7.5t-13 -25.5l-143 -313h216z" />
    <glyph glyph-name="afii10018" unicode="&#x411;" horiz-adv-x="572" 
d="M146 721h386l-12 -76h-298l-39 -220h127q44 0 82 -10t66 -32t44 -56t16 -82q0 -117 -71.5 -181t-203.5 -64h-224zM242 71q39 0 72.5 11t57.5 31t38 49.5t14 67.5t-12 61.5t-31.5 36.5t-43.5 17.5t-49 4.5h-119l-51 -279h124z" />
    <glyph glyph-name="afii10019" unicode="&#x412;" horiz-adv-x="578" 
d="M147 721h206q84 0 137 -39t53 -116q0 -64 -33.5 -111.5t-90.5 -78.5q47 -20 73.5 -57t26.5 -85q0 -61 -21 -105.5t-58 -73t-86 -42t-106 -13.5h-229zM263 71q34 0 64 9t52 27.5t34.5 47.5t12.5 69q0 30 -13 51t-33 34t-44 19t-46 6h-123l-46 -263h142zM305 407
q31 0 57 11t45.5 30.5t30.5 46t11 57.5q0 48 -30.5 73t-93.5 25h-102l-43 -243h125z" />
    <glyph glyph-name="afii10020" unicode="&#x413;" horiz-adv-x="484" 
d="M146 721h393l-13 -74h-302l-114 -647h-91z" />
    <glyph glyph-name="afii10021" unicode="&#x414;" horiz-adv-x="647" 
d="M-34 76h50q24 24 44.5 54t39 69.5t35.5 90.5t35 117l84 314h358l-114 -645h49l-37 -218h-93l25 142h-394l-25 -142h-93zM405 76l101 570h-188l-74 -273q-16 -58 -31 -103.5t-30 -81.5t-31.5 -63t-35.5 -49h289z" />
    <glyph glyph-name="afii10022" unicode="&#x415;" horiz-adv-x="514" 
d="M147 721h392l-14 -74h-300l-41 -233h231l-14 -76h-231l-47 -262h320l-13 -76h-411z" />
    <glyph glyph-name="afii10024" unicode="&#x416;" horiz-adv-x="877" 
d="M251 380q-5 4 -9 11t-6 15l-58 203q-8 27 -21 39t-46 14l18 64q7 1 13 1h12q36 0 59.5 -14t35.5 -55l61 -204q8 -28 19.5 -36.5t38.5 -8.5h37l52 312h93l-55 -312h32q26 0 40.5 8.5t31.5 36.5l129 205q13 21 26 34.5t27 20.5t30 10t36 3l15 -64q-28 -3 -42 -14t-30 -37
l-128 -203q-5 -8 -12 -15.5t-14 -12.5l170 -368l-91 -22l-157 342h-77l-58 -333h-93l61 333h-69l-272 -342l-92 22z" />
    <glyph glyph-name="afii10025" unicode="&#x417;" horiz-adv-x="534" 
d="M16 116q32 -23 75.5 -42t100.5 -19q84 0 128 41.5t44 107.5q0 69 -35.5 98t-96.5 29h-105l12 76h99q47 0 78.5 12t51 32.5t27.5 46.5t8 55q0 110 -108 110q-48 0 -90.5 -13.5t-80.5 -32.5l-27 58q14 9 37 19.5t52 19.5t62.5 15.5t69.5 6.5q49 0 84.5 -13.5t58 -36.5
t33 -52.5t10.5 -61.5q0 -41 -12.5 -74.5t-33.5 -59.5t-48.5 -44.5t-56.5 -28.5q22 -7 41.5 -20t34.5 -32t23.5 -45t8.5 -58q0 -50 -17 -92t-51.5 -72t-85.5 -47t-119 -17q-37 0 -70.5 7t-62 17.5t-50.5 23.5t-35 25z" />
    <glyph glyph-name="afii10026" unicode="&#x418;" horiz-adv-x="660" 
d="M146 721h94l-93 -515l384 411l18 104h93l-125 -721h-94l88 499l-384 -411l-14 -88h-94z" />
    <glyph glyph-name="afii10027" unicode="&#x419;" horiz-adv-x="660" 
d="M146 721h94l-93 -515l384 411l18 104h93l-125 -721h-94l88 499l-384 -411l-14 -88h-94zM323 913q8 -26 28.5 -44.5t64.5 -18.5q42 0 69.5 16.5t44.5 46.5l55 -18q-25 -62 -70.5 -88.5t-101.5 -26.5q-60 0 -100 30.5t-50 82.5z" />
    <glyph glyph-name="afii10028" unicode="&#x41a;" horiz-adv-x="568" 
d="M138 721h93l-52 -312h52q25 0 38 9t31 36l138 205q14 21 27 34t27.5 20.5t30 10.5t35.5 3l15 -64q-28 -3 -42 -14.5t-30 -36.5l-135 -203q-5 -8 -12 -15.5t-14 -12.5l167 -368l-91 -22l-154 342h-97l-60 -333h-93z" />
    <glyph glyph-name="afii10029" unicode="&#x41b;" horiz-adv-x="615" 
d="M-44 36q31 19 56.5 46t40.5 49q14 22 26 45.5t24 68.5l127 476h367l-127 -721h-93l113 645h-193l-110 -407q-14 -54 -31 -90.5t-41 -66.5q-45 -57 -103 -94z" />
    <glyph glyph-name="afii10030" unicode="&#x41c;" horiz-adv-x="758" 
d="M166 721h93l99 -370q5 -17 8.5 -22.5t10.5 -5.5t13 6t16 22l227 370h87l-95 -721h-90l75 545l-148 -237q-23 -36 -44.5 -58t-59.5 -22q-41 0 -56 21t-26 60l-68 242l-119 -551h-87z" />
    <glyph glyph-name="afii10031" unicode="&#x41d;" horiz-adv-x="644" 
d="M147 721h91l-54 -307h297l54 307h91l-128 -721h-91l60 338h-297l-60 -338h-91z" />
    <glyph glyph-name="afii10032" unicode="&#x41e;" horiz-adv-x="668" 
d="M270 -18q-62 0 -106 20.5t-72 57t-41 86.5t-13 110q0 99 25.5 186t72 152.5t111 103.5t142.5 38q60 0 105 -20.5t74 -57t43.5 -86.5t14.5 -110q0 -102 -25 -189.5t-71.5 -152t-112 -101.5t-147.5 -37zM279 57q60 0 106 34t77.5 91t47.5 131.5t16 155.5q0 89 -35 140.5
t-108 51.5q-60 0 -106 -34t-77 -91t-46.5 -131.5t-15.5 -155.5q0 -89 35 -140.5t106 -51.5z" />
    <glyph glyph-name="afii10033" unicode="&#x41f;" horiz-adv-x="633" 
d="M146 721h469l-127 -721h-90l113 645h-289l-113 -645h-90z" />
    <glyph glyph-name="afii10034" unicode="&#x420;" horiz-adv-x="564" 
d="M147 721h202q91 0 145.5 -41t54.5 -129q0 -57 -17.5 -105t-52.5 -83t-87.5 -54.5t-121.5 -19.5h-109l-51 -289h-91zM286 364q37 0 67.5 10t53 30.5t35 53t12.5 77.5q0 64 -33 89t-99 25h-97l-51 -285h112z" />
    <glyph glyph-name="afii10035" unicode="&#x421;" horiz-adv-x="540" 
d="M479 40q-49 -29 -96.5 -43.5t-105.5 -14.5q-68 0 -113 22.5t-72 61.5t-38.5 91.5t-11.5 113.5q0 109 30 195.5t80 146.5t114.5 91.5t134.5 31.5q48 0 88 -13t71 -36l-37 -62q-27 19 -59.5 28t-62.5 9q-59 0 -106.5 -30t-81.5 -83t-52 -125t-18 -155q0 -44 7.5 -82t25 -67
t46.5 -45.5t73 -16.5q40 0 76.5 12t82.5 38z" />
    <glyph glyph-name="afii10036" unicode="&#x422;" horiz-adv-x="489" 
d="M247 647h-197l14 74h485l-14 -74h-197l-115 -647h-91z" />
    <glyph glyph-name="afii10037" unicode="&#x423;" horiz-adv-x="551" 
d="M71 71q8 -3 24 -6t36 -3q17 0 30 2.5t25.5 11.5t25 26.5t27.5 48.5l14 28q-29 1 -49.5 7t-35 18.5t-23 32.5t-12.5 49l-58 422l92 20l51 -400q3 -23 7 -38.5t11 -25t19 -13.5t30 -4l218 482l86 -19l-258 -553q-22 -47 -43 -78.5t-44 -51t-51 -27.5t-63 -8q-26 0 -47.5 4
t-32.5 9z" />
    <glyph glyph-name="afii10038" unicode="&#x424;" horiz-adv-x="743" 
d="M276 89q-50 5 -91.5 21t-71.5 44.5t-46.5 70t-16.5 97.5q0 148 82.5 228t238.5 86l16 95h92l-18 -99q107 -9 168.5 -65t61.5 -161q0 -74 -22.5 -132t-65 -99t-103 -63.5t-135.5 -25.5l-17 -97h-91zM359 569q-57 -1 -97.5 -20t-66 -50.5t-37.5 -74t-12 -89.5
q0 -81 34 -126.5t106 -52.5zM377 154q57 3 98 23.5t68 54t39.5 76t12.5 88.5q0 34 -7 64t-23.5 52.5t-44.5 36.5t-70 17z" />
    <glyph glyph-name="afii10039" unicode="&#x425;" horiz-adv-x="566" 
d="M210 370l-129 333l87 28l108 -286q4 -10 7 -14t9 -4q10 0 21 16l207 291l76 -26l-242 -336l139 -356l-90 -26l-116 306q-7 17 -14 17t-19 -16l-225 -307l-76 28z" />
    <glyph glyph-name="afii10040" unicode="&#x426;" horiz-adv-x="658" 
d="M144 721h94l-113 -645h300l114 645h94l-114 -645h50l-37 -218h-93l24 142h-444z" />
    <glyph glyph-name="afii10041" unicode="&#x427;" horiz-adv-x="610" 
d="M428 295q-34 -13 -81.5 -23.5t-97.5 -10.5t-83.5 11t-53.5 31.5t-28.5 49t-8.5 63.5q0 17 2 36t5 39l39 230h92l-32 -188q-5 -32 -9 -58.5t-4 -48.5q0 -21 5 -37.5t17.5 -28t34.5 -17t55 -5.5q24 0 48.5 4t46.5 9.5t39 11.5t26 11l59 347h92l-127 -721h-92z" />
    <glyph glyph-name="afii10042" unicode="&#x428;" horiz-adv-x="860" 
d="M145 721h91l-114 -644h211l114 644h91l-115 -644h215l114 644h90l-126 -721h-697z" />
    <glyph glyph-name="afii10043" unicode="&#x429;" horiz-adv-x="867" 
d="M145 721h91l-114 -644h211l114 644h91l-115 -644h215l114 644h90l-112 -639h58l-38 -224h-93l25 142h-663z" />
    <glyph glyph-name="afii10044" unicode="&#x42a;" horiz-adv-x="650" 
d="M197 645h-142l14 76h233l-52 -296h127q44 0 82 -10t66 -32t44 -56t16 -82q0 -117 -71.5 -181t-203.5 -64h-227zM309 71q39 0 72.5 10t57.5 30t38 50t14 69q0 38 -12 61.5t-31.5 36.5t-43.5 17.5t-49 4.5h-119l-51 -279h124z" />
    <glyph glyph-name="afii10045" unicode="&#x42b;" horiz-adv-x="792" 
d="M146 721h92l-52 -296h109q44 0 82 -10t66 -32t44 -56t16 -82q0 -117 -71.5 -181t-203.5 -64h-209zM227 71q39 0 72.5 10t57.5 30t38 50t14 69q0 38 -12 61.5t-31.5 36.5t-43.5 17.5t-49 4.5h-101l-51 -279h106zM682 721h91l-128 -721h-91z" />
    <glyph glyph-name="afii10046" unicode="&#x42c;" horiz-adv-x="568" 
d="M146 721h92l-52 -296h109q44 0 82 -10t66 -32t44 -56t16 -82q0 -117 -71.5 -181t-203.5 -64h-209zM227 71q39 0 72.5 10t57.5 30t38 50t14 69q0 38 -12 61.5t-31.5 36.5t-43.5 17.5t-49 4.5h-101l-51 -279h106z" />
    <glyph glyph-name="afii10047" unicode="&#x42d;" horiz-adv-x="556" 
d="M23 93q13 -8 31.5 -15t38 -12t38.5 -7.5t34 -2.5q51 0 90.5 18.5t68 53t46.5 82.5t26 108h-270l11 71h265q0 11 0.5 21.5t0.5 21.5q0 48 -7.5 90t-25 72.5t-47 48t-72.5 17.5q-40 0 -77 -12t-79 -32l-30 62q46 26 96 42t108 16q68 0 113 -25t72 -67t38.5 -97.5
t11.5 -116.5q0 -110 -23 -193.5t-65.5 -140t-104 -85.5t-139.5 -29q-24 0 -50.5 3.5t-51.5 9.5t-47 15t-37 21z" />
    <glyph glyph-name="afii10048" unicode="&#x42e;" horiz-adv-x="897" 
d="M147 721h94l-54 -304h118q16 69 45 127.5t70.5 101t93.5 66.5t114 24q60 0 103 -20.5t70.5 -57t40.5 -86.5t13 -110q0 -102 -23.5 -189.5t-68 -152t-108.5 -101.5t-146 -37q-62 0 -104.5 20.5t-68.5 57t-37.5 86.5t-11.5 110q0 20 1 39.5t3 39.5h-118l-60 -335h-94z
M518 57q60 0 104.5 34t74 91t44 131.5t14.5 155.5q0 44 -7 79.5t-23 60.5t-41.5 38.5t-61.5 13.5q-60 0 -104.5 -34t-73.5 -91t-43 -131.5t-14 -155.5q0 -44 7 -79.5t23 -60.5t41 -38.5t60 -13.5z" />
    <glyph glyph-name="afii10049" unicode="&#x42f;" horiz-adv-x="573" 
d="M-15 42q56 35 91.5 80t63.5 109l35 82q-41 14 -70.5 56.5t-29.5 108.5q0 62 20.5 108t55 76t81 44.5t98.5 14.5h225l-126 -721h-93l53 290h-128l-28 -66q-30 -74 -75 -135t-115 -101zM402 366l47 283h-115q-74 0 -117.5 -41.5t-43.5 -124.5q0 -61 31.5 -89t97.5 -28h100z
" />
    <glyph glyph-name="afii10065" unicode="&#x430;" horiz-adv-x="528" 
d="M325 55q-32 -31 -66.5 -52t-81.5 -21q-71 0 -109 46.5t-38 136.5q0 79 21.5 145.5t61.5 114.5t97 75t127 27q49 0 85.5 -10t52.5 -17l-70 -405l34 -74l-72 -37zM382 455q-10 4 -23.5 6.5t-33.5 2.5q-43 0 -80.5 -21t-65 -59t-43 -90.5t-15.5 -114.5q0 -39 6 -63.5
t16.5 -38.5t26 -19t34.5 -5q18 0 38 8t39 24t33 40t20 57z" />
    <glyph glyph-name="afii10066" unicode="&#x431;" horiz-adv-x="536" 
d="M513 728q-8 -22 -14.5 -38t-13.5 -28.5t-16.5 -22t-22.5 -16.5q-20 -11 -50.5 -19.5t-77.5 -16.5q-43 -7 -72 -21t-48.5 -36t-31.5 -53.5t-20 -74.5q33 37 77 57t91 20q43 0 74 -14t51.5 -38t30.5 -56.5t10 -70.5q0 -63 -15 -120.5t-46.5 -101.5t-80.5 -70t-116 -26
q-51 0 -86 17t-56 48t-30 73.5t-9 92.5q0 39 4.5 85t15.5 92.5t29.5 91t46.5 80.5t66.5 61t89.5 33q29 5 52.5 10t47.5 12q20 5 33.5 18.5t28.5 46.5zM232 48q46 0 76.5 26t48 63.5t24.5 80t7 75.5q0 57 -26 86.5t-77 29.5q-44 0 -73.5 -18t-48 -48.5t-26.5 -71t-8 -85.5
q0 -28 5 -53t17 -44t31.5 -30t49.5 -11z" />
    <glyph glyph-name="afii10067" unicode="&#x432;" horiz-adv-x="493" 
d="M331 270q38 -10 65 -36.5t27 -78.5q0 -44 -17.5 -76.5t-46 -54t-65 -32t-74.5 -10.5q-91 0 -134.5 51t-43.5 150q0 60 15.5 121t47.5 110.5t81 81t116 31.5q66 0 103.5 -32.5t37.5 -83.5q0 -27 -9.5 -49.5t-25 -39.5t-35.5 -30t-42 -22zM130 190q0 -32 4 -58t14.5 -45
t28.5 -29.5t47 -10.5q23 0 43.5 6t35.5 19.5t23.5 34t8.5 50.5q0 21 -7.5 35.5t-20 22.5t-29 11.5t-34.5 3.5q-27 0 -59 -6t-55 -12v-22zM138 275q60 8 101.5 21t66.5 30t36 37t11 41q0 29 -18.5 44t-45.5 15q-35 0 -60.5 -17t-43.5 -44t-29.5 -60.5t-17.5 -66.5z" />
    <glyph glyph-name="afii10068" unicode="&#x433;" horiz-adv-x="388" 
d="M320 29q-35 -23 -81 -35t-85 -12q-44 0 -72 11.5t-44.5 29.5t-23 40t-6.5 42q0 37 11.5 63t32.5 46t50.5 38t65.5 39q21 12 40 23.5t34 24.5t23.5 29.5t8.5 37.5q0 33 -18.5 45t-43.5 12q-34 0 -68 -14t-64 -31l-28 51q49 32 97 45t89 13q24 0 47 -5.5t41.5 -18t29.5 -34
t11 -53.5q0 -29 -9.5 -51t-28.5 -42t-48 -39t-68 -41q-26 -15 -47.5 -27.5t-36.5 -26t-23 -30.5t-8 -41q0 -34 19.5 -52.5t55.5 -18.5q15 0 32.5 3.5t34.5 9t31.5 12t24.5 12.5z" />
    <glyph glyph-name="afii10069" unicode="&#x434;" horiz-adv-x="542" 
d="M128 701q23 9 59.5 18t74.5 9q111 0 168 -70.5t57 -230.5q0 -39 -4.5 -87.5t-16 -98t-31 -96t-49.5 -83t-71.5 -58.5t-97.5 -22q-53 0 -88.5 16t-57.5 43.5t-31 65t-9 79.5q0 55 14 107.5t42 93.5t71 66.5t102 25.5q54 0 92 -25t57 -65q1 8 1 17v17q0 46 -7 89t-24.5 77
t-48 54.5t-76.5 20.5q-28 0 -58.5 -6.5t-50.5 -13.5zM220 47q42 0 72 24t49.5 59.5t28.5 76.5t9 75q0 60 -29 96t-84 36q-46 0 -74.5 -25t-44 -61t-21 -77t-5.5 -73q0 -26 4 -50t15.5 -42t30.5 -28.5t49 -10.5z" />
    <glyph glyph-name="afii10070" unicode="&#x435;" horiz-adv-x="471" 
d="M135 277q11 -1 29.5 -1.5t38.5 -0.5q32 0 60 8t49 23.5t33.5 38t12.5 51.5t-16.5 47.5t-49.5 18.5q-30 0 -55 -16.5t-45.5 -42.5t-35 -59.5t-21.5 -66.5zM126 219q-1 -9 -1 -18v-14q0 -66 27 -101t83 -35q37 0 63.5 10t49.5 21l20 -63q-27 -14 -62 -25.5t-82 -11.5
q-51 0 -87 15.5t-58.5 41.5t-33 61.5t-10.5 74.5q0 66 19 129.5t54 113t85 79.5t113 30q39 0 65.5 -10.5t42.5 -27.5t22.5 -38t6.5 -42q0 -46 -18.5 -82t-51 -60.5t-77 -37.5t-96.5 -13q-14 0 -32 0.5t-42 2.5z" />
    <glyph glyph-name="afii10072" unicode="&#x436;" horiz-adv-x="660" 
d="M170 274q-8 7 -12 21l-34 122q-9 31 -24 39t-37 8l16 58q27 0 45.5 -5t30.5 -14t19.5 -22.5t12.5 -30.5l37 -128q7 -22 30 -22h38l36 214h84l-36 -214h37q24 0 37 22l84 138q23 37 50 49.5t55 12.5l14 -57q-23 -4 -38 -13.5t-26 -28.5l-75 -127q-11 -16 -23 -25l113 -253
l-80 -25l-105 238h-56l-40 -231h-84l42 231h-46l-184 -238l-76 25z" />
    <glyph glyph-name="afii10073" unicode="&#x437;" horiz-adv-x="430" 
d="M14 100q22 -18 60 -33.5t80 -15.5q24 0 46 6t38.5 18.5t26.5 32t10 46.5q0 34 -22 55t-70 21h-88l11 64h81q57 0 84 27.5t27 65.5q0 36 -19.5 53.5t-53.5 17.5t-71.5 -11t-64.5 -23l-24 54q28 15 76 32t106 17q36 0 63 -9.5t45 -25.5t26.5 -37t8.5 -44q0 -54 -27.5 -87.5
t-70.5 -55.5q31 -11 51.5 -37.5t20.5 -68.5q0 -86 -57 -133t-154 -47q-63 0 -110.5 18.5t-72.5 41.5z" />
    <glyph glyph-name="afii10074" unicode="&#x438;" horiz-adv-x="547" 
d="M114 514h86l-54 -298q-2 -9 -4 -22t-3.5 -27t-3 -26.5t-1.5 -19.5q0 -68 70 -68q57 0 94.5 34.5t51.5 111.5l56 315h86l-74 -417l33 -76l-71 -37l-42 72q-13 -14 -28 -27t-33.5 -23.5t-41.5 -17t-52 -6.5q-36 0 -62 9.5t-42 26.5t-23.5 40t-7.5 50q0 9 1 21.5t2.5 26
t3 26.5t3.5 23z" />
    <glyph glyph-name="afii10075" unicode="&#x439;" horiz-adv-x="547" 
d="M114 514h86l-54 -298q-2 -9 -4 -22t-3.5 -27t-3 -26.5t-1.5 -19.5q0 -68 70 -68q57 0 94.5 34.5t51.5 111.5l56 315h86l-74 -417l33 -76l-71 -37l-42 72q-13 -14 -28 -27t-33.5 -23.5t-41.5 -17t-52 -6.5q-36 0 -62 9.5t-42 26.5t-23.5 40t-7.5 50q0 9 1 21.5t2.5 26
t3 26.5t3.5 23zM227 724q8 -26 28.5 -44.5t64.5 -18.5q42 0 69.5 16.5t44.5 46.5l55 -18q-25 -62 -70.5 -88.5t-101.5 -26.5q-60 0 -100 30.5t-50 82.5z" />
    <glyph glyph-name="afii10076" unicode="&#x43a;" horiz-adv-x="462" 
d="M115 514h84l-39 -218h51q24 0 37 22l90 142q23 37 50 49.5t55 12.5l14 -57q-23 -4 -38 -13.5t-26 -28.5l-72 -121q-5 -8 -12.5 -17t-13.5 -13l113 -254l-80 -25l-105 238h-74l-41 -231h-84z" />
    <glyph glyph-name="afii10077" unicode="&#x43b;" horiz-adv-x="502" 
d="M-35 28q44 38 65.5 73t33.5 80l89 333h298l-86 -514h-87l74 445h-137l-73 -272q-14 -54 -40.5 -100t-73.5 -81z" />
    <glyph glyph-name="afii10078" unicode="&#x43c;" horiz-adv-x="621" 
d="M111 514h77l89 -266q3 -8 6 -12.5t9 -4.5q7 0 10.5 4t11.5 14l176 265h81l-89 -514h-85l62 353l-98 -149q-23 -32 -42 -43.5t-39 -11.5q-22 0 -37 11.5t-24 38.5l-53 154l-62 -353h-82z" />
    <glyph glyph-name="afii10079" unicode="&#x43d;" horiz-adv-x="553" 
d="M111 514h87l-36 -211h216l37 211h88l-90 -514h-87l42 236h-216l-43 -236h-87z" />
    <glyph glyph-name="afii10080" unicode="&#x43e;" horiz-adv-x="534" 
d="M218 47q42 0 73.5 24.5t52 64.5t30.5 91t10 103q0 66 -25 99t-73 33q-42 0 -73.5 -24.5t-52 -65t-30.5 -92t-10 -105.5q0 -57 23.5 -92.5t74.5 -35.5zM209 -18q-48 0 -82 17t-55.5 45.5t-31.5 65.5t-10 76q0 89 22.5 153.5t59 106t84.5 61.5t99 20q48 0 82 -16.5
t55.5 -45t31.5 -66t10 -80.5q0 -85 -22 -148.5t-58.5 -105.5t-84.5 -62.5t-100 -20.5z" />
    <glyph glyph-name="afii10081" unicode="&#x43f;" horiz-adv-x="553" 
d="M97 412l-24 79l72 35l33 -76q11 13 27 26.5t37 24.5t47.5 18.5t58.5 7.5q34 0 58.5 -9.5t40.5 -26.5t23.5 -40t7.5 -50q0 -9 -1 -21.5t-2.5 -26t-3 -26.5t-3.5 -23l-54 -304h-86l52 293q1 9 3.5 22t4 27t3 26t1.5 20q0 66 -70 66q-29 0 -55 -10.5t-47 -29t-35 -45
t-20 -59.5l-54 -310h-86z" />
    <glyph glyph-name="afii10082" unicode="&#x440;" horiz-adv-x="541" 
d="M119 58q13 -4 31.5 -7.5t38.5 -3.5q38 0 74 16.5t64.5 52t45.5 91.5t17 134q0 34 -5.5 56t-16.5 35t-27 18t-37 5q-22 0 -44 -8.5t-41.5 -25t-33.5 -42t-20 -58.5zM94 412l-24 79l72 35l33 -73q24 29 66 51.5t94 22.5q66 0 106.5 -46t40.5 -132q0 -91 -23 -159.5
t-63 -114t-93.5 -68.5t-113.5 -23q-43 0 -81 11l-38 -213h-86z" />
    <glyph glyph-name="afii10083" unicode="&#x441;" horiz-adv-x="443" 
d="M364 16q-25 -13 -61.5 -23.5t-82.5 -10.5q-94 0 -139.5 53t-45.5 146q0 67 17 129.5t52.5 110.5t89 77t126.5 29q41 0 74 -11t54 -25l-34 -55q-17 10 -42.5 18t-57.5 8q-50 0 -85 -24t-58 -63t-33.5 -88t-10.5 -100q0 -74 28 -105.5t79 -31.5q29 0 60 9t53 20z" />
    <glyph glyph-name="afii10084" unicode="&#x442;" horiz-adv-x="794" 
d="M97 412l-24 79l72 35l32 -73q13 13 29.5 26.5t35.5 24t40 17t43 6.5q53 0 80.5 -22.5t38.5 -53.5q10 11 25.5 24.5t35 25t42 19t46.5 7.5q36 0 60 -10t38.5 -27.5t21 -40.5t6.5 -48q0 -19 -3 -42t-7 -43l-55 -316h-86l53 305q3 17 6.5 40t3.5 36q0 33 -13 53t-48 20
q-24 0 -45.5 -10t-39 -27.5t-29.5 -41t-16 -49.5l-57 -326h-86l53 305q1 6 3 17t3.5 22.5t2.5 22t1 15.5q0 29 -11.5 50.5t-46.5 21.5q-18 0 -38.5 -7.5t-40 -23t-34.5 -40t-21 -57.5l-57 -326h-86z" />
    <glyph glyph-name="afii10085" unicode="&#x443;" horiz-adv-x="489" 
d="M-17 -142q16 -7 33 -11.5t40 -4.5q25 0 42.5 6.5t31 18.5t24 30t21.5 42l30 69h-6q-29 0 -49.5 9.5t-34 28t-21.5 45.5t-12 62l-40 354l90 15l37 -367q3 -26 7.5 -43t11 -26.5t16 -13t21.5 -3.5h7l177 454l80 -16l-238 -585q-30 -74 -75 -110t-116 -36q-35 0 -57.5 4.5
t-42.5 13.5z" />
    <glyph glyph-name="afii10086" unicode="&#x444;" horiz-adv-x="794" 
d="M297 36q-16 -20 -47.5 -37t-74.5 -17q-66 0 -105.5 47.5t-39.5 137.5q0 85 21 151.5t58 113t88 71t111 24.5q21 0 38 -3t34 -8l37 205h86l-45 -251q23 22 53.5 39.5t75.5 17.5q66 0 104 -46t38 -132q0 -87 -20.5 -155t-57 -115t-86.5 -72t-108 -25q-26 0 -45 3t-37 8
l-38 -210h-85zM386 56q13 -4 29 -7.5t36 -3.5q38 0 71.5 18.5t59 55.5t40.5 92.5t15 129.5q0 34 -6 56t-17 35t-26 18t-32 5q-42 0 -76 -29.5t-45 -90.5zM369 454q-13 4 -27.5 7t-33.5 3q-38 0 -71.5 -18t-59 -55t-40.5 -92t-15 -129q0 -63 22 -89.5t64 -26.5q18 0 36 5.5
t33 17t26 29.5t15 43z" />
    <glyph glyph-name="afii10087" unicode="&#x445;" horiz-adv-x="433" 
d="M138 258l-93 238l80 24l75 -201q4 -10 6 -13t5 -3q5 0 15 14l138 205l69 -23l-162 -237l99 -250l-80 -23l-77 204q-5 11 -7.5 15.5t-8.5 4.5t-10 -5t-12 -16l-145 -205l-70 24z" />
    <glyph glyph-name="afii10088" unicode="&#x446;" horiz-adv-x="544" 
d="M113 514h86l-53 -298q-2 -9 -4 -22t-3.5 -27t-3 -26.5t-1.5 -19.5q0 -68 70 -68q57 0 94.5 34.5t51.5 111.5l55 315h86l-72 -388q-4 -17 -4 -33q0 -20 10 -29t34 -12l18 -2l-30 -169h-77l24 121q-17 5 -31 17.5t-19 32.5q-26 -26 -64.5 -48t-96.5 -22q-36 0 -62 9.5
t-42 26.5t-23.5 40t-7.5 50q0 9 1 21.5t2.5 26t3 26.5t3.5 23z" />
    <glyph glyph-name="afii10089" unicode="&#x447;" horiz-adv-x="505" 
d="M317 201q-26 -9 -60 -15t-64 -6q-75 0 -109 30.5t-34 88.5q0 10 1 21t3 22l28 172h85l-27 -159q-2 -13 -3.5 -23.5t-1.5 -20.5q0 -34 16 -50t61 -16q34 0 68 6.5t48 13.5l41 249h86l-90 -514h-85z" />
    <glyph glyph-name="afii10090" unicode="&#x448;" horiz-adv-x="798" 
d="M114 514h86l-54 -310q-3 -17 -6.5 -40t-3.5 -36q0 -33 13 -53t48 -20q24 0 45.5 10t39 27.5t29 41t16.5 49.5l58 331h86l-54 -310q-1 -6 -3 -17t-3.5 -22.5t-2.5 -22t-1 -15.5q0 -29 11.5 -50.5t46.5 -21.5q18 0 38.5 7.5t40 23t34.5 40t21 57.5l58 331h86l-73 -417
l24 -79l-72 -35l-32 73q-27 -31 -61.5 -52.5t-81.5 -21.5q-53 0 -80.5 23t-38.5 53q-33 -34 -69.5 -55t-84.5 -21q-36 0 -60 10t-38.5 27.5t-21 40t-6.5 48.5q0 19 3 42t7 43z" />
    <glyph glyph-name="afii10091" unicode="&#x449;" horiz-adv-x="798" 
d="M114 514h86l-54 -310q-3 -17 -6.5 -40t-3.5 -36q0 -33 13 -53t48 -20q24 0 45.5 10t39 27.5t29 41t16.5 49.5l58 331h86l-54 -310q-1 -6 -3 -17t-3.5 -22.5t-2.5 -22t-1 -15.5q0 -29 11.5 -50.5t46.5 -21.5q18 0 38.5 7.5t40 23t34.5 40t21 57.5l58 331h86l-68 -388
q-3 -18 -3 -31q0 -23 10 -32t33 -11l18 -2l-30 -169h-77l24 122q-18 5 -32.5 18.5t-18.5 33.5q-31 -35 -69 -54t-81 -19q-28 0 -48 6t-34.5 16.5t-23.5 24t-15 29.5q-11 -13 -27 -26.5t-36 -24.5t-43 -18t-48 -7q-36 0 -60 10t-38.5 27.5t-21 40t-6.5 48.5q0 19 3 42t7 43z
" />
    <glyph glyph-name="afii10092" unicode="&#x44a;" horiz-adv-x="509" 
d="M119 447h-98l11 67h183l-39 -234q30 13 61.5 22t69.5 9q28 0 53.5 -7.5t45 -23t31.5 -40.5t12 -59q0 -36 -10.5 -69.5t-38.5 -60t-76.5 -42.5t-124.5 -16q-22 0 -45 1.5t-43.5 3.5t-38 5.5t-29.5 6.5zM139 61q11 -2 31.5 -4t33.5 -2q44 0 73 10t46.5 26.5t25 39t7.5 47.5
q0 38 -21 54.5t-53 16.5q-55 0 -116 -29z" />
    <glyph glyph-name="afii10093" unicode="&#x44b;" horiz-adv-x="712" 
d="M573 514h89l-91 -514h-89zM114 514h84l-39 -234q30 13 59 22t67 9q28 0 53.5 -7.5t45 -23t31.5 -40.5t12 -59q0 -36 -10 -69.5t-37 -60t-75 -42.5t-124 -16q-22 0 -45 1.5t-43.5 3.5t-38 5.5t-29.5 6.5zM121 61q11 -2 31.5 -4t33.5 -2q42 0 70.5 10t46 26.5t24.5 39
t7 47.5q0 38 -21 54.5t-53 16.5q-27 0 -54 -7.5t-57 -21.5z" />
    <glyph glyph-name="afii10094" unicode="&#x44c;" horiz-adv-x="487" 
d="M114 514h84l-39 -234q30 13 59 22t67 9q28 0 53.5 -7.5t45 -23.5t31.5 -41.5t12 -61.5q0 -32 -10 -64.5t-37 -59t-75 -43.5t-124 -17q-22 0 -45 1.5t-43.5 3.5t-38 5.5t-29.5 6.5zM121 61q11 -2 31.5 -4t33.5 -2q42 0 70.5 9.5t46 26t24.5 38.5t7 46q0 40 -21 57t-53 17
q-27 0 -54 -7.5t-57 -21.5z" />
    <glyph glyph-name="afii10095" unicode="&#x44d;" horiz-adv-x="437" 
d="M3 74q8 -5 21 -10t29 -8.5t33 -6t33 -2.5q69 0 109 46t53 127h-212l10 65h207v12q0 47 -7 78.5t-20.5 50t-33.5 26.5t-45 8q-35 0 -64.5 -8t-50.5 -16l-24 55q25 13 66 24.5t86 11.5q47 0 81.5 -16t57.5 -46t34 -71.5t11 -92.5q0 -77 -18 -136.5t-51.5 -100t-80 -61.5
t-103.5 -21q-48 0 -90 11.5t-63 25.5z" />
    <glyph glyph-name="afii10096" unicode="&#x44e;" horiz-adv-x="728" 
d="M111 514h84l-36 -216h87q13 58 37.5 101t57.5 71.5t72 42.5t81 14q48 0 81 -16.5t54 -45t30 -66t9 -80.5q0 -85 -21 -148.5t-57 -105.5t-83 -62.5t-99 -20.5q-48 0 -81.5 16.5t-54 44.5t-29.5 64t-9 75q0 12 0.5 24t1.5 23h-88l-38 -229h-85zM417 47q42 0 72.5 24.5
t50 64.5t29 91t9.5 103q0 63 -22.5 97.5t-70.5 34.5q-42 0 -72.5 -24.5t-50 -65t-29 -93t-9.5 -108.5q0 -57 21 -90.5t72 -33.5z" />
    <glyph glyph-name="afii10097" unicode="&#x44f;" horiz-adv-x="501" 
d="M0 22q15 9 34.5 29.5t39 48t37 59t28.5 63.5q-44 21 -61 55t-17 68q0 46 16 80t45 56.5t68.5 34t86.5 11.5q20 0 44 -2t47.5 -5t45 -6.5t37.5 -7.5l-89 -506h-90l40 201q-11 -1 -20.5 -1h-18.5q-15 0 -30 1.5t-28 3.5q-20 -57 -57.5 -115.5t-91.5 -100.5zM353 455
q-19 5 -40.5 7t-40.5 2q-57 0 -89 -28.5t-32 -79.5q0 -16 4 -33t17.5 -31t39 -23t68.5 -9q10 0 20.5 0.5t21.5 1.5z" />
    <glyph glyph-name="afii10071" unicode="&#x451;" horiz-adv-x="471" 
d="M135 277q11 -1 29.5 -1.5t38.5 -0.5q30 0 58 8t49.5 23.5t34.5 38t13 51.5q0 58 -66 58q-30 0 -55 -15t-45.5 -40t-35 -57t-21.5 -65zM126 219q-1 -9 -1 -18v-14q0 -66 27 -101t83 -35q37 0 63.5 10t49.5 21l20 -63q-27 -14 -62 -25.5t-82 -11.5q-51 0 -87 15.5
t-58.5 41.5t-33 61.5t-10.5 74.5q0 66 19 128t54 110t85 77t113 29q39 0 65.5 -9.5t42.5 -24.5t22.5 -35t6.5 -41q0 -46 -18.5 -82t-51 -60.5t-77 -37.5t-96.5 -13q-14 0 -32 0.5t-42 2.5zM178 604q-25 0 -38.5 16.5t-13.5 38.5q0 35 17.5 55.5t45.5 20.5q26 0 39.5 -17
t13.5 -40q0 -34 -19 -54t-45 -20zM374 604q-25 0 -38.5 16.5t-13.5 38.5q0 35 17.5 55.5t45.5 20.5q26 0 39.5 -17t13.5 -40q0 -34 -19 -54t-45 -20z" />
    <glyph glyph-name="afii10099" unicode="&#x452;" horiz-adv-x="547" 
d="M182 -173q62 49 102 109.5t63.5 122t32.5 121t9 107.5q0 63 -17 90.5t-59 27.5q-24 0 -48.5 -9.5t-45 -27t-35.5 -43t-21 -57.5l-47 -268h-86l103 580h-50l11 69h51l16 87h85l-16 -87h171l-11 -69h-172l-30 -170q12 11 27.5 23t35 22t42.5 16.5t51 6.5q60 0 96.5 -41.5
t36.5 -137.5q0 -91 -21.5 -170.5t-57 -145t-81 -116.5t-92.5 -85z" />
    <glyph glyph-name="afii10100" unicode="&#x453;" horiz-adv-x="388" 
d="M320 29q-35 -23 -81 -35t-85 -12q-44 0 -72 11.5t-44.5 29.5t-23 40t-6.5 42q0 37 11.5 63t32.5 46t50.5 38t65.5 39q21 12 40 23.5t34 24.5t23.5 29.5t8.5 37.5q0 33 -18.5 45t-43.5 12q-34 0 -68 -14t-64 -31l-28 51q49 32 97 45t89 13q24 0 47 -5.5t41.5 -18t29.5 -34
t11 -53.5q0 -29 -9.5 -51t-28.5 -42t-48 -39t-68 -41q-26 -15 -47.5 -27.5t-36.5 -26t-23 -30.5t-8 -41q0 -34 19.5 -52.5t55.5 -18.5q15 0 32.5 3.5t34.5 9t31.5 12t24.5 12.5zM305 797l66 -56l-165 -159l-42 34z" />
    <glyph glyph-name="afii10101" unicode="&#x454;" horiz-adv-x="453" 
d="M336 285l-10 -65h-193q-1 -8 -1 -16.5v-16.5q0 -74 28 -105.5t79 -31.5q29 0 60 9t53 20l17 -63q-25 -13 -61.5 -23.5t-82.5 -10.5q-94 0 -139.5 53t-45.5 146q0 67 17 129.5t52.5 110.5t89 77t126.5 29q41 0 74 -11t54 -25l-34 -55q-17 10 -42.5 18t-57.5 8
q-38 0 -67 -14t-51 -38t-36.5 -56.5t-22.5 -68.5h194z" />
    <glyph glyph-name="afii10102" unicode="&#x455;" horiz-adv-x="419" 
d="M17 80q59 -32 129 -32q57 0 87.5 24t30.5 66q0 16 -4 29t-14.5 23.5t-28.5 20t-45 19.5q-28 10 -50.5 21.5t-38.5 27.5t-25 37t-9 50q0 75 53 118t142 43q44 0 82.5 -11.5t61.5 -26.5l-32 -59q-20 11 -50 20.5t-61 9.5q-54 0 -83 -22t-29 -59q0 -14 4.5 -25.5t15 -21
t29 -19t47.5 -20.5q25 -10 47 -21t37.5 -27t24.5 -37t9 -50q0 -42 -14.5 -74.5t-40.5 -55t-61 -34.5t-77 -12q-57 0 -100 13t-65 27z" />
    <glyph glyph-name="afii10103" unicode="&#x456;" horiz-adv-x="254" 
d="M106 448h-58l12 66h144l-90 -514h-86zM172 594q-26 0 -38.5 18t-12.5 41q0 33 19.5 54.5t48.5 21.5q26 0 39 -19.5t13 -42.5q0 -33 -20.5 -53t-48.5 -20z" />
    <glyph glyph-name="afii10104" unicode="&#x457;" horiz-adv-x="254" 
d="M106 448h-58l12 66h144l-90 -514h-86zM53 604q-25 0 -38.5 16.5t-13.5 38.5q0 35 17.5 55.5t45.5 20.5q26 0 39.5 -17t13.5 -40q0 -34 -19 -54t-45 -20zM249 604q-25 0 -38.5 16.5t-13.5 38.5q0 35 17.5 55.5t45.5 20.5q26 0 39.5 -17t13.5 -40q0 -34 -19 -54t-45 -20z
" />
    <glyph glyph-name="afii10105" unicode="&#x458;" horiz-adv-x="249" 
d="M-159 -137q13 -8 32.5 -13.5t44.5 -5.5q26 0 43 10t28 28t18 42.5t12 53.5l93 535h87l-97 -552q-7 -41 -19.5 -75t-33.5 -59t-52.5 -38.5t-76.5 -13.5q-35 0 -64.5 7.5t-46.5 19.5zM167 594q-26 0 -38.5 18t-12.5 41q0 33 19.5 54.5t48.5 21.5q26 0 39 -19.5t13 -42.5
q0 -33 -20.5 -53t-48.5 -20z" />
    <glyph glyph-name="afii10106" unicode="&#x459;" horiz-adv-x="740" 
d="M-35 28q44 38 65.5 73t33.5 80l89 333h298l-39 -234q30 13 59 22t67 9q28 0 53.5 -7.5t45 -23.5t31.5 -41.5t12 -61.5q0 -32 -10 -64.5t-37 -59t-75 -43.5t-124 -17q-22 0 -45 1.5t-43.5 3.5t-38 5.5t-29.5 6.5l77 435h-140l-73 -272q-14 -54 -40.5 -100t-73.5 -81z
M374 61q11 -2 31.5 -4t33.5 -2q42 0 70.5 9.5t46 26t24.5 38.5t7 46q0 40 -21 57t-53 17q-27 0 -54 -7.5t-57 -21.5z" />
    <glyph glyph-name="afii10107" unicode="&#x45a;" horiz-adv-x="793" 
d="M111 514h87l-35 -211h217l35 211h89l-39 -234q30 13 59 22t67 9q28 0 53.5 -7.5t45 -23.5t31.5 -41.5t12 -61.5q0 -32 -10 -64.5t-37 -59t-75 -43.5t-124 -17q-22 0 -45 1.5t-43.5 3.5t-38 5.5t-29.5 6.5l40 226h-219l-39 -236h-88zM427 61q11 -2 31.5 -4t33.5 -2
q42 0 70.5 9.5t46 26t24.5 38.5t7 46q0 40 -21 57t-53 17q-27 0 -54 -7.5t-57 -21.5z" />
    <glyph glyph-name="afii10108" unicode="&#x45b;" horiz-adv-x="555" 
d="M133 580h-53l11 69h54l16 87h85l-16 -87h168l-11 -69h-169l-30 -170q12 11 28 23t36 22t44 16.5t52 6.5q66 0 96.5 -36.5t30.5 -93.5q0 -14 -2.5 -39t-5.5 -42l-47 -267h-86l43 245l3 18t4 25.5t3.5 26.5t1.5 21q0 33 -16 51t-54 18q-26 0 -51.5 -9.5t-47 -27t-36.5 -43
t-21 -57.5l-47 -268h-86z" />
    <glyph glyph-name="afii10109" unicode="&#x45c;" horiz-adv-x="462" 
d="M115 514h84l-39 -218h51q24 0 37 22l90 142q23 37 50 49.5t55 12.5l14 -57q-23 -4 -38 -13.5t-26 -28.5l-72 -121q-5 -8 -12.5 -17t-13.5 -13l113 -254l-80 -25l-105 238h-74l-41 -231h-84zM383 797l66 -56l-165 -159l-42 34z" />
    <glyph glyph-name="afii10110" unicode="&#x45e;" horiz-adv-x="489" 
d="M-17 -142q16 -7 33 -11.5t40 -4.5q25 0 42.5 6.5t31 18.5t24 30t21.5 42l30 69h-6q-29 0 -49.5 9.5t-34 28t-21.5 45.5t-12 62l-40 354l90 15l37 -367q3 -26 7.5 -43t11 -26.5t16 -13t21.5 -3.5h7l177 454l80 -16l-238 -585q-30 -74 -75 -110t-116 -36q-35 0 -57.5 4.5
t-42.5 13.5zM194 724q8 -26 28.5 -44.5t64.5 -18.5q42 0 69.5 16.5t44.5 46.5l55 -18q-25 -62 -70.5 -88.5t-101.5 -26.5q-60 0 -100 30.5t-50 82.5z" />
    <glyph glyph-name="afii10193" unicode="&#x45f;" horiz-adv-x="544" 
d="M111 501h86l-51 -285q-2 -9 -4 -22t-3.5 -27t-3 -26.5t-1.5 -19.5q0 -68 70 -68q57 0 94.5 34.5t51.5 111.5l53 302h86l-71 -404l33 -76l-71 -37l-42 72q-13 -14 -28 -27t-33.5 -23.5t-41.5 -17t-52 -6.5q-36 0 -62 9.5t-42 26.5t-23.5 40t-7.5 50q0 9 1 21.5t2.5 26
t3 26.5t3.5 23zM196 -53l66 17l-23 -132h-77z" />
    <glyph glyph-name="afii10050" unicode="&#x490;" horiz-adv-x="472" 
d="M145 721h288l20 123h84l-33 -197h-280l-114 -647h-91z" />
    <glyph glyph-name="afii10098" unicode="&#x491;" horiz-adv-x="406" 
d="M111 514h235l18 106h77l-29 -174h-225l-74 -446h-88z" />
    <glyph glyph-name="Wgrave" unicode="&#x1e80;" horiz-adv-x="871" 
d="M74 712l95 16l28 -632q0 -20 3.5 -27.5t11.5 -7.5t12.5 7t12.5 28l215 625h78l26 -625q1 -21 2.5 -28t10.5 -7q8 0 12.5 7.5t11.5 25.5l231 634l81 -16l-232 -637q-10 -27 -20.5 -45t-24 -28.5t-31 -15t-40.5 -4.5q-27 0 -44.5 6t-28 18.5t-15 32.5t-5.5 49l-16 386
l-135 -397q-11 -29 -23 -47.5t-27 -29t-32.5 -14.5t-38.5 -4q-50 0 -69 24.5t-21 81.5zM449 964l125 -162l-40 -35l-149 138z" />
    <glyph glyph-name="wgrave" unicode="&#x1e81;" horiz-adv-x="706" 
d="M50 499l87 11l4 -436q0 -14 2 -20.5t10 -6.5q12 0 22 26l168 428h72l16 -428q0 -26 12 -26q8 0 12 5.5t10 20.5l165 437l76 -11l-164 -422q-19 -50 -43.5 -72.5t-69.5 -22.5q-27 0 -42.5 5.5t-24 18t-11 31.5t-2.5 46l-4 250l-99 -261q-17 -45 -43 -67.5t-64 -22.5
q-27 0 -43 5.5t-24.5 17.5t-11.5 31.5t-3 46.5zM285 754l76 42l83 -189l-49 -24z" />
    <glyph glyph-name="Wacute" unicode="&#x1e82;" horiz-adv-x="871" 
d="M74 712l95 16l28 -632q0 -20 3.5 -27.5t11.5 -7.5t12.5 7t12.5 28l215 625h78l26 -625q1 -21 2.5 -28t10.5 -7q8 0 12.5 7.5t11.5 25.5l231 634l81 -16l-232 -637q-10 -27 -20.5 -45t-24 -28.5t-31 -15t-40.5 -4.5q-27 0 -44.5 6t-28 18.5t-15 32.5t-5.5 49l-16 386
l-135 -397q-11 -29 -23 -47.5t-27 -29t-32.5 -14.5t-38.5 -4q-50 0 -69 24.5t-21 81.5zM610 961l56 -66l-188 -128l-36 40z" />
    <glyph glyph-name="wacute" unicode="&#x1e83;" horiz-adv-x="706" 
d="M50 499l87 11l4 -436q0 -14 2 -20.5t10 -6.5q12 0 22 26l168 428h72l16 -428q0 -26 12 -26q8 0 12 5.5t10 20.5l165 437l76 -11l-164 -422q-19 -50 -43.5 -72.5t-69.5 -22.5q-27 0 -42.5 5.5t-24 18t-11 31.5t-2.5 46l-4 250l-99 -261q-17 -45 -43 -67.5t-64 -22.5
q-27 0 -43 5.5t-24.5 17.5t-11.5 31.5t-3 46.5zM459 797l66 -56l-165 -159l-42 34z" />
    <glyph glyph-name="Wdieresis" unicode="&#x1e84;" horiz-adv-x="871" 
d="M74 712l95 16l28 -632q0 -20 3.5 -27.5t11.5 -7.5t12.5 7t12.5 28l215 625h78l26 -625q1 -21 2.5 -28t10.5 -7q8 0 12.5 7.5t11.5 25.5l231 634l81 -16l-232 -637q-10 -27 -20.5 -45t-24 -28.5t-31 -15t-40.5 -4.5q-27 0 -44.5 6t-28 18.5t-15 32.5t-5.5 49l-16 386
l-135 -397q-11 -29 -23 -47.5t-27 -29t-32.5 -14.5t-38.5 -4q-50 0 -69 24.5t-21 81.5zM396 776q-23 0 -35.5 14.5t-12.5 36.5q0 35 18.5 57.5t49.5 22.5q23 0 35.5 -15.5t12.5 -38.5q0 -35 -19.5 -56t-48.5 -21zM592 776q-23 0 -35.5 14.5t-12.5 36.5q0 35 18.5 57.5
t49.5 22.5q23 0 35.5 -15.5t12.5 -38.5q0 -35 -19.5 -56t-48.5 -21z" />
    <glyph glyph-name="wdieresis" unicode="&#x1e85;" horiz-adv-x="706" 
d="M50 499l87 11l4 -436q0 -14 2 -20.5t10 -6.5q12 0 22 26l168 428h72l16 -428q0 -26 12 -26q8 0 12 5.5t10 20.5l165 437l76 -11l-164 -422q-19 -50 -43.5 -72.5t-69.5 -22.5q-27 0 -42.5 5.5t-24 18t-11 31.5t-2.5 46l-4 250l-99 -261q-17 -45 -43 -67.5t-64 -22.5
q-27 0 -43 5.5t-24.5 17.5t-11.5 31.5t-3 46.5zM298 604q-25 0 -38.5 16.5t-13.5 38.5q0 35 17.5 55.5t45.5 20.5q26 0 39.5 -17t13.5 -40q0 -34 -19 -54t-45 -20zM494 604q-25 0 -38.5 16.5t-13.5 38.5q0 35 17.5 55.5t45.5 20.5q26 0 39.5 -17t13.5 -40q0 -34 -19 -54
t-45 -20z" />
    <glyph glyph-name="Ygrave" unicode="&#x1ef2;" horiz-adv-x="524" 
d="M191 279q-17 4 -26 25.5t-17 55.5l-85 352l90 18l84 -359q4 -15 7 -20t8 -5t10.5 5.5t14.5 20.5l215 356l80 -19l-226 -366q-13 -20 -22 -32.5t-16.5 -19.5t-14 -10t-12.5 -4l-48 -277h-92zM276 964l125 -162l-40 -35l-149 138z" />
    <glyph glyph-name="ygrave" unicode="&#x1ef3;" horiz-adv-x="489" 
d="M-17 -142q16 -7 33 -11.5t40 -4.5q25 0 42.5 6.5t31 18.5t24 30t21.5 42l30 69h-6q-59 0 -85 37t-32 108l-40 344l90 15l37 -357q2 -26 6.5 -43t11.5 -26.5t16.5 -13t21.5 -3.5h7l177 444l80 -16l-238 -575q-30 -74 -75 -110t-116 -36q-35 0 -57.5 4.5t-42.5 13.5z
M167 754l76 42l83 -189l-49 -24z" />
    <glyph glyph-name="endash" unicode="&#x2013;" horiz-adv-x="500" 
d="M3 344h500l-15 -84h-500z" />
    <glyph glyph-name="emdash" unicode="&#x2014;" horiz-adv-x="1000" 
d="M-2 344h1000l-15 -84h-1000z" />
    <glyph glyph-name="afii00208" unicode="&#x2015;" horiz-adv-x="1000" 
d="M60 344h1000l-15 -84h-1000z" />
    <glyph glyph-name="quoteleft" unicode="&#x2018;" horiz-adv-x="225" 
d="M178 733l42 -16l-51 -110q17 -4 28.5 -16.5t11.5 -32.5q0 -34 -19.5 -56t-54.5 -22q-29 0 -42.5 15t-13.5 39q0 23 11.5 50t41.5 75z" />
    <glyph glyph-name="quoteright" unicode="&#x2019;" horiz-adv-x="230" 
d="M140 606q-17 4 -28.5 16.5t-11.5 32.5q0 34 19.5 56t54.5 22q29 0 42.5 -15t13.5 -39q0 -23 -11.5 -50t-41.5 -75l-46 -74l-42 16z" />
    <glyph glyph-name="quotesinglbase" unicode="&#x201a;" horiz-adv-x="211" 
d="M35 -5q-17 4 -28.5 16.5t-11.5 32.5q0 34 19.5 56t54.5 22q29 0 42.5 -15t13.5 -39q0 -23 -11.5 -50t-41.5 -75l-46 -74l-42 16z" />
    <glyph glyph-name="quotedblleft" unicode="&#x201c;" horiz-adv-x="398" 
d="M351 733l42 -16l-51 -110q17 -4 28.5 -16.5t11.5 -32.5q0 -34 -19.5 -56t-54.5 -22q-29 0 -42.5 15t-13.5 39q0 23 11.5 50t41.5 75zM178 733l42 -16l-51 -110q17 -4 28.5 -16.5t11.5 -32.5q0 -34 -19.5 -56t-54.5 -22q-29 0 -42.5 15t-13.5 39q0 23 11.5 50t41.5 75z
" />
    <glyph glyph-name="quotedblright" unicode="&#x201d;" horiz-adv-x="403" 
d="M313 606q-17 4 -28.5 16.5t-11.5 32.5q0 34 19.5 56t54.5 22q29 0 42.5 -15t13.5 -39q0 -23 -11.5 -50t-41.5 -75l-46 -74l-42 16zM140 606q-17 4 -28.5 16.5t-11.5 32.5q0 34 19.5 56t54.5 22q29 0 42.5 -15t13.5 -39q0 -23 -11.5 -50t-41.5 -75l-46 -74l-42 16z" />
    <glyph glyph-name="quotedblbase" unicode="&#x201e;" horiz-adv-x="385" 
d="M35 -5q-17 4 -28.5 16.5t-11.5 32.5q0 34 19.5 56t54.5 22q29 0 42.5 -15t13.5 -39q0 -23 -11.5 -50t-41.5 -75l-46 -74l-42 16zM207 -5q-17 4 -28.5 16.5t-11.5 32.5q0 34 19.5 56t54.5 22q29 0 42.5 -15t13.5 -39q0 -23 -11.5 -50t-41.5 -75l-46 -74l-42 16z" />
    <glyph glyph-name="dagger" unicode="&#x2020;" horiz-adv-x="473" 
d="M226 468l-151 -22l14 80h149l17 195h96l-52 -195h147l-14 -80l-143 22l-95 -615h-94z" />
    <glyph glyph-name="daggerdbl" unicode="&#x2021;" horiz-adv-x="473" 
d="M155 48h-150l15 80l144 -21l13 180l51 180l-151 -21l14 80h150l16 195h97l-54 -195h148l-14 -80l-145 21l-11 -180l-53 -180l152 21l-14 -80h-148l-17 -195h-97z" />
    <glyph glyph-name="bullet" unicode="&#x2022;" horiz-adv-x="500" 
d="M251 223q-55 0 -80 30t-25 78t25 78t80 30q54 0 78.5 -30t24.5 -78t-24.5 -78t-78.5 -30z" />
    <glyph glyph-name="ellipsis" unicode="&#x2026;" horiz-adv-x="784" 
d="M65 -17q-26 0 -40.5 17t-14.5 40q0 36 18.5 58t47.5 22q27 0 41.5 -18t14.5 -42q0 -36 -19.5 -56.5t-47.5 -20.5zM338 -17q-26 0 -40.5 17t-14.5 40q0 36 18.5 58t47.5 22q27 0 41.5 -18t14.5 -42q0 -36 -19.5 -56.5t-47.5 -20.5zM612 -17q-26 0 -40.5 17t-14.5 40
q0 36 18.5 58t47.5 22q27 0 41.5 -18t14.5 -42q0 -36 -19.5 -56.5t-47.5 -20.5z" />
    <glyph glyph-name="perthousand" unicode="&#x2030;" horiz-adv-x="1047" 
d="M570 712h89l-496 -712h-89zM175 433q25 0 42.5 20t27.5 47.5t14.5 57t4.5 48.5q0 32 -9.5 49t-32.5 17q-26 0 -43 -20t-27 -48t-14.5 -57.5t-4.5 -48.5q0 -32 9.5 -48.5t32.5 -16.5zM173 383q-58 0 -84 31t-26 82q0 48 11 89.5t32 71.5t51 47t67 17q58 0 84 -31t26 -82
q0 -48 -11 -89.5t-32 -71.5t-51 -47t-67 -17zM504 36q25 0 42.5 20t27.5 47.5t14.5 57t4.5 48.5q0 32 -9.5 49t-32.5 17q-26 0 -43 -20t-27 -48t-14.5 -57.5t-4.5 -48.5q0 -32 9.5 -48.5t32.5 -16.5zM502 -14q-58 0 -84 31t-26 82q0 48 11 89.5t32 71.5t51 47t67 17
q58 0 84 -31t26 -82q0 -48 -11 -89.5t-32 -71.5t-51 -47t-67 -17zM825 36q25 0 42.5 20t27.5 47.5t14.5 57t4.5 48.5q0 32 -9.5 49t-32.5 17q-26 0 -43 -20t-27 -48t-14.5 -57.5t-4.5 -48.5q0 -32 9.5 -48.5t32.5 -16.5zM823 -14q-58 0 -84 31t-26 82q0 48 11 89.5t32 71.5
t51 47t67 17q58 0 84 -31t26 -82q0 -48 -11 -89.5t-32 -71.5t-51 -47t-67 -17z" />
    <glyph glyph-name="guilsinglleft" unicode="&#x2039;" horiz-adv-x="278" 
d="M71 189q-21 21 -33.5 39.5t-12.5 44.5q0 35 18.5 56.5t48.5 44.5l113 85l48 -37l-120 -99q-17 -14 -23 -24.5t-6 -21.5q0 -8 3 -16t12 -19l87 -106l-58 -34z" />
    <glyph glyph-name="guilsinglright" unicode="&#x203a;" horiz-adv-x="280" 
d="M122 241q17 14 23 24t6 22q0 17 -15 35l-87 102l58 34l77 -83q20 -20 33 -39t13 -45q0 -32 -19 -55t-48 -46l-113 -89l-48 37z" />
    <glyph glyph-name="fraction" unicode="&#x2044;" horiz-adv-x="145" 
d="M276 712h89l-496 -712h-89z" />
    <glyph glyph-name="zerosuperior" unicode="&#x2070;" 
d="M205 338q33 0 55 25t35.5 61t19.5 75t6 68q0 42 -12.5 67t-41.5 25q-33 0 -55 -25t-35.5 -61t-19.5 -75.5t-6 -67.5q0 -42 12.5 -67t41.5 -25zM195 276q-61 0 -90.5 42t-29.5 111q0 59 14 112t40.5 93t63.5 63.5t84 23.5q61 0 90.5 -42t29.5 -111q0 -59 -14 -112
t-40.5 -93t-64 -63.5t-83.5 -23.5z" />
    <glyph glyph-name="foursuperior" unicode="&#x2074;" 
d="M234 392h-117q-27 0 -39.5 11t-12.5 30q0 20 8.5 34.5t28.5 35.5l197 209h62l-48 -263h59l-9 -57h-60l-19 -108h-69zM244 449l31 162l-141 -150q-6 -6 -6 -9t5 -3h111z" />
    <glyph glyph-name="fivesuperior" unicode="&#x2075;" 
d="M87 369q17 -14 44 -23t57 -9q45 0 70 27t25 75q0 28 -15 45.5t-44 17.5q-20 0 -39.5 -6t-36.5 -15l-30 26l54 205h215l-11 -62h-159l-27 -102q11 5 27 8t34 3q21 0 39.5 -7.5t33 -21.5t23 -34.5t8.5 -46.5q0 -38 -11.5 -70t-34 -55t-54.5 -36t-74 -13q-45 0 -79 13
t-51 28z" />
    <glyph glyph-name="sixsuperior" unicode="&#x2076;" 
d="M364 640q-16 11 -32 18t-42 7q-22 0 -40.5 -10.5t-33 -27.5t-25.5 -39.5t-17 -47.5q10 7 32 16t48 9q54 0 84 -34t30 -88q0 -37 -12 -68t-33.5 -53t-50.5 -34t-62 -12q-54 0 -89 36t-35 103q0 49 13 103t38.5 99t64.5 74.5t92 29.5q33 0 58 -9.5t45 -23.5zM163 481
q-4 -18 -5 -33t-1 -32q0 -39 14 -60t41 -21q38 0 61.5 26t23.5 76q0 34 -14 52.5t-46 18.5q-24 0 -42 -7.5t-32 -19.5z" />
    <glyph glyph-name="sevensuperior" unicode="&#x2077;" 
d="M317 640q3 4 3 7t-6 3h-198l11 62h237q20 0 30.5 -9.5t10.5 -24.5q0 -22 -19 -54l-203 -342h-77z" />
    <glyph glyph-name="eightsuperior" unicode="&#x2078;" 
d="M173 507q-14 8 -30 29.5t-16 56.5q0 29 11 53t31 40.5t46.5 25.5t58.5 9q29 0 51.5 -8.5t38 -22.5t23.5 -32t8 -38q0 -42 -24.5 -70t-53.5 -42q27 -12 44.5 -36t17.5 -59q0 -29 -12.5 -53.5t-34 -43.5t-51.5 -29.5t-64 -10.5q-66 0 -100 29t-34 80q0 25 8.5 45t21.5 35
t29 25.5t31 16.5zM216 482q-23 -11 -41.5 -32.5t-18.5 -56.5q0 -23 17 -42t49 -19q38 0 60.5 20t22.5 53q0 29 -13 44t-40 23zM259 531q29 10 48 30t19 52q0 52 -59 52q-30 0 -52.5 -17.5t-22.5 -49.5q0 -24 12.5 -38t35.5 -22z" />
    <glyph glyph-name="ninesuperior" unicode="&#x2079;" 
d="M109 357q16 -11 35 -18t47 -7q24 0 41.5 10.5t30.5 28.5t21.5 40.5t13.5 46.5q-9 -7 -31 -15t-47 -8q-51 0 -83 32.5t-32 87.5q0 38 12 68.5t33 52.5t50 33.5t63 11.5q62 0 93 -39.5t31 -98.5q0 -52 -10 -106.5t-33.5 -99t-62 -73t-94.5 -28.5q-37 0 -64 9.5t-47 23.5z
M310 519q2 10 4 27t2 31q0 39 -15 62t-47 23q-35 0 -56.5 -27.5t-21.5 -76.5q0 -66 62 -66q20 0 39.5 7.5t32.5 19.5z" />
    <glyph glyph-name="zeroinferior" unicode="&#x2080;" 
d="M164 56q33 0 55 25t35.5 61t19.5 75t6 68q0 42 -12.5 67t-41.5 25q-33 0 -55 -25t-35.5 -61t-19.5 -75.5t-6 -67.5q0 -42 12.5 -67t41.5 -25zM154 -6q-61 0 -90.5 42t-29.5 111q0 59 14 112t40.5 93t63.5 63.5t84 23.5q61 0 90.5 -42t29.5 -111q0 -59 -14 -112t-40.5 -93
t-64 -63.5t-83.5 -23.5z" />
    <glyph glyph-name="oneinferior" unicode="&#x2081;" 
d="M47 63h91l50 281q0 1 0.5 3t0.5 4q0 4 -3 4q-4 0 -9 -4l-72 -53l-33 46l105 76q13 9 25.5 14t30.5 5q17 0 27 -8.5t10 -25.5q0 -10 -3 -25l-56 -317h89l-12 -61h-253z" />
    <glyph glyph-name="twoinferior" unicode="&#x2082;" 
d="M190 221q36 29 56 53.5t20 56.5q0 20 -13.5 33t-40.5 13q-32 0 -58 -13t-49 -29l-29 47q29 21 65.5 39t79.5 18q55 0 86 -28.5t31 -70.5q0 -29 -10.5 -53.5t-27 -45.5t-37 -38.5t-39.5 -32.5l-124 -94q-4 -4 -4 -7q0 -4 7 -4h191l-11 -63h-210q-26 0 -42 12.5t-16 34.5
q0 17 9 32t31 32z" />
    <glyph glyph-name="threeinferior" unicode="&#x2083;" 
d="M51 90q18 -14 43 -24.5t57 -10.5q50 0 72.5 24.5t22.5 57.5q0 62 -83 62h-29l8 46l144 123h-189l11 62h202q25 0 36 -11t11 -28q0 -20 -9.5 -35.5t-33.5 -34.5l-91 -73q48 -3 73 -30.5t25 -69.5q0 -31 -11 -59t-32 -49.5t-51.5 -34t-69.5 -12.5q-51 0 -86 13t-56 32z" />
    <glyph glyph-name="fourinferior" unicode="&#x2084;" 
d="M197 110h-117q-27 0 -39.5 11t-12.5 30q0 20 8.5 34.5t28.5 35.5l197 209h62l-48 -263h59l-9 -57h-60l-19 -108h-69zM207 167l31 162l-141 -150q-6 -6 -6 -9t5 -3h111z" />
    <glyph glyph-name="fiveinferior" unicode="&#x2085;" 
d="M43 87q17 -14 44 -23t57 -9q45 0 70 27t25 75q0 28 -15 45.5t-44 17.5q-20 0 -39.5 -6t-36.5 -15l-30 26l54 205h215l-11 -62h-159l-27 -102q11 5 27 8t34 3q21 0 39.5 -7.5t33 -21.5t23 -34.5t8.5 -46.5q0 -38 -11.5 -70t-34 -55t-54.5 -36t-74 -13q-45 0 -79 13t-51 28
z" />
    <glyph glyph-name="sixinferior" unicode="&#x2086;" 
d="M321 358q-16 11 -32 18t-42 7q-22 0 -40.5 -10.5t-33 -27.5t-25.5 -39.5t-17 -47.5q10 7 32 16t48 9q54 0 84 -34t30 -88q0 -37 -12 -68t-33.5 -53t-50.5 -34t-62 -12q-54 0 -89 36t-35 103q0 49 13 103t38.5 99t64.5 74.5t92 29.5q33 0 58 -9.5t45 -23.5zM120 199
q-4 -18 -5 -33t-1 -32q0 -39 14 -60t41 -21q38 0 61.5 26t23.5 76q0 34 -14 52.5t-46 18.5q-24 0 -42 -7.5t-32 -19.5z" />
    <glyph glyph-name="seveninferior" unicode="&#x2087;" 
d="M286 358q3 4 3 7t-6 3h-198l11 62h237q20 0 30.5 -9.5t10.5 -24.5q0 -22 -19 -54l-203 -342h-77z" />
    <glyph glyph-name="eightinferior" unicode="&#x2088;" 
d="M132 225q-14 8 -30 29.5t-16 56.5q0 29 11 53t31 40.5t46.5 25.5t58.5 9q29 0 51.5 -8.5t38 -22.5t23.5 -32t8 -38q0 -42 -24.5 -70t-53.5 -42q27 -12 44.5 -36t17.5 -59q0 -29 -12.5 -53.5t-34 -43.5t-51.5 -29.5t-64 -10.5q-66 0 -100 29t-34 80q0 25 8.5 45t21.5 35
t29 25.5t31 16.5zM175 200q-23 -11 -41.5 -32.5t-18.5 -56.5q0 -23 17 -42t49 -19q38 0 60.5 20t22.5 53q0 29 -13 44t-40 23zM218 249q29 10 48 30t19 52q0 52 -59 52q-30 0 -52.5 -17.5t-22.5 -49.5q0 -24 12.5 -38t35.5 -22z" />
    <glyph glyph-name="nineinferior" unicode="&#x2089;" 
d="M72 75q16 -11 35 -18t47 -7q24 0 41.5 10.5t30.5 28.5t21.5 40.5t13.5 46.5q-9 -7 -31 -15t-47 -8q-51 0 -83 32.5t-32 87.5q0 38 12 68.5t33 52.5t50 33.5t63 11.5q62 0 93 -39.5t31 -98.5q0 -52 -10 -106.5t-33.5 -99t-62 -73t-94.5 -28.5q-37 0 -64 9.5t-47 23.5z
M273 237q2 10 4 27t2 31q0 39 -15 62t-47 23q-35 0 -56.5 -27.5t-21.5 -76.5q0 -66 62 -66q20 0 39.5 7.5t32.5 19.5z" />
    <glyph glyph-name="Euro" unicode="&#x20ac;" horiz-adv-x="594" 
d="M59 306h370l-12 -66h-208q0 -91 28 -136t95 -45q43 0 76.5 9.5t71.5 31.5l25 -66q-37 -24 -82 -38t-98 -14q-52 0 -90 16t-63.5 45.5t-38 70t-12.5 89.5q0 11 0.5 21.5t0.5 15.5h-75zM86 458h67q32 124 107 193.5t192 69.5q54 0 90.5 -15t61.5 -35l-38 -59
q-20 14 -48 25.5t-67 11.5q-33 0 -63.5 -9t-57.5 -30.5t-49 -58.5t-38 -93h213l-11 -66h-371z" />
    <glyph glyph-name="afii61289" unicode="&#x2113;" horiz-adv-x="456" 
d="M180 289q54 60 85.5 123.5t31.5 132.5q0 48 -16 67.5t-38 19.5q-26 0 -44.5 -33t-18.5 -109v-201zM103 437q0 71 9.5 119.5t28 78t45 42.5t61.5 13q51 0 84 -37.5t33 -106.5q0 -91 -48 -172.5t-136 -163.5v-20q0 -41 6 -66.5t16.5 -39.5t25 -19.5t31.5 -5.5
q32 0 61.5 16.5t45.5 39.5l19.5 -19.5t20.5 -18.5q-27 -40 -65.5 -63t-90.5 -23q-70 0 -108 39.5t-38 127.5q-13 -10 -24.5 -18t-24.5 -17q-5 11 -11.5 22t-13.5 22q19 13 37 27.5t36 30.5v212z" />
    <glyph glyph-name="afii61352" unicode="&#x2116;" horiz-adv-x="995" 
d="M615 227h313l-13 -79h-313zM146 721h93l151 -612q4 -14 5.5 -18.5t6.5 -4.5t6 3.5t3 11.5l111 620h81l-110 -621q-11 -60 -36.5 -83.5t-69.5 -23.5q-27 0 -47 14t-33 58l-111 484l-96 -549h-81zM781 328q27 0 47.5 16.5t33.5 43.5t19.5 61.5t6.5 69.5q0 41 -15.5 63
t-44.5 22q-28 0 -49 -16.5t-34.5 -43t-20.5 -60t-7 -67.5q0 -43 16 -66t48 -23zM777 276q-36 0 -61.5 12t-42 31.5t-24.5 45t-8 53.5q0 60 17 104.5t44 74.5t61 44.5t69 14.5q33 0 57.5 -12t41.5 -31.5t25.5 -45t8.5 -52.5q0 -60 -15.5 -105t-41.5 -75t-60 -44.5t-71 -14.5z
" />
    <glyph glyph-name="trademark" unicode="&#x2122;" horiz-adv-x="906" 
d="M198 659h-120v62h320v-62h-121v-341h-79v341zM466 721h69l91 -204q4 -8 7.5 -11t8.5 -3t9 3t8 11l88 204h70l25 -403h-72l-16 264l-44 -96q-16 -34 -31.5 -45t-37.5 -11q-21 0 -37 10.5t-31 42.5l-46 100l-14 -265h-72z" />
    <glyph glyph-name="estimated" unicode="&#x212e;" horiz-adv-x="647" 
d="M137 118q0 -10 4 -18.5t10 -15.5q0 -2 2 -2q67 -66 168 -66q57 0 104.5 23t82.5 63h42q-39 -48 -98 -75t-131 -27q-60 0 -113 20.5t-93 56t-63 83.5t-23 102t23 101.5t63 83t93 56t113 20.5q61 0 114.5 -21t92.5 -57.5t61.5 -85.5t22.5 -104h-469q-6 0 -6 -8v-129z
M497 268q7 0 7 7v131q0 19 -12 34q-35 34 -79 51.5t-92 17.5q-100 0 -170 -69q-6 -7 -10 -16t-4 -18v-131q0 -7 6 -7h354z" />
    <glyph glyph-name="onethird" unicode="&#x2153;" horiz-adv-x="1000" 
d="M84 345h91l50 281q0 1 0.5 3t0.5 4q0 4 -3 4q-4 0 -9 -4l-72 -53l-33 46l105 76q13 9 25.5 14t30.5 5q17 0 27 -8.5t10 -25.5q0 -10 -3 -25l-56 -317h89l-12 -61h-253zM699 712h89l-496 -712h-89zM630 90q18 -14 43 -24.5t57 -10.5q50 0 72.5 24.5t22.5 57.5q0 62 -83 62
h-29l8 46l144 123h-189l11 62h202q25 0 36 -11t11 -28q0 -20 -9.5 -35.5t-33.5 -34.5l-91 -73q48 -3 73 -30.5t25 -69.5q0 -31 -11 -59t-32 -49.5t-51.5 -34t-69.5 -12.5q-51 0 -86 13t-56 32z" />
    <glyph glyph-name="twothirds" unicode="&#x2154;" horiz-adv-x="1000" 
d="M233 503q36 29 56 53.5t20 56.5q0 20 -13.5 33t-40.5 13q-32 0 -58 -13t-49 -29l-29 47q29 21 65.5 39t79.5 18q55 0 86 -28.5t31 -70.5q0 -29 -10.5 -53.5t-27 -45.5t-37 -38.5t-39.5 -32.5l-124 -94q-4 -4 -4 -7q0 -4 7 -4h191l-11 -63h-210q-26 0 -42 12.5t-16 34.5
q0 17 9 32t31 32zM704 712h89l-496 -712h-89zM642 90q18 -14 43 -24.5t57 -10.5q50 0 72.5 24.5t22.5 57.5q0 62 -83 62h-29l8 46l144 123h-189l11 62h202q25 0 36 -11t11 -28q0 -20 -9.5 -35.5t-33.5 -34.5l-91 -73q48 -3 73 -30.5t25 -69.5q0 -31 -11 -59t-32 -49.5
t-51.5 -34t-69.5 -12.5q-51 0 -86 13t-56 32z" />
    <glyph glyph-name="onefifth" unicode="&#x2155;" horiz-adv-x="1000" 
d="M84 345h91l50 281q0 1 0.5 3t0.5 4q0 4 -3 4q-4 0 -9 -4l-72 -53l-33 46l105 76q13 9 25.5 14t30.5 5q17 0 27 -8.5t10 -25.5q0 -10 -3 -25l-56 -317h89l-12 -61h-253zM709 712h89l-496 -712h-89zM632 87q17 -14 44 -23t57 -9q45 0 70 27t25 75q0 28 -15 45.5t-44 17.5
q-20 0 -39.5 -6t-36.5 -15l-30 26l54 205h215l-11 -62h-159l-27 -102q11 5 27 8t34 3q21 0 39.5 -7.5t33 -21.5t23 -34.5t8.5 -46.5q0 -38 -11.5 -70t-34 -55t-54.5 -36t-74 -13q-45 0 -79 13t-51 28z" />
    <glyph glyph-name="twofifths" unicode="&#x2156;" horiz-adv-x="1000" 
d="M233 503q36 29 56 53.5t20 56.5q0 20 -13.5 33t-40.5 13q-32 0 -58 -13t-49 -29l-29 47q29 21 65.5 39t79.5 18q55 0 86 -28.5t31 -70.5q0 -29 -10.5 -53.5t-27 -45.5t-37 -38.5t-39.5 -32.5l-124 -94q-4 -4 -4 -7q0 -4 7 -4h191l-11 -63h-210q-26 0 -42 12.5t-16 34.5
q0 17 9 32t31 32zM704 712h89l-496 -712h-89zM627 87q17 -14 44 -23t57 -9q45 0 70 27t25 75q0 28 -15 45.5t-44 17.5q-20 0 -39.5 -6t-36.5 -15l-30 26l54 205h215l-11 -62h-159l-27 -102q11 5 27 8t34 3q21 0 39.5 -7.5t33 -21.5t23 -34.5t8.5 -46.5q0 -38 -11.5 -70
t-34 -55t-54.5 -36t-74 -13q-45 0 -79 13t-51 28z" />
    <glyph glyph-name="threefifths" unicode="&#x2157;" horiz-adv-x="1000" 
d="M86 372q18 -14 43 -24.5t57 -10.5q50 0 72.5 24.5t22.5 57.5q0 62 -83 62h-29l8 46l144 123h-189l11 62h202q25 0 36 -11t11 -28q0 -20 -9.5 -35.5t-33.5 -34.5l-91 -73q48 -3 73 -30.5t25 -69.5q0 -31 -11 -59t-32 -49.5t-51.5 -34t-69.5 -12.5q-51 0 -86 13t-56 32z
M711 712h89l-496 -712h-89zM643 87q17 -14 44 -23t57 -9q45 0 70 27t25 75q0 28 -15 45.5t-44 17.5q-20 0 -39.5 -6t-36.5 -15l-30 26l54 205h215l-11 -62h-159l-27 -102q11 5 27 8t34 3q21 0 39.5 -7.5t33 -21.5t23 -34.5t8.5 -46.5q0 -38 -11.5 -70t-34 -55t-54.5 -36
t-74 -13q-45 0 -79 13t-51 28z" />
    <glyph glyph-name="fourfifths" unicode="&#x2158;" horiz-adv-x="1000" 
d="M231 392h-117q-27 0 -39.5 11t-12.5 30q0 20 8.5 34.5t28.5 35.5l197 209h62l-48 -263h59l-9 -57h-60l-19 -108h-69zM241 449l31 162l-141 -150q-6 -6 -6 -9t5 -3h111zM716 712h89l-496 -712h-89zM640 87q17 -14 44 -23t57 -9q45 0 70 27t25 75q0 28 -15 45.5t-44 17.5
q-20 0 -39.5 -6t-36.5 -15l-30 26l54 205h215l-11 -62h-159l-27 -102q11 5 27 8t34 3q21 0 39.5 -7.5t33 -21.5t23 -34.5t8.5 -46.5q0 -38 -11.5 -70t-34 -55t-54.5 -36t-74 -13q-45 0 -79 13t-51 28z" />
    <glyph glyph-name="onesixth" unicode="&#x2159;" horiz-adv-x="1000" 
d="M83 345h91l50 281q0 1 0.5 3t0.5 4q0 4 -3 4q-4 0 -9 -4l-72 -53l-33 46l105 76q13 9 25.5 14t30.5 5q17 0 27 -8.5t10 -25.5q0 -10 -3 -25l-56 -317h89l-12 -61h-253zM710 712h89l-496 -712h-89zM899 358q-16 11 -32 18t-42 7q-22 0 -40.5 -10.5t-33 -27.5t-25.5 -39.5
t-17 -47.5q10 7 32 16t48 9q54 0 84 -34t30 -88q0 -37 -12 -68t-33.5 -53t-50.5 -34t-62 -12q-54 0 -89 36t-35 103q0 49 13 103t38.5 99t64.5 74.5t92 29.5q33 0 58 -9.5t45 -23.5zM698 199q-4 -18 -5 -33t-1 -32q0 -39 14 -60t41 -21q38 0 61.5 26t23.5 76q0 34 -14 52.5
t-46 18.5q-24 0 -42 -7.5t-32 -19.5z" />
    <glyph glyph-name="fivesixths" unicode="&#x215a;" horiz-adv-x="1000" 
d="M93 369q17 -14 44 -23t57 -9q45 0 70 27t25 75q0 28 -15 45.5t-44 17.5q-20 0 -39.5 -6t-36.5 -15l-30 26l54 205h215l-11 -62h-159l-27 -102q11 5 27 8t34 3q21 0 39.5 -7.5t33 -21.5t23 -34.5t8.5 -46.5q0 -38 -11.5 -70t-34 -55t-54.5 -36t-74 -13q-45 0 -79 13
t-51 28zM719 712h89l-496 -712h-89zM913 358q-16 11 -32 18t-42 7q-22 0 -40.5 -10.5t-33 -27.5t-25.5 -39.5t-17 -47.5q10 7 32 16t48 9q54 0 84 -34t30 -88q0 -37 -12 -68t-33.5 -53t-50.5 -34t-62 -12q-54 0 -89 36t-35 103q0 49 13 103t38.5 99t64.5 74.5t92 29.5
q33 0 58 -9.5t45 -23.5zM712 199q-4 -18 -5 -33t-1 -32q0 -39 14 -60t41 -21q38 0 61.5 26t23.5 76q0 34 -14 52.5t-46 18.5q-24 0 -42 -7.5t-32 -19.5z" />
    <glyph glyph-name="oneeighth" unicode="&#x215b;" horiz-adv-x="1000" 
d="M88 345h91l50 281q0 1 0.5 3t0.5 4q0 4 -3 4q-4 0 -9 -4l-72 -53l-33 46l105 76q13 9 25.5 14t30.5 5q17 0 27 -8.5t10 -25.5q0 -10 -3 -25l-56 -317h89l-12 -61h-253zM714 712h89l-496 -712h-89zM705 225q-14 8 -30 29.5t-16 56.5q0 29 11 53t31 40.5t46.5 25.5t58.5 9
q29 0 51.5 -8.5t38 -22.5t23.5 -32t8 -38q0 -42 -24.5 -70t-53.5 -42q27 -12 44.5 -36t17.5 -59q0 -29 -12.5 -53.5t-34 -43.5t-51.5 -29.5t-64 -10.5q-66 0 -100 29t-34 80q0 25 8.5 45t21.5 35t29 25.5t31 16.5zM748 200q-23 -11 -41.5 -32.5t-18.5 -56.5q0 -23 17 -42
t49 -19q38 0 60.5 20t22.5 53q0 29 -13 44t-40 23zM791 249q29 10 48 30t19 52q0 52 -59 52q-30 0 -52.5 -17.5t-22.5 -49.5q0 -24 12.5 -38t35.5 -22z" />
    <glyph glyph-name="threeeighths" unicode="&#x215c;" horiz-adv-x="1000" 
d="M91 372q18 -14 43 -24.5t57 -10.5q50 0 72.5 24.5t22.5 57.5q0 62 -83 62h-29l8 46l144 123h-189l11 62h202q25 0 36 -11t11 -28q0 -20 -9.5 -35.5t-33.5 -34.5l-91 -73q48 -3 73 -30.5t25 -69.5q0 -31 -11 -59t-32 -49.5t-51.5 -34t-69.5 -12.5q-51 0 -86 13t-56 32z
M723 712h89l-496 -712h-89zM725 225q-14 8 -30 29.5t-16 56.5q0 29 11 53t31 40.5t46.5 25.5t58.5 9q29 0 51.5 -8.5t38 -22.5t23.5 -32t8 -38q0 -42 -24.5 -70t-53.5 -42q27 -12 44.5 -36t17.5 -59q0 -29 -12.5 -53.5t-34 -43.5t-51.5 -29.5t-64 -10.5q-66 0 -100 29
t-34 80q0 25 8.5 45t21.5 35t29 25.5t31 16.5zM768 200q-23 -11 -41.5 -32.5t-18.5 -56.5q0 -23 17 -42t49 -19q38 0 60.5 20t22.5 53q0 29 -13 44t-40 23zM811 249q29 10 48 30t19 52q0 52 -59 52q-30 0 -52.5 -17.5t-22.5 -49.5q0 -24 12.5 -38t35.5 -22z" />
    </font>
</defs>
</svg>
